<svg id="Livello_1" data-name="Livello 1" xmlns="http://www.w3.org/2000/svg" viewBox="0 0 556.93 556.93">
    <title>bubble-chart</title>
    <path d="M278.47,2A276.54,276.54,0,0,1,386.08,533.21,276.54,276.54,0,0,1,170.85,23.73,274.7,274.7,0,0,1,278.47,2m0-2C124.67,0,0,124.67,0,278.47S124.67,556.93,278.47,556.93,556.93,432.26,556.93,278.47,432.26,0,278.47,0Z" style="fill:#fff" />
    <g id="Pallini">
        <path id="p_378.02820268733313" data-name="p 378.02820268733313" d="M103.72,167.77a26.51,26.51,0,1,1,0-53h0a26.51,26.51,0,0,1,0,53Z" style="fill:none;stroke:#fff;stroke-miterlimit:10;stroke-width:2px" />
        <path id="p_789.4581532973621" data-name="p 789.4581532973621" d="M164.75,518.17a23.17,23.17,0,0,1,0-46.33h0a23.17,23.17,0,1,1,0,46.33Z" style="fill:none;stroke:#fff;stroke-miterlimit:10;stroke-width:2px" />
        <path id="p_371.9616974762054" data-name="p 371.9616974762054" d="M67.05,198.37A22.2,22.2,0,0,1,67,154h0a22.2,22.2,0,0,1,0,44.4Z" style="fill:none;stroke:#fff;stroke-miterlimit:10;stroke-width:2px" />
        <path id="p_968.0073637641341" data-name="p 968.0073637641341" d="M329.64,531.83a21.19,21.19,0,0,1,0-42.38h0a21.19,21.19,0,0,1,0,42.38Z" style="fill:none;stroke:#fff;stroke-miterlimit:10;stroke-width:2px" />
        <path id="p_645.0696012657577" data-name="p 645.0696012657577" d="M428.38,110.15a20.68,20.68,0,1,1,20.67-20.68A20.68,20.68,0,0,1,428.38,110.15Z" style="fill:none;stroke:#fff;stroke-miterlimit:10;stroke-width:2px" />
        <path id="p_565.8338207433413" data-name="p 565.8338207433413" d="M62,397.33a20.63,20.63,0,0,1,0-41.25h0a20.63,20.63,0,1,1,0,41.25Z" style="fill:none;stroke:#fff;stroke-miterlimit:10;stroke-width:2px" />
        <path id="p_1003.8775046602731" data-name="p 1003.8775046602731" d="M372.81,524.52a20.58,20.58,0,1,1,0-41.16h0a20.58,20.58,0,1,1,0,41.16Z" style="fill:none;stroke:#fff;stroke-miterlimit:10;stroke-width:2px" />
        <path id="p_979.924681599181" data-name="p 979.924681599181" d="M513.67,359.72a20.54,20.54,0,1,1,20.53-20.54A20.55,20.55,0,0,1,513.67,359.72Z" style="fill:none;stroke:#fff;stroke-miterlimit:10;stroke-width:2px" />
        <g id="p_868.5629756962634" data-name="p 868.5629756962634">
            <path d="M223.8,501.16a17.54,17.54,0,1,1-17.54,17.53,17.55,17.55,0,0,1,17.54-17.53m0-2a19.54,19.54,0,1,0,19.53,19.53,19.53,19.53,0,0,0-19.53-19.53Z" style="fill:#fff" />
        </g>
        <path id="p_368.62885832827436" data-name="p 368.62885832827436" d="M213.31,48.78a18.06,18.06,0,1,1,18.05-18.06A18.06,18.06,0,0,1,213.31,48.78Z" style="fill:none;stroke:#fff;stroke-miterlimit:10;stroke-width:2px" />
        <path id="p_331.32826652589887" data-name="p 331.32826652589887" d="M111.32,113.47A17.5,17.5,0,1,1,128.81,96,17.49,17.49,0,0,1,111.32,113.47Z" style="fill:none;stroke:#fff;stroke-miterlimit:10;stroke-width:2px" />
        <path id="p_384.54391897147036" data-name="p 384.54391897147036" d="M48.07,229.93A17.13,17.13,0,1,1,65.2,212.8,17.13,17.13,0,0,1,48.07,229.93Z" style="fill:none;stroke:#fff;stroke-miterlimit:10;stroke-width:2px" />
        <g id="p_1028.9968860475958" data-name="p 1028.9968860475958">
            <path d="M480.41,411.51a14.27,14.27,0,1,1-14.27,14.27,14.28,14.28,0,0,1,14.27-14.27m0-2a16.27,16.27,0,1,0,16.27,16.27,16.26,16.26,0,0,0-16.27-16.27Z" style="fill:#fff" />
        </g>
        <path id="p_1031.734909359001" data-name="p 1031.734909359001" d="M450.49,474.7A15.71,15.71,0,1,1,466.2,459,15.7,15.7,0,0,1,450.49,474.7Z" style="fill:none;stroke:#fff;stroke-miterlimit:10;stroke-width:2px" />
        <path id="p_510.62102055719186" data-name="p 510.62102055719186" d="M46.74,357.34a15.47,15.47,0,1,1,0-30.94h0a15.47,15.47,0,0,1,0,30.94Z" style="fill:none;stroke:#fff;stroke-miterlimit:10;stroke-width:2px" />
        <g id="p_666.8502204156981" data-name="p 666.8502204156981">
            <path d="M95.36,438.71a12.12,12.12,0,1,1-12.13,12.12,12.13,12.13,0,0,1,12.13-12.12m0-2a14.12,14.12,0,1,0,14.12,14.12,14.12,14.12,0,0,0-14.12-14.12Z" style="fill:#fff" />
        </g>
        <g id="p_887.0854844884692" data-name="p 887.0854844884692">
            <path d="M517.84,237.25A11.73,11.73,0,1,1,506.11,249a11.74,11.74,0,0,1,11.73-11.73m0-2A13.73,13.73,0,1,0,531.57,249a13.73,13.73,0,0,0-13.73-13.73Z" style="fill:#fff" />
        </g>
        <g id="p_337.1710315141981" data-name="p 337.1710315141981">
            <path d="M147.56,57.73A11.67,11.67,0,1,1,135.88,69.4a11.68,11.68,0,0,1,11.68-11.67h0m0-2h0a13.67,13.67,0,1,0,0,27.34h0a13.67,13.67,0,0,0,0-27.34Z" style="fill:#fff" />
        </g>
        <g id="p_834.2482999620596" data-name="p 834.2482999620596">
            <path d="M189.32,513.27a11.56,11.56,0,1,1-11.56,11.56,11.57,11.57,0,0,1,11.56-11.56m0-2a13.56,13.56,0,1,0,13.56,13.56,13.56,13.56,0,0,0-13.56-13.56Z" style="fill:#fff" />
        </g>
        <g id="p_943.2046858333212" data-name="p 943.2046858333212">
            <path d="M519.46,292.76a11.23,11.23,0,1,1-7.93,3.29,11.23,11.23,0,0,1,7.93-3.29h0m0-2h0a13.22,13.22,0,0,0,0,26.44h0a13.22,13.22,0,0,0,0-26.44Z" style="fill:#fff" />
        </g>
        <g id="p_404.3939698896464" data-name="p 404.3939698896464">
            <path d="M40.48,233a11.22,11.22,0,1,1-11.22,11.21A11.22,11.22,0,0,1,40.48,233h0m0-2h0a13.22,13.22,0,0,0,0,26.43h0a13.22,13.22,0,0,0,0-26.43Z" style="fill:#fff" />
        </g>
        <g id="p_674.4854883949555" data-name="p 674.4854883949555">
            <path d="M464.1,79.57a11.13,11.13,0,1,1-7.89,3.26,11.16,11.16,0,0,1,7.89-3.26h0m0-2h0a13.14,13.14,0,1,0,0,26.28h0a13.14,13.14,0,0,0,0-26.28Z" style="fill:#fff" />
        </g>
        <g id="p_438.15412454345795" data-name="p 438.15412454345795">
            <path d="M289.34,18.16a11.06,11.06,0,1,1-7.82,3.24,11.07,11.07,0,0,1,7.82-3.24h0m0-2h0a13.06,13.06,0,1,0,0,26.11h0a13.06,13.06,0,1,0,0-26.11Z" style="fill:#fff" />
        </g>
        <path id="p_472.27859779776753" data-name="p 472.27859779776753" d="M40.62,325.12a12.1,12.1,0,0,1,0-24.2h0a12.1,12.1,0,1,1,0,24.2Z" style="fill:none;stroke:#fff;stroke-miterlimit:10;stroke-width:2px" />
        <g id="p_915.69108703991" data-name="p 915.69108703991">
            <path d="M520.66,266.48a10,10,0,1,1-10,10,10,10,0,0,1,10-10m0-2a12,12,0,1,0,12,12,12,12,0,0,0-12-12Z" style="fill:#fff" />
        </g>
        <g id="p_426.5058683172458" data-name="p 426.5058683172458">
            <path d="M38.11,261.19a9.33,9.33,0,1,1-9.33,9.33,9.34,9.34,0,0,1,9.33-9.33m0-2a11.33,11.33,0,1,0,11.33,11.33,11.34,11.34,0,0,0-11.33-11.33Z" style="fill:#fff" />
        </g>
        <g id="p_436.4773647511896" data-name="p 436.4773647511896">
            <path d="M26.79,283a9.1,9.1,0,1,1-6.44,2.67A9.09,9.09,0,0,1,26.79,283h0m0-2h0a11.09,11.09,0,1,0,0,22.18h0a11.09,11.09,0,0,0,0-22.18Z" style="fill:#fff" />
        </g>
        <g id="p_949.3131151485138" data-name="p 949.3131151485138">
            <path d="M541.66,281a9.06,9.06,0,1,1-6.42,2.66,9.08,9.08,0,0,1,6.42-2.66h0m0-2h0a11.07,11.07,0,1,0,0,22.14h0a11.07,11.07,0,1,0,0-22.14Z" style="fill:#fff" />
        </g>
        <g id="p_732.7495267867596" data-name="p 732.7495267867596">
            <path d="M130.22,476.34a8.83,8.83,0,1,1-8.82,8.82,8.83,8.83,0,0,1,8.82-8.82m0-2A10.83,10.83,0,1,0,141,485.16a10.83,10.83,0,0,0-10.82-10.82Z" style="fill:#fff" />
        </g>
        <g id="p_588.1821658473434" data-name="p 588.1821658473434">
            <path d="M407,55.19a8.72,8.72,0,1,1-8.71,8.72A8.73,8.73,0,0,1,407,55.19m0-2a10.72,10.72,0,1,0,10.72,10.72A10.72,10.72,0,0,0,407,53.19Z" style="fill:#fff" />
        </g>
        <g id="p_323.3778907505764" data-name="p 323.3778907505764">
            <path d="M64.71,133a8.59,8.59,0,1,1-8.59,8.59A8.59,8.59,0,0,1,64.71,133h0m0-2h0a10.59,10.59,0,1,0,0,21.17h0a10.59,10.59,0,0,0,0-21.17Z" style="fill:#fff" />
        </g>
        <g id="p_960.8507568932314" data-name="p 960.8507568932314">
            <path d="M307.74,527.62a8.48,8.48,0,0,1,8.47,8.48,8.47,8.47,0,0,1-8.47,8.47,8.49,8.49,0,0,1-8.48-8.47,8.48,8.48,0,0,1,8.48-8.48h0m0-2h0a10.48,10.48,0,1,0,0,21h0a10.48,10.48,0,0,0,0-21Z" style="fill:#fff" />
        </g>
        <g id="p_466.0884005520985" data-name="p 466.0884005520985">
            <path d="M317.37,23.51A8.34,8.34,0,1,1,309,31.85a8.35,8.35,0,0,1,8.34-8.34h0m0-2h0a10.34,10.34,0,0,0,0,20.67h0a10.34,10.34,0,1,0,0-20.67Z" style="fill:#fff" />
        </g>
        <g id="p_583.0101362868717" data-name="p 583.0101362868717">
            <path d="M58.11,401h0a7.67,7.67,0,1,1-7.67,7.67A7.68,7.68,0,0,1,58.11,401m0-2h0a9.67,9.67,0,1,0,0,19.34h0a9.67,9.67,0,0,0,0-19.34Z" style="fill:#fff" />
        </g>
        <g id="p_555.9665409444979" data-name="p 555.9665409444979">
            <path d="M389,43.09a7.66,7.66,0,1,1-7.66,7.66A7.67,7.67,0,0,1,389,43.09m0-2a9.66,9.66,0,1,0,9.66,9.66A9.67,9.67,0,0,0,389,41.09Z" style="fill:#fff" />
        </g>
        <path id="p_1045.1294211301574" data-name="p 1045.1294211301574" d="M476.57,462a9.16,9.16,0,1,1,9.16-9.16A9.16,9.16,0,0,1,476.57,462Z" style="fill:none;stroke:#fff;stroke-miterlimit:10;stroke-width:2px" />
        <g id="p_813.5267785900447" data-name="p 813.5267785900447">
            <path d="M515.27,175.49a7.12,7.12,0,1,1-7.11,7.11,7.13,7.13,0,0,1,7.11-7.11m0-2a9.12,9.12,0,1,0,9.12,9.11,9.11,9.11,0,0,0-9.12-9.11Z" style="fill:#fff" />
        </g>
        <g id="p_308.7273385400862" data-name="p 308.7273385400862">
            <path d="M123.07,63.3a6.91,6.91,0,1,1-6.91,6.91,6.92,6.92,0,0,1,6.91-6.91h0m0-2h0a8.91,8.91,0,1,0,0,17.82h0a8.91,8.91,0,0,0,0-17.82Z" style="fill:#fff" />
        </g>
        <g id="p_1025.459449265422" data-name="p 1025.459449265422">
            <path d="M403.75,500.07a6.55,6.55,0,0,1,4.63,11.18,6.48,6.48,0,0,1-4.63,1.92,6.55,6.55,0,0,1-6.55-6.55,6.54,6.54,0,0,1,6.55-6.55h0m0-2h0a8.55,8.55,0,0,0,0,17.1h0a8.55,8.55,0,1,0,0-17.1Z" style="fill:#fff" />
        </g>
        <g id="p_1005.989936359501" data-name="p 1005.989936359501">
            <path d="M521.89,362.53a6.52,6.52,0,1,1-6.52,6.51,6.53,6.53,0,0,1,6.52-6.51m0-2a8.52,8.52,0,1,0,8.52,8.51,8.51,8.51,0,0,0-8.52-8.51Z" style="fill:#fff" />
        </g>
        <g id="p_899.5979859460813" data-name="p 899.5979859460813">
            <path d="M247.05,531.06a6.48,6.48,0,1,1-6.47,6.47,6.48,6.48,0,0,1,6.47-6.47h0m0-2h0a8.48,8.48,0,0,0,0,17h0a8.48,8.48,0,1,0,0-17Z" style="fill:#fff" />
        </g>
        <g id="p_749.8024391405144" data-name="p 749.8024391405144">
            <path d="M495.09,133.3a6.46,6.46,0,0,1,6.44,6.44,6.45,6.45,0,0,1-6.45,6.44,6.46,6.46,0,0,1-6.44-6.44,6.45,6.45,0,0,1,6.44-6.44h0m0-2h0a8.44,8.44,0,0,0,0,16.88h0a8.44,8.44,0,0,0,0-16.88Z" style="fill:#fff" />
        </g>
        <g id="p_695.5565937158882" data-name="p 695.5565937158882">
            <path d="M110.69,463.48a6.43,6.43,0,1,1-6.43,6.43,6.43,6.43,0,0,1,6.43-6.43h0m0-2h0a8.43,8.43,0,0,0,0,16.85h0a8.43,8.43,0,0,0,0-16.85Z" style="fill:#fff" />
        </g>
        <g id="p_339.5039159417853" data-name="p 339.5039159417853">
            <path d="M36.78,181.53a6.34,6.34,0,0,1,6.33,6.33,6.33,6.33,0,1,1-6.33-6.33h0m0-2h0a8.33,8.33,0,0,0,0,16.65h0a8.33,8.33,0,1,0,0-16.65Z" style="fill:#fff" />
        </g>
        <g id="p_998.8633761264125" data-name="p 998.8633761264125">
            <path d="M355,522.78a6.26,6.26,0,1,1-6.25,6.25,6.27,6.27,0,0,1,6.25-6.25m0-2a8.26,8.26,0,1,0,8.25,8.25,8.25,8.25,0,0,0-8.25-8.25Z" style="fill:#fff" />
        </g>
        <g id="p_512.7165420088758" data-name="p 512.7165420088758">
            <path d="M34,357.86A6.16,6.16,0,1,1,27.84,364,6.16,6.16,0,0,1,34,357.86h0m0-2h0a8.16,8.16,0,0,0,0,16.32h0a8.16,8.16,0,0,0,0-16.32Z" style="fill:#fff" />
        </g>
        <g id="p_310.38175943448823" data-name="p 310.38175943448823">
            <path d="M86.92,102.64a6.14,6.14,0,1,1-6.14,6.14,6.15,6.15,0,0,1,6.14-6.14h0m0-2h0a8.14,8.14,0,1,0,0,16.28h0a8.14,8.14,0,1,0,0-16.28Z" style="fill:#fff" />
        </g>
        <g id="p_435.9622971625687" data-name="p 435.9622971625687">
            <path d="M307,8.33A6.07,6.07,0,0,1,313,14.39,6.08,6.08,0,0,1,307,20.45a6.06,6.06,0,0,1,0-12.12h0m0-2h0a8.06,8.06,0,0,0,0,16.12h0a8.06,8.06,0,1,0,0-16.12Z" style="fill:#fff" />
        </g>
        <g id="p_879.8092771718187" data-name="p 879.8092771718187">
            <path d="M533.78,225.4a6,6,0,1,1-6,6,6,6,0,0,1,6-6h0m0-2h0a8,8,0,1,0,0,16.09h0a8,8,0,0,0,0-16.09Z" style="fill:#fff" />
        </g>
        <path id="p_1039.4997062766138" data-name="p 1039.4997062766138" d="M441.8,491.16a8,8,0,0,1,0-16.06h0a8,8,0,1,1,0,16.06Z" style="fill:none;stroke:#fff;stroke-miterlimit:10;stroke-width:2px" />
        <g id="p_468.2410323602775" data-name="p 468.2410323602775">
            <path d="M25.12,322.65a6,6,0,1,1-6,6,6,6,0,0,1,6-6m0-2a8,8,0,1,0,8,8,8,8,0,0,0-8-8Z" style="fill:#fff" />
        </g>
        <g id="p_366.551877515285" data-name="p 366.551877515285">
            <path d="M25.14,221.07a5.9,5.9,0,1,1-5.91,5.9,5.9,5.9,0,0,1,5.91-5.9m0-2A7.9,7.9,0,1,0,33,227a7.9,7.9,0,0,0-7.9-7.9Z" style="fill:#fff" />
        </g>
        <g id="p_1030.50380278388" data-name="p 1030.50380278388">
            <path d="M503,407.6a5.67,5.67,0,1,1-5.66,5.67A5.67,5.67,0,0,1,503,407.6m0-2a7.67,7.67,0,1,0,7.67,7.67A7.66,7.66,0,0,0,503,405.6Z" style="fill:#fff" />
        </g>
        <g id="p_393.4574026849086" data-name="p 393.4574026849086">
            <path d="M22,251.8a5.55,5.55,0,1,1-5.55,5.55A5.56,5.56,0,0,1,22,251.8m0-2a7.55,7.55,0,1,0,7.55,7.55A7.55,7.55,0,0,0,22,249.8Z" style="fill:#fff" />
        </g>
        <g id="p_627.9116831311995" data-name="p 627.9116831311995">
            <path d="M75.2,433.19a5.49,5.49,0,1,1-5.49,5.49,5.49,5.49,0,0,1,5.49-5.49m0-2a7.49,7.49,0,1,0,7.49,7.49,7.49,7.49,0,0,0-7.49-7.49Z" style="fill:#fff" />
        </g>
        <g id="p_912.9102281655028" data-name="p 912.9102281655028">
            <path d="M536.63,256.93a5.41,5.41,0,1,1-3.83,1.59,5.41,5.41,0,0,1,3.83-1.59h0m0-2h0a7.41,7.41,0,0,0,0,14.82h0a7.41,7.41,0,0,0,0-14.82Z" style="fill:#fff" />
        </g>
        <g id="p_968.958352612037" data-name="p 968.958352612037">
            <path d="M535.81,314.05a5.28,5.28,0,1,1-5.29,5.28,5.29,5.29,0,0,1,5.29-5.28m0-2a7.28,7.28,0,1,0,7.28,7.28,7.28,7.28,0,0,0-7.28-7.28Z" style="fill:#fff" />
        </g>
        <g id="p_711.3212685772783" data-name="p 711.3212685772783">
            <path d="M110.64,482.25a4.95,4.95,0,1,1-4.94,4.94,5,5,0,0,1,4.94-4.94m0-2a6.95,6.95,0,1,0,7,6.94,6.94,6.94,0,0,0-7-6.94Z" style="fill:#fff" />
        </g>
        <g id="p_320.9609562351483" data-name="p 320.9609562351483">
            <path d="M158,44.71a4.85,4.85,0,1,1-4.84,4.85A4.85,4.85,0,0,1,158,44.71m0-2a6.85,6.85,0,1,0,6.84,6.85A6.85,6.85,0,0,0,158,42.71Z" style="fill:#fff" />
        </g>
        <g id="p_401.848249127082" data-name="p 401.848249127082">
            <path d="M271,12.77a4.79,4.79,0,0,1,3.39,8.17A4.74,4.74,0,0,1,271,22.35a4.79,4.79,0,1,1,0-9.58h0m0-2h0a6.79,6.79,0,1,0,0,13.58h0a6.79,6.79,0,1,0,0-13.58Z" style="fill:#fff" />
        </g>
        <g id="p_310.4291616735231" data-name="p 310.4291616735231">
            <path d="M73,119.42a4.75,4.75,0,1,1-4.75,4.75A4.74,4.74,0,0,1,73,119.42h0m0-2h0a6.75,6.75,0,1,0,0,13.49h0a6.75,6.75,0,0,0,0-13.49Z" style="fill:#fff" />
        </g>
        <g id="p_443.86584033033967" data-name="p 443.86584033033967">
            <path d="M20.05,305.89h0a4.7,4.7,0,1,1-4.7,4.69,4.69,4.69,0,0,1,4.7-4.69m0-2h0a6.7,6.7,0,1,0,0,13.39h0a6.7,6.7,0,0,0,0-13.39Z" style="fill:#fff" />
        </g>
        <g id="p_603.6142085000475" data-name="p 603.6142085000475">
            <path d="M64.66,421.06A4.68,4.68,0,1,1,60,425.74a4.69,4.69,0,0,1,4.68-4.68h0m0-2h0a6.68,6.68,0,0,0,0,13.36h0a6.68,6.68,0,0,0,0-13.36Z" style="fill:#fff" />
        </g>
        <g id="p_405.9457145515582" data-name="p 405.9457145515582">
            <path d="M18.54,269.53a4.68,4.68,0,1,1-3.3,1.37,4.68,4.68,0,0,1,3.3-1.37h0m0-2h0a6.67,6.67,0,0,0,0,13.34h0a6.67,6.67,0,0,0,0-13.34Z" style="fill:#fff" />
        </g>
        <g id="p_332.9304791699186" data-name="p 332.9304791699186">
            <path d="M186.91,28.45A4.52,4.52,0,1,1,182.39,33a4.52,4.52,0,0,1,4.52-4.51h0m0-2h0a6.52,6.52,0,1,0,0,13h0a6.52,6.52,0,1,0,0-13Z" style="fill:#fff" />
        </g>
        <g id="p_790.7972344760798" data-name="p 790.7972344760798">
            <path d="M512.46,161.26a4.27,4.27,0,1,1-4.27,4.27,4.27,4.27,0,0,1,4.27-4.27h0m0-2h0a6.27,6.27,0,0,0,0,12.54h0a6.27,6.27,0,0,0,0-12.54Z" style="fill:#fff" />
        </g>
        <g id="p_599.1566540187631" data-name="p 599.1566540187631">
            <path d="M425.61,56.59a4.21,4.21,0,1,1-4.22,4.21,4.22,4.22,0,0,1,4.22-4.21h0m0-2h0a6.21,6.21,0,0,0,0,12.42h0a6.21,6.21,0,0,0,0-12.42Z" style="fill:#fff" />
        </g>
        <g id="p_368.3269310240327" data-name="p 368.3269310240327">
            <path d="M236.55,15.39a3.92,3.92,0,1,1-3.92,3.92,3.93,3.93,0,0,1,3.92-3.92m0-2a5.92,5.92,0,1,0,5.93,5.92,5.92,5.92,0,0,0-5.93-5.92Z" style="fill:#fff" />
        </g>
        <g id="p_945.2488062614624" data-name="p 945.2488062614624">
            <path d="M290.91,538.74a3.53,3.53,0,1,1-3.53,3.53,3.53,3.53,0,0,1,3.53-3.53m0-2a5.53,5.53,0,1,0,5.53,5.53,5.53,5.53,0,0,0-5.53-5.53Z" style="fill:#fff" />
        </g>
        <g id="p_314.0308869006917" data-name="p 314.0308869006917">
            <path d="M50.09,148.52A3.44,3.44,0,1,1,46.65,152a3.44,3.44,0,0,1,3.44-3.44m0-2A5.44,5.44,0,1,0,55.53,152a5.44,5.44,0,0,0-5.44-5.44Z" style="fill:#fff" />
        </g>
        <g id="p_554.994741430777" data-name="p 554.994741430777">
            <path d="M44.68,395.23h0A3.28,3.28,0,0,1,48,398.51a3.28,3.28,0,0,1-3.27,3.27,3.28,3.28,0,1,1,0-6.55m0-2h0a5.28,5.28,0,1,0,0,10.55h0a5.28,5.28,0,0,0,0-10.55Z" style="fill:#fff" />
        </g>
        <g id="p_749.5186091723074" data-name="p 749.5186091723074">
            <path d="M135.35,499.16a3.25,3.25,0,0,1,3.24,3.23,3.24,3.24,0,1,1-3.24-3.23h0m0-2h0a5.24,5.24,0,1,0,0,10.47h0a5.24,5.24,0,1,0,0-10.47Z" style="fill:#fff" />
        </g>
        <g id="p_293.9848101815938" data-name="p 293.9848101815938">
            <path d="M71.9,107.43a3,3,0,1,1-2.16.89,3.06,3.06,0,0,1,2.16-.89h0m0-2h0a5.06,5.06,0,0,0,0,10.11h0a5.06,5.06,0,1,0,0-10.11Z" style="fill:#fff" />
        </g>
        <g id="p_974.5129230061431" data-name="p 974.5129230061431">
            <path d="M324.88,535.34a2.87,2.87,0,1,1-2,.84,2.88,2.88,0,0,1,2-.84h0m0-2h0a4.88,4.88,0,1,0,0,9.75h0a4.88,4.88,0,1,0,0-9.75Z" style="fill:#fff" />
        </g>
        <g id="p_611.0102386457473" data-name="p 611.0102386457473">
            <path d="M60.92,435.81A2.87,2.87,0,1,1,58,438.68a2.88,2.88,0,0,1,2.88-2.87m0-2a4.87,4.87,0,1,0,4.87,4.87,4.88,4.88,0,0,0-4.87-4.87Z" style="fill:#fff" />
        </g>
        <g id="p_767.4885435845084" data-name="p 767.4885435845084">
            <path d="M504.24,149a2.84,2.84,0,1,1-2.84,2.84,2.84,2.84,0,0,1,2.84-2.84m0-2a4.84,4.84,0,1,0,4.84,4.84,4.84,4.84,0,0,0-4.84-4.84Z" style="fill:#fff" />
        </g>
        <g id="p_831.5814558354118" data-name="p 831.5814558354118">
            <path d="M527,190.44a2.8,2.8,0,1,1-2.8,2.8,2.8,2.8,0,0,1,2.8-2.8h0m0-2h0a4.8,4.8,0,1,0,0,9.6h0a4.8,4.8,0,0,0,0-9.6Z" style="fill:#fff" />
        </g>
        <g id="p_1030.708206606695" data-name="p 1030.708206606695">
            <path d="M418,498.74a2.71,2.71,0,1,1-2.71,2.71,2.71,2.71,0,0,1,2.71-2.71h0m0-2h0a4.71,4.71,0,0,0,0,9.41h0a4.71,4.71,0,0,0,0-9.41Z" style="fill:#fff" />
        </g>
        <g id="p_461.9003460513538" data-name="p 461.9003460513538">
            <path d="M330,18.07a2.62,2.62,0,0,1,1.86,4.48,2.62,2.62,0,0,1-4.48-1.85A2.61,2.61,0,0,1,330,18.07h0m0-2h0a4.63,4.63,0,0,0,0,9.25h0a4.63,4.63,0,1,0,0-9.25Z" style="fill:#fff" />
        </g>
        <g id="p_385.3371492745522" data-name="p 385.3371492745522">
            <path d="M10,261.9a2.45,2.45,0,0,1,2.45,2.45A2.46,2.46,0,0,1,10,266.81a2.46,2.46,0,1,1,0-4.91h0m0-2h0a4.46,4.46,0,0,0,0,8.91h0a4.46,4.46,0,0,0,0-8.91Z" style="fill:#fff" />
        </g>
        <g id="p_445.12673123640747" data-name="p 445.12673123640747">
            <path d="M12.76,319a2.43,2.43,0,1,1-2.44,2.43A2.43,2.43,0,0,1,12.76,319h0m0-2h0a4.43,4.43,0,0,0,0,8.86h0a4.43,4.43,0,1,0,0-8.86Z" style="fill:#fff" />
        </g>
        <g id="p_1013.7873213150986" data-name="p 1013.7873213150986">
            <path d="M519.34,381.26a2.33,2.33,0,1,1-2.32,2.32,2.32,2.32,0,0,1,2.32-2.32h0m0-2h0a4.33,4.33,0,0,0,0,8.65h0a4.33,4.33,0,1,0,0-8.65Z" style="fill:#fff" />
        </g>
        <g id="p_913.5431029978682" data-name="p 913.5431029978682">
            <path d="M261.16,539.28a2.28,2.28,0,1,1-2.28,2.28,2.28,2.28,0,0,1,2.28-2.28m0-2a4.28,4.28,0,1,0,4.28,4.28,4.28,4.28,0,0,0-4.28-4.28Z" style="fill:#fff" />
        </g>
        <g id="p_375.5861507477396" data-name="p 375.5861507477396">
            <path d="M21.13,241.49a2.22,2.22,0,0,1,2.22,2.21,2.17,2.17,0,0,1-.65,1.56,2.21,2.21,0,1,1-1.57-3.77h0m0-2h0a4.21,4.21,0,0,0,0,8.42h0a4.21,4.21,0,1,0,0-8.42Z" style="fill:#fff" />
        </g>
        <g id="p_478.59535605437793" data-name="p 478.59535605437793">
            <path d="M25.17,340.5a2.19,2.19,0,0,1,2.19,2.19,2.2,2.2,0,0,1-2.19,2.2,2.21,2.21,0,0,1-2.2-2.2,2.2,2.2,0,0,1,2.2-2.19h0m0-2h0a4.2,4.2,0,1,0,0,8.39h0a4.2,4.2,0,0,0,0-8.39Z" style="fill:#fff" />
        </g>
        <g id="p_928.610289677792" data-name="p 928.610289677792">
            <path d="M544.74,271a2.19,2.19,0,1,1-2.19,2.19,2.19,2.19,0,0,1,2.19-2.19m0-2a4.19,4.19,0,1,0,4.18,4.19,4.18,4.18,0,0,0-4.18-4.19Z" style="fill:#fff" />
        </g>
        <g id="p_677.8673348992314" data-name="p 677.8673348992314">
            <path d="M96.28,468.85a2.1,2.1,0,1,1-2.1,2.1,2.1,2.1,0,0,1,2.1-2.1m0-2a4.1,4.1,0,1,0,4.1,4.1,4.11,4.11,0,0,0-4.1-4.1Z" style="fill:#fff" />
        </g>
        <g id="p_488.74576980807063" data-name="p 488.74576980807063">
            <path d="M25.22,350.81a2.08,2.08,0,1,1-1.48.61,2.06,2.06,0,0,1,1.48-.61h0m0-2h0a4.09,4.09,0,1,0,0,8.18h0a4.09,4.09,0,1,0,0-8.18Z" style="fill:#fff" />
        </g>
        <g id="p_897.155835207293" data-name="p 897.155835207293">
            <path d="M537.57,246.89a2.08,2.08,0,1,1-2.08,2.08,2.07,2.07,0,0,1,2.08-2.08h0m0-2h0a4.08,4.08,0,0,0,0,8.16h0a4.08,4.08,0,0,0,0-8.16Z" style="fill:#fff" />
        </g>
        <g id="p_1034.0206993520505" data-name="p 1034.0206993520505">
            <path d="M431.31,490.29a1.94,1.94,0,1,1-1.94,1.94,1.94,1.94,0,0,1,1.94-1.94m0-2a3.94,3.94,0,1,0,3.94,3.94,3.93,3.93,0,0,0-3.94-3.94Z" style="fill:#fff" />
        </g>
        <g id="p_523.9141721272576" data-name="p 523.9141721272576">
            <path d="M35.52,376a1.92,1.92,0,1,1-1.91,1.92A1.92,1.92,0,0,1,35.52,376m0-2a3.92,3.92,0,1,0,3.92,3.92A3.92,3.92,0,0,0,35.52,374Z" style="fill:#fff" />
        </g>
        <g id="p_361.1789563258863" data-name="p 361.1789563258863">
            <path d="M14.82,234.1A1.86,1.86,0,1,1,13,236a1.86,1.86,0,0,1,1.86-1.86m0-2A3.86,3.86,0,1,0,18.68,236a3.86,3.86,0,0,0-3.86-3.86Z" style="fill:#fff" />
        </g>
        <g id="p_895.0637575859195" data-name="p 895.0637575859195">
            <path d="M543.53,239.36a1.81,1.81,0,1,1-1.28.53,1.83,1.83,0,0,1,1.28-.53h0m0-2h0a3.82,3.82,0,0,0,0,7.63h0a3.82,3.82,0,1,0,0-7.63Z" style="fill:#fff" />
        </g>
        <g id="p_986.9597753799843" data-name="p 986.9597753799843">
            <path d="M342.16,532.66h0a1.79,1.79,0,1,1-1.27.52,1.78,1.78,0,0,1,1.27-.52m0-2h0a3.8,3.8,0,0,0,0,7.6h0a3.8,3.8,0,0,0,0-7.6Z" style="fill:#fff" />
        </g>
        <g id="p_323.6191638289294" data-name="p 323.6191638289294">
            <path d="M39.25,172.31a1.76,1.76,0,1,1-1.76,1.76,1.76,1.76,0,0,1,1.76-1.76m0-2A3.76,3.76,0,1,0,43,174.07a3.76,3.76,0,0,0-3.76-3.76Z" style="fill:#fff" />
        </g>
        <g id="p_339.404538839547" data-name="p 339.404538839547">
            <path d="M29.37,198a1.76,1.76,0,1,1-1.76,1.76A1.76,1.76,0,0,1,29.37,198m0-2a3.76,3.76,0,1,0,3.76,3.76A3.76,3.76,0,0,0,29.37,196Z" style="fill:#fff" />
        </g>
        <g id="p_530.2710148154856" data-name="p 530.2710148154856">
            <path d="M383.54,34.78a1.71,1.71,0,1,1-1.71,1.7,1.71,1.71,0,0,1,1.71-1.7m0-2a3.71,3.71,0,1,0,3.71,3.7,3.71,3.71,0,0,0-3.71-3.7Z" style="fill:#fff" />
        </g>
        <g id="p_1023.09479681639" data-name="p 1023.09479681639">
            <path d="M395.05,516.1a1.71,1.71,0,1,1-1.71,1.71,1.71,1.71,0,0,1,1.71-1.71m0-2a3.71,3.71,0,1,0,3.7,3.71,3.71,3.71,0,0,0-3.7-3.71Z" style="fill:#fff" />
        </g>
        <g id="p_954.745564152735" data-name="p 954.745564152735">
            <path d="M538.15,304.66a1.7,1.7,0,1,1-1.7,1.7,1.7,1.7,0,0,1,1.7-1.7h0m0-2h0a3.7,3.7,0,1,0,0,7.4h0a3.7,3.7,0,1,0,0-7.4Z" style="fill:#fff" />
        </g>
        <g id="p_967.4140479639494" data-name="p 967.4140479639494">
            <path d="M545.86,309.8h0a1.61,1.61,0,0,1,1.14,2.74,1.63,1.63,0,0,1-1.14.47,1.6,1.6,0,0,1-1.6-1.6,1.63,1.63,0,0,1,.47-1.14,1.61,1.61,0,0,1,1.13-.47m0-2h0a3.61,3.61,0,0,0,0,7.21h0a3.61,3.61,0,1,0,0-7.21Z" style="fill:#fff" />
        </g>
        <g id="p_803.527956177668" data-name="p 803.527956177668">
            <path d="M170.39,521.52a1.54,1.54,0,1,1-1.54,1.54,1.54,1.54,0,0,1,1.54-1.54h0m0-2h0a3.54,3.54,0,1,0,0,7.08h0a3.54,3.54,0,1,0,0-7.08Z" style="fill:#fff" />
        </g>
        <g id="p_349.2461704379469" data-name="p 349.2461704379469">
            <path d="M25.55,212.19a1.48,1.48,0,1,1-1.48,1.48,1.48,1.48,0,0,1,1.48-1.48m0-2A3.48,3.48,0,1,0,29,213.67a3.48,3.48,0,0,0-3.48-3.48Z" style="fill:#fff" />
        </g>
        <g id="p_850.1804558426423" data-name="p 850.1804558426423">
            <path d="M205.14,533.72a1.39,1.39,0,1,1-1.38,1.39,1.39,1.39,0,0,1,1.38-1.39m0-2a3.39,3.39,0,1,0,3.39,3.39,3.38,3.38,0,0,0-3.39-3.39Z" style="fill:#fff" />
        </g>
        <g id="p_1022.2870552100678" data-name="p 1022.2870552100678">
            <path d="M510,401.13a1.31,1.31,0,1,1-1.3,1.3,1.3,1.3,0,0,1,1.3-1.3h0m0-2h0a3.31,3.31,0,0,0,0,6.61h0a3.31,3.31,0,0,0,0-6.61Z" style="fill:#fff" />
        </g>
        <g id="p_999.0050163273547" data-name="p 999.0050163273547">
            <path d="M530.68,357.22a1.29,1.29,0,0,1,0,2.57,1.29,1.29,0,0,1,0-2.57h0m0-2h0a3.29,3.29,0,0,0,0,6.57h0a3.29,3.29,0,0,0,0-6.57Z" style="fill:#fff" />
        </g>
        <g id="p_561.8330124822626" data-name="p 561.8330124822626">
            <path d="M403.66,47.11a1.26,1.26,0,1,1-1.26,1.26,1.26,1.26,0,0,1,1.26-1.26m0-2a3.26,3.26,0,1,0,3.26,3.26,3.26,3.26,0,0,0-3.26-3.26Z" style="fill:#fff" />
        </g>
        <g id="p_777.8948479720417" data-name="p 777.8948479720417">
            <path d="M513.92,153a1.21,1.21,0,1,1-1.2,1.21,1.21,1.21,0,0,1,1.2-1.21m0-2a3.21,3.21,0,1,0,3.21,3.21,3.21,3.21,0,0,0-3.21-3.21Z" style="fill:#fff" />
        </g>
        <g id="p_862.1634937448064" data-name="p 862.1634937448064">
            <path d="M534.14,217.1h0a1.2,1.2,0,1,1-1.19,1.19,1.2,1.2,0,0,1,1.19-1.19m0-2h0a3.2,3.2,0,0,0,0,6.39h0a3.2,3.2,0,0,0,0-6.39Z" style="fill:#fff" />
        </g>
        <g id="p_729.68688054468" data-name="p 729.68688054468">
            <path d="M493.69,125.24a1.11,1.11,0,1,1-1.1,1.11,1.11,1.11,0,0,1,1.1-1.11m0-2a3.11,3.11,0,1,0,3.11,3.11,3.1,3.1,0,0,0-3.11-3.11Z" style="fill:#fff" />
        </g>
        <g id="p_884.6545281861531" data-name="p 884.6545281861531">
            <path d="M234,539.91a1.09,1.09,0,1,1-1.09,1.09,1.09,1.09,0,0,1,1.09-1.09m0-2a3.09,3.09,0,1,0,3.09,3.09,3.1,3.1,0,0,0-3.09-3.09Z" style="fill:#fff" />
        </g>
        <g id="p_1007.0268257461053" data-name="p 1007.0268257461053">
            <path d="M368.29,528a1.08,1.08,0,1,1-1.08,1.08,1.08,1.08,0,0,1,1.08-1.08m0-2a3.08,3.08,0,1,0,3.08,3.08,3.08,3.08,0,0,0-3.08-3.08Z" style="fill:#fff" />
        </g>
        <g id="p_320.7593379415829" data-name="p 320.7593379415829">
            <path d="M168,42.09a1.07,1.07,0,0,1,1.08,1.07,1,1,0,0,1-.32.76,1.07,1.07,0,1,1-.76-1.83h0m0-2h0a3.08,3.08,0,0,0,0,6.15h0a3.08,3.08,0,1,0,0-6.15Z" style="fill:#fff" />
        </g>
        <g id="p_978.7197501237167" data-name="p 978.7197501237167">
            <path d="M537.86,330.36a1,1,0,1,1-1,1,1,1,0,0,1,1-1m0-2a3,3,0,1,0,3,3,3,3,0,0,0-3-3Z" style="fill:#fff" />
        </g>
        <g id="p_636.7071926293544" data-name="p 636.7071926293544">
            <path d="M76.48,450a.84.84,0,1,1-.83.83.83.83,0,0,1,.83-.83m0-2a2.84,2.84,0,1,0,2.83,2.83A2.83,2.83,0,0,0,76.48,448Z" style="fill:#fff" />
        </g>
        <g id="p_294.51197019689016" data-name="p 294.51197019689016">
            <path d="M89.07,95.22a.84.84,0,1,1-.59.25.84.84,0,0,1,.59-.25m0-2h0a2.84,2.84,0,0,0,0,5.68h0a2.84,2.84,0,0,0,0-5.68Z" style="fill:#fff" />
        </g>
        <g id="p_1042.105152284163" data-name="p 1042.105152284163">
            <path d="M453.79,478.35a.72.72,0,1,1-.71.71.71.71,0,0,1,.71-.71m0-2a2.72,2.72,0,1,0,2.71,2.71,2.71,2.71,0,0,0-2.71-2.71Z" style="fill:#fff" />
        </g>
        <g id="p_1036.0135416799537" data-name="p 1036.0135416799537">
            <path d="M427.14,499a.67.67,0,1,1-.67.67.67.67,0,0,1,.67-.67h0m0-2h0a2.67,2.67,0,0,0,0,5.34h0a2.67,2.67,0,0,0,0-5.34Z" style="fill:#fff" />
        </g>
        <g id="p_932.2433225953541" data-name="p 932.2433225953541">
            <path d="M280.82,541.59a.65.65,0,0,1,.64.65.65.65,0,0,1-1.29,0,.65.65,0,0,1,.65-.65m0-2a2.65,2.65,0,1,0,2.64,2.65,2.65,2.65,0,0,0-2.64-2.65Z" style="fill:#fff" />
        </g>
        <path id="p_638.9753994181291" data-name="p 638.9753994181291" d="M451.16,81.28a2.62,2.62,0,1,1,2.62-2.62A2.62,2.62,0,0,1,451.16,81.28Z" style="fill:none;stroke:#fff;stroke-miterlimit:10;stroke-width:2px" />
        <g id="p_978.6041310327715" data-name="p 978.6041310327715">
            <path d="M333.8,535.41a.43.43,0,0,1,.43.43.44.44,0,0,1-.43.43.44.44,0,0,1-.44-.43.43.43,0,0,1,.44-.43m0-2h0a2.43,2.43,0,1,0,0,4.86h0a2.43,2.43,0,0,0,0-4.86Z" style="fill:#fff" />
        </g>
        <g id="p_1043.126661101824" data-name="p 1043.126661101824">
            <path d="M469.74,464.08a.39.39,0,1,1-.38.38.38.38,0,0,1,.38-.38m0-2a2.39,2.39,0,1,0,2.38,2.38,2.38,2.38,0,0,0-2.38-2.38Z" style="fill:#fff" />
        </g>
        <g id="p_1035.029278044584" data-name="p 1035.029278044584">
            <path d="M501,424.68a.41.41,0,0,1,.41.41.35.35,0,0,1-.12.28.36.36,0,0,1-.29.12.4.4,0,0,1-.4-.4.41.41,0,0,1,.11-.29.39.39,0,0,1,.29-.12h0m0-2h0a2.41,2.41,0,0,0,0,4.81h0a2.41,2.41,0,0,0,0-4.81Z" style="fill:#fff" />
        </g>
        <g id="p_301.3460974184551" data-name="p 301.3460974184551">
            <path d="M132,60.08a.38.38,0,0,1,.38.38.37.37,0,0,1-.11.26.37.37,0,1,1-.53-.53.35.35,0,0,1,.26-.11m0-2h0a2.38,2.38,0,0,0,0,4.75h0a2.38,2.38,0,1,0,0-4.75Z" style="fill:#fff" />
        </g>
        <g id="p_1015.8592627745033" data-name="p 1015.8592627745033">
            <path d="M515.62,391a.36.36,0,1,1-.36.36.36.36,0,0,1,.36-.36m0-2a2.36,2.36,0,1,0,2.36,2.36,2.35,2.35,0,0,0-2.36-2.36Z" style="fill:#fff" />
        </g>
        <g id="p_307.40987353797334" data-name="p 307.40987353797334">
            <path d="M147.05,51.08a.37.37,0,1,1,0,.73.37.37,0,0,1,0-.73m0-2a2.37,2.37,0,1,0,2.37,2.37,2.37,2.37,0,0,0-2.37-2.37Z" style="fill:#fff" />
        </g>
        <g id="p_920.4460988061102" data-name="p 920.4460988061102">
            <path d="M269.68,541.58a.33.33,0,1,1-.32.32.32.32,0,0,1,.32-.32m0-2A2.33,2.33,0,1,0,272,541.9a2.32,2.32,0,0,0-2.32-2.32Z" style="fill:#fff" />
        </g>
        <g id="p_539.6889331745101" data-name="p 539.6889331745101">
            <path d="M41.13,389.79a.11.11,0,0,1,.11.12.09.09,0,0,1,0,.07.1.1,0,0,1-.08,0,.11.11,0,0,1-.11-.11.1.1,0,0,1,0-.08.11.11,0,0,1,.08,0m0-2h0a2.12,2.12,0,0,0,0,4.23h0a2.12,2.12,0,0,0,0-4.23Z" style="fill:#fff" />
        </g>
        <g id="p_387.12128471193665" data-name="p 387.12128471193665">
            <path d="M260.23,18.25a.05.05,0,1,1-.05.05,0,0,0,0,1,.05-.05m0-2a2.05,2.05,0,1,0,2,2.05,2,2,0,0,0-2-2.05Z" style="fill:#fff" />
        </g>
        <g id="p_1040.427722243478" data-name="p 1040.427722243478">
            <path d="M487,444.89h0m0-2h0a2,2,0,0,0,0,4.05h0a2,2,0,0,0,0-4.05Z" style="fill:#fff" />
        </g>
        <g id="p_315.18725199295545" data-name="p 315.18725199295545">
            <path d="M46.22,158.48a2,2,0,1,0,2,2,2,2,0,0,0-2-2Z" style="fill:#fff" />
        </g>
        <g id="p_987.0166018812868" data-name="p 987.0166018812868">
            <path d="M337.76,538.79a2,2,0,1,0,2,2,2,2,0,0,0-2-2Z" style="fill:#fff" />
        </g>
        <g id="p_687.3482117579128" data-name="p 687.3482117579128">
            <path d="M476.27,100.64h0a2,2,0,1,0,0,3.9h0a2,2,0,1,0,0-3.9Z" style="fill:#fff" />
        </g>
        <g id="p_1021.1385842001491" data-name="p 1021.1385842001491">
            <path d="M515.17,395.6a1.91,1.91,0,1,0,1.91,1.91,1.92,1.92,0,0,0-1.91-1.91Z" style="fill:#fff" />
        </g>
        <g id="p_585.1600132778461" data-name="p 585.1600132778461">
            <path d="M55,419.9a1.88,1.88,0,1,0,1.88,1.88A1.88,1.88,0,0,0,55,419.9Z" style="fill:#fff" />
        </g>
        <g id="p_406.6239653035627" data-name="p 406.6239653035627">
            <path d="M14.45,282a1.84,1.84,0,1,0,1.84,1.84A1.84,1.84,0,0,0,14.45,282Z" style="fill:#fff" />
        </g>
        <g id="p_298.801043369873" data-name="p 298.801043369873">
            <path d="M63.13,125.72h0a1.71,1.71,0,1,0,0,3.41h0a1.71,1.71,0,1,0,0-3.41Z" style="fill:#fff" />
        </g>
        <g id="p_425.05841128536144" data-name="p 425.05841128536144">
            <path d="M15.48,299.75a1.65,1.65,0,1,0,1.65,1.64,1.64,1.64,0,0,0-1.65-1.64Z" style="fill:#fff" />
        </g>
        <g id="p_294.56225954518396" data-name="p 294.56225954518396">
            <path d="M111.46,73.19a1.69,1.69,0,1,0,1.68,1.69,1.69,1.69,0,0,0-1.68-1.69Z" style="fill:#fff" />
        </g>
        <g id="p_325.91712606692215" data-name="p 325.91712606692215">
            <path d="M178.81,37.31h0a1.63,1.63,0,1,0,0,3.26h0a1.63,1.63,0,0,0,0-3.26Z" style="fill:#fff" />
        </g>
        <g id="p_531.6582386085604" data-name="p 531.6582386085604">
            <path d="M39.1,382.85a1.59,1.59,0,1,0,1.58,1.58,1.58,1.58,0,0,0-1.58-1.58Z" style="fill:#fff" />
        </g>
        <g id="p_343.6212951964402" data-name="p 343.6212951964402">
            <path d="M28.26,205.82h0a1.5,1.5,0,1,0,0,3h0a1.5,1.5,0,0,0,0-3Z" style="fill:#fff" />
        </g>
        <g id="p_336.8212268856949" data-name="p 336.8212268856949">
            <path d="M24.22,203.21a1.43,1.43,0,1,0,1.43,1.42,1.43,1.43,0,0,0-1.43-1.42Z" style="fill:#fff" />
        </g>
        <g id="p_837.9365199402318" data-name="p 837.9365199402318">
            <path d="M529.05,199.69a1.33,1.33,0,1,0,1.33,1.33,1.33,1.33,0,0,0-1.33-1.33Z" style="fill:#fff" />
        </g>
        <g id="p_926.3018164114429" data-name="p 926.3018164114429">
            <path d="M275,542.07a1.33,1.33,0,1,0,1.33,1.32,1.32,1.32,0,0,0-1.33-1.32Z" style="fill:#fff" />
        </g>
        <g id="p_318.8296919206359" data-name="p 318.8296919206359">
            <path d="M42.89,166.64h0a1.38,1.38,0,0,0,0,2.76h0a1.38,1.38,0,1,0,0-2.76Z" style="fill:#fff" />
        </g>
        <g id="p_323.0631940297481" data-name="p 323.0631940297481">
            <path d="M174,40a1.29,1.29,0,1,0,1.29,1.29A1.29,1.29,0,0,0,174,40Z" style="fill:#fff" />
        </g>
        <g id="p_799.0128759774881" data-name="p 799.0128759774881">
            <path d="M520,170h0a1.26,1.26,0,0,0,0,2.51h0a1.26,1.26,0,1,0,0-2.51Z" style="fill:#fff" />
        </g>
        <g id="p_373.29398040744513" data-name="p 373.29398040744513">
            <path d="M245.56,18.81A1.19,1.19,0,1,0,246.75,20a1.19,1.19,0,0,0-1.19-1.19Z" style="fill:#fff" />
        </g>
        <g id="p_532.077602004918" data-name="p 532.077602004918">
            <path d="M36.31,387h0a1.12,1.12,0,1,0,0,2.23h0a1.12,1.12,0,0,0,0-2.23Z" style="fill:#fff" />
        </g>
        <g id="p_606.9563233154793" data-name="p 606.9563233154793">
            <path d="M433.07,65.14h0a1.11,1.11,0,1,0,0,2.21h0a1.11,1.11,0,0,0,0-2.21Z" style="fill:#fff" />
        </g>
        <g id="p_757.4043510138929" data-name="p 757.4043510138929">
            <path d="M505.63,143.08h0a1.08,1.08,0,1,0,0,2.15h0a1.08,1.08,0,1,0,0-2.15Z" style="fill:#fff" />
        </g>
        <g id="p_852.3438840991304" data-name="p 852.3438840991304">
            <path d="M532.36,211.36a1,1,0,1,0,1,1,1,1,0,0,0-1-1Z" style="fill:#fff" />
        </g>
        <g id="p_403.96129515525934" data-name="p 403.96129515525934">
            <path d="M280.56,14.78a1,1,0,1,0,1,1,1,1,0,0,0-1-1Z" style="fill:#fff" />
        </g>
        <g id="p_313.79011439428643" data-name="p 313.79011439428643">
            <path d="M42.51,162.66a1,1,0,1,0,1,1,1,1,0,0,0-1-1Z" style="fill:#fff" />
        </g>
        <g id="p_319.26742182231135" data-name="p 319.26742182231135">
            <path d="M174.63,36a1,1,0,1,0,1,1,1,1,0,0,0-1-1Z" style="fill:#fff" />
        </g>
        <g id="p_372.35234706613454" data-name="p 372.35234706613454">
            <path d="M16.08,247.73a1,1,0,1,0,1,1,1,1,0,0,0-1-1Z" style="fill:#fff" />
        </g>
        <g id="p_581.3028819836208" data-name="p 581.3028819836208">
            <path d="M418,54.8a1,1,0,1,0,1,1,1,1,0,0,0-1-1Z" style="fill:#fff" />
        </g>
        <g id="p_559.8422430387417" data-name="p 559.8422430387417">
            <path d="M45.73,405.63h0a1,1,0,1,0,0,1.95h0a1,1,0,0,0,0-1.95Z" style="fill:#fff" />
        </g>
        <g id="p_756.5664601132905" data-name="p 756.5664601132905">
            <path d="M141.81,506.34h0a.94.94,0,1,0,0,1.88h0a.94.94,0,0,0,0-1.88Z" style="fill:#fff" />
        </g>
        <g id="p_903.7753356734515" data-name="p 903.7753356734515">
            <path d="M542.42,253a.92.92,0,1,0,.92.92.92.92,0,0,0-.92-.92Z" style="fill:#fff" />
        </g>
        <g id="p_1030.7552134957148" data-name="p 1030.7552134957148">
            <path d="M415,507.44h0a.9.9,0,1,0,0,1.79h0a.9.9,0,0,0,0-1.79Z" style="fill:#fff" />
        </g>
        <g id="p_302.8644699091896" data-name="p 302.8644699091896">
            <path d="M51.59,143.08a.83.83,0,0,0-.83.83.83.83,0,0,0,1.66,0,.83.83,0,0,0-.83-.83Z" style="fill:#fff" />
        </g>
        <g id="p_992.605604473845" data-name="p 992.605604473845">
            <path d="M532.49,352h0a.78.78,0,0,0,0,1.56h0a.78.78,0,0,0,0-1.56Z" style="fill:#fff" />
        </g>
        <g id="p_969.1992524697675" data-name="p 969.1992524697675">
            <path d="M319,542.17h0a.76.76,0,1,0,0,1.51h0a.76.76,0,0,0,0-1.51Z" style="fill:#fff" />
        </g>
        <g id="p_951.1640549743935" data-name="p 951.1640549743935">
            <path d="M298.48,544.67h0a.74.74,0,0,0,0,1.48h0a.74.74,0,0,0,0-1.48Z" style="fill:#fff" />
        </g>
        <g id="p_684.056050112593" data-name="p 684.056050112593">
            <path d="M101.18,474.86h0a.74.74,0,1,0,0,1.48h0a.74.74,0,0,0,0-1.48Z" style="fill:#fff" />
        </g>
        <g id="p_1016.8100139871516" data-name="p 1016.8100139871516">
            <path d="M389.25,519.62a.7.7,0,1,0,.7.7.7.7,0,0,0-.7-.7Z" style="fill:#fff" />
        </g>
        <g id="p_465.46057880537415" data-name="p 465.46057880537415">
            <path d="M20.19,337.28a.73.73,0,0,0-.73.73.73.73,0,0,0,.73.72.72.72,0,0,0,.72-.72.73.73,0,0,0-.72-.73Z" style="fill:#fff" />
        </g>
        <g id="p_381.90005263772287" data-name="p 381.90005263772287">
            <path d="M255.62,18.34a.7.7,0,1,0,.7.7.7.7,0,0,0-.7-.7Z" style="fill:#fff" />
        </g>
        <g id="p_842.1754074018291" data-name="p 842.1754074018291">
            <path d="M530.22,204.09h0a.66.66,0,0,0,0,1.32h0a.66.66,0,1,0,0-1.32Z" style="fill:#fff" />
        </g>
        <g id="p_734.2619155591894" data-name="p 734.2619155591894">
            <path d="M128.59,497.81h0a.66.66,0,0,0,0,1.32h0a.66.66,0,0,0,0-1.32Z" style="fill:#fff" />
        </g>
        <g id="p_691.7768914739017" data-name="p 691.7768914739017">
            <path d="M105.18,478.77a.65.65,0,1,0,.64.64.65.65,0,0,0-.64-.64Z" style="fill:#fff" />
        </g>
        <g id="p_665.0800153236869" data-name="p 665.0800153236869">
            <path d="M90.94,466.28a.66.66,0,0,0,0,1.32.66.66,0,0,0,0-1.32Z" style="fill:#fff" />
        </g>
        <g id="p_1037.8386577017156" data-name="p 1037.8386577017156">
            <path d="M437.77,492.27h0a.63.63,0,0,0-.63.63.63.63,0,0,0,.63.63h0a.63.63,0,0,0,.62-.63.63.63,0,0,0-.62-.63Z" style="fill:#fff" />
        </g>
        <g id="p_819.4299181342465" data-name="p 819.4299181342465">
            <path d="M526.34,185.45h0a.55.55,0,0,0,0,1.1h0a.55.55,0,1,0,0-1.1Z" style="fill:#fff" />
        </g>
        <g id="p_980.16354517723" data-name="p 980.16354517723">
            <path d="M536.5,336.06a.53.53,0,0,0,0,1.06.53.53,0,1,0,0-1.06Z" style="fill:#fff" />
        </g>
        <g id="p_1011.5312705462823" data-name="p 1011.5312705462823">
            <path d="M524.84,379.08h0a.54.54,0,1,0,0,1.07h0a.54.54,0,1,0,0-1.07Z" style="fill:#fff" />
        </g>
        <g id="p_907.0612637963791" data-name="p 907.0612637963791">
            <path d="M255.24,544.23a.52.52,0,0,0-.52.52.52.52,0,0,0,.52.53.53.53,0,0,0,.53-.53.52.52,0,0,0-.53-.52Z" style="fill:#fff" />
        </g>
        <g id="p_566.7165837759961" data-name="p 566.7165837759961">
            <path d="M408.78,50.35a.52.52,0,1,0,.53.52.52.52,0,0,0-.53-.52Z" style="fill:#fff" />
        </g>
        <path id="p_847.5165708021888" data-name="p 847.5165708021888" d="M531.4,209.58a.52.52,0,1,1,.51-.51A.51.51,0,0,1,531.4,209.58Z" style="fill:none;stroke:#fff;stroke-miterlimit:10;stroke-width:2px" />
        <g id="p_450.44734274825316" data-name="p 450.44734274825316">
            <path d="M323,19.9a.5.5,0,0,0-.49.5.5.5,0,1,0,1,0,.5.5,0,0,0-.5-.5Z" style="fill:#fff" />
        </g>
        <g id="p_1007.2949083803718" data-name="p 1007.2949083803718">
            <path d="M373.33,526.44h0a.5.5,0,1,0,0,1h0a.5.5,0,0,0,0-1Z" style="fill:#fff" />
        </g>
        <g id="p_442.4437737686666" data-name="p 442.4437737686666">
            <path d="M316.27,18.7a.47.47,0,1,0,.47.47.47.47,0,0,0-.47-.47Z" style="fill:#fff" />
        </g>
        <g id="p_375.8326166887894" data-name="p 375.8326166887894">
            <path d="M249,19.53a.36.36,0,0,0-.37.36.37.37,0,1,0,.73,0,.36.36,0,0,0-.36-.36Z" style="fill:#fff" />
        </g>
        <g id="p_511.6235803159378" data-name="p 511.6235803159378">
            <path d="M30.77,373.59a.36.36,0,1,0,.36.36.36.36,0,0,0-.36-.36Z" style="fill:#fff" />
        </g>
        <g id="p_875.5908824292384" data-name="p 875.5908824292384">
            <path d="M228.77,539.57a.36.36,0,1,0,.35.36.35.35,0,0,0-.35-.36Z" style="fill:#fff" />
        </g>
        <g id="p_717.0341579923866" data-name="p 717.0341579923866">
            <path d="M118.78,491.12h0a.29.29,0,0,0-.3.3.3.3,0,0,0,.3.3h0a.31.31,0,0,0,.3-.3.3.3,0,0,0-.3-.3Z" style="fill:#fff" />
        </g>
        <g id="p_990.9803016928207" data-name="p 990.9803016928207">
            <path d="M347.76,536.23h0a.22.22,0,0,0-.22.23.22.22,0,0,0,.22.22h0a.22.22,0,0,0,.22-.22.22.22,0,0,0-.22-.23Z" style="fill:#fff" />
        </g>
        <g id="p_1025.6612690141706" data-name="p 1025.6612690141706">
            <path d="M511.14,407.54a.22.22,0,1,0,.22.22.22.22,0,0,0-.22-.22Z" style="fill:#fff" />
        </g>
        <g id="p_845.5116836974295" data-name="p 845.5116836974295">
            <path d="M532.21,206.47h0a.15.15,0,0,0-.15.15.15.15,0,0,0,.15.14h0a.14.14,0,0,0,.14-.14.15.15,0,0,0-.14-.15Z" style="fill:#fff" />
        </g>
        <g id="p_379.2096561716869" data-name="p 379.2096561716869">
            <path d="M252.92,19.47a.14.14,0,0,0,0,.28.14.14,0,0,0,0-.28Z" style="fill:#fff" />
        </g>
        <g id="p_952.6204591835751" data-name="p 952.6204591835751">
            <path d="M542.87,303h0a.12.12,0,0,0-.12.12.11.11,0,0,0,.12.11h0a.11.11,0,0,0,.11-.11.11.11,0,0,0-.11-.12Z" style="fill:#fff" />
        </g>
    </g>

    <g id="India">
        <path  data-name="India" d="M326.67,487.58a66.89,66.89,0,1,1,66.89-66.89A66.88,66.88,0,0,1,326.67,487.58Z" style="fill:none;stroke:#fff;stroke-miterlimit:10;stroke-width:2px" />
        <text transform="translate(311.17 423.52)" style="isolation:isolate;font-size:10px;fill:#fff;font-family:Akkurat-Mono, Akkurat-Mono">India</text>
    </g>

    <g id="China">
        <path data-name="China" d="M182.9,412.56a131.9,131.9,0,0,1,0-263.79h0a131.9,131.9,0,0,1,0,263.79Z" style="fill:none;stroke:#fff;stroke-miterlimit:10;stroke-width:2px" />
        <text transform="translate(167.4 283.49)" style="isolation:isolate;font-size:10px;fill:#fff;font-family:Akkurat-Mono, Akkurat-Mono">China</text>
    </g>
    <g id="USA">
        <path data-name="USA" d="M411.77,375.72a95.06,95.06,0,1,1,95.05-95.06A95.06,95.06,0,0,1,411.77,375.72Z" style="fill:none;stroke:#fff;stroke-miterlimit:10;stroke-width:2px" />
        <text transform="translate(402.47 283.49)" style="isolation:isolate;font-size:10px;fill:#fff;font-family:Akkurat-Mono, Akkurat-Mono">USA</text>
    </g>
    <g id="Russian_Federation" data-name="Russian Federation">
        <path data-name="Russian Federation" d="M324.53,211.54a53.57,53.57,0,1,1,0-107.13h0a53.57,53.57,0,0,1,0,107.13Z" style="fill:none;stroke:#fff;stroke-miterlimit:10;stroke-width:2px" />
        <text transform="translate(299.73 154.8)" style="isolation:isolate;font-size:10px;fill:#fff;font-family:Akkurat-Mono, Akkurat-Mono">Russian <tspan x="-6.2" y="12">Federation</tspan></text>
    </g>
    <g id="Japan">
        <path data-name="Japan" d="M237,155.3a43.5,43.5,0,1,1,43.5-43.5A43.5,43.5,0,0,1,237,155.3Z" style="fill:none;stroke:#fff;stroke-miterlimit:10;stroke-width:2px" />
        <text transform="translate(221.47 114.63)" style="isolation:isolate;font-size:10px;fill:#fff;font-family:Akkurat-Mono, Akkurat-Mono">Japan</text>
    </g>
    <g id="Internet">
        <path data-name="Internet" d="M219.57,497.37a43.37,43.37,0,0,1,0-86.73h0a43.37,43.37,0,0,1,0,86.73Z" style="fill:#fff;stroke:#fff;stroke-miterlimit:10;stroke-width:2px" />
        <text transform="translate(194.76 456.83)" style="isolation:isolate;font-size:10px;fill:#0c0c0c;font-family:Akkurat-Mono, Akkurat-Mono">Internet</text>
    </g>
    <g id="Iran">
        <path data-name="Iran" d="M415.9,183.75a36.51,36.51,0,1,1,36.5-36.5A36.5,36.5,0,0,1,415.9,183.75Z" style="fill:none;stroke:#fff;stroke-miterlimit:10;stroke-width:2px" />
        <text transform="translate(403.5 150.07)" style="isolation:isolate;font-size:10px;fill:#fff;font-family:Akkurat-Mono, Akkurat-Mono">Iran</text>
    </g>
    <g id="Germany">
        <path data-name="Germany" d="M429.67,445.7a34.65,34.65,0,1,1,34.64-34.64A34.64,34.64,0,0,1,429.67,445.7Z" style="fill:none;stroke:#fff;stroke-miterlimit:10;stroke-width:2px" />
        <text transform="translate(407.97 413.88)" style="isolation:isolate;font-size:10px;fill:#fff;font-family:Akkurat-Mono, Akkurat-Mono">Germany</text>
    </g>
    <g id="Indonesia">
        <path data-name="Indonesia" d="M159.18,148.55a32.49,32.49,0,1,1,32.49-32.49A32.49,32.49,0,0,1,159.18,148.55Z" style="fill:none;stroke:#fff;stroke-miterlimit:10;stroke-width:2px" />
        <text transform="translate(131.28 118.89)" style="isolation:isolate;font-size:10px;fill:#fff;font-family:Akkurat-Mono, Akkurat-Mono">Indonesia</text>
    </g>
    <g id="South_Korea" data-name="South Korea">
        <path data-name="South Korea" d="M142.9,474.24a32.33,32.33,0,1,1,0-64.65h0a32.33,32.33,0,0,1,0,64.65Z" style="fill:none;stroke:#fff;stroke-miterlimit:10;stroke-width:2px" />
        <text transform="translate(127.4 438.74)" style="isolation:isolate;font-size:10px;fill:#fff;font-family:Akkurat-Mono, Akkurat-Mono">South<tspan x="0" y="12">Korea</tspan></text>
    </g>
    <g id="Canada">
        <path data-name="Canada" d="M275.27,538.11a31.4,31.4,0,1,1,31.4-31.4A31.4,31.4,0,0,1,275.27,538.11Z" style="fill:none;stroke:#fff;stroke-miterlimit:10;stroke-width:2px" />
        <text transform="translate(256.67 509.53)" style="isolation:isolate;font-size:10px;fill:#fff;font-family:Akkurat-Mono, Akkurat-Mono">Canada</text>
    </g>
    <g id="Saudi_Arabia" data-name="Saudi Arabia">
        <path data-name="Saudi Arabia" d="M303.71,105a31.55,31.55,0,1,1,0-63.09h0a31.55,31.55,0,1,1,0,63.09Z" style="fill:none;stroke:#fff;stroke-miterlimit:10;stroke-width:2px" />
        <text transform="translate(288.21 70.29)" style="isolation:isolate;font-size:10px;fill:#fff;font-family:Akkurat-Mono, Akkurat-Mono">Saudi<tspan x="-3.1" y="12">Arabia</tspan></text>
    </g>
    <g id="South_Africa" data-name="South Africa">
        <path data-name="South Africa" d="M377.26,121.07a28.61,28.61,0,1,1,0-57.21h0a28.61,28.61,0,0,1,0,57.21Z" style="fill:none;stroke:#fff;stroke-miterlimit:10;stroke-width:2px" />
        <text transform="translate(361.76 89.3)" style="isolation:isolate;font-size:10px;fill:#fff;font-family:Akkurat-Mono, Akkurat-Mono">South<tspan x="-3.1" y="12">Africa</tspan></text>
    </g>
    <g id="Brazil">
        <path data-name="Brazil" d="M477,202a28.22,28.22,0,1,1,28.22-28.22A28.22,28.22,0,0,1,477,202Z" style="fill:none;stroke:#fff;stroke-miterlimit:10;stroke-width:2px" />
        <text transform="translate(458.41 176.65)" style="isolation:isolate;font-size:10px;fill:#fff;font-family:Akkurat-Mono, Akkurat-Mono">Brazil</text>
    </g>
    <g id="Mexico">
        <path data-name="Mexico" d="M485.86,407.92a27.39,27.39,0,1,1,27.38-27.38A27.38,27.38,0,0,1,485.86,407.92Z" style="fill:none;stroke:#fff;stroke-miterlimit:10;stroke-width:2px" />
        <text transform="translate(467.26 383.36)" style="isolation:isolate;font-size:10px;fill:#fff;font-family:Akkurat-Mono, Akkurat-Mono">Mexico</text>
    </g>
    <g id="Turkey">
        <path data-name="Turkey" d="M408,496.39a26.32,26.32,0,1,1,26.32-26.32A26.32,26.32,0,0,1,408,496.39Z" style="fill:none;stroke:#fff;stroke-miterlimit:10;stroke-width:2px" />
        <text transform="translate(389.37 472.9)" style="isolation:isolate;font-size:10px;fill:#fff;font-family:Akkurat-Mono, Akkurat-Mono">Turkey</text>
    </g>
    <g id="UK">
        <path data-name="UK" d="M353.3,67.36a25.15,25.15,0,1,1,0-50.29h0a25.15,25.15,0,1,1,0,50.29Z" style="fill:none;stroke:#fff;stroke-miterlimit:10;stroke-width:2px" />
        <text transform="translate(347.1 45.04)" style="isolation:isolate;font-size:10px;fill:#fff;font-family:Akkurat-Mono, Akkurat-Mono">UK</text>
    </g>
    <g id="Italy">
        <path data-name="Italy" d="M93.64,434.82a24,24,0,1,1,0-48h0a24,24,0,0,1,0,48Z" style="fill:none;stroke:#fff;stroke-miterlimit:10;stroke-width:2px" />
        <text transform="translate(78.14 413.64)" style="isolation:isolate;font-size:10px;fill:#fff;font-family:Akkurat-Mono, Akkurat-Mono">Italy</text>
    </g>
    <g id="Poland">
        <path data-name="Poland" d="M254.32,68.6A23.49,23.49,0,1,1,277.8,45.11,23.49,23.49,0,0,1,254.32,68.6Z" style="fill:none;stroke:#fff;stroke-miterlimit:10;stroke-width:2px" />
        <text transform="translate(235.72 47.94)" style="isolation:isolate;font-size:10px;fill:#fff;font-family:Akkurat-Mono, Akkurat-Mono">Poland</text>
    </g>
    <g id="Spain">
        <path data-name="Spain" d="M508.42,234.81a20.79,20.79,0,1,1,0-41.57h0a20.79,20.79,0,0,1,0,41.57Z" style="fill:none;stroke:#fff;stroke-miterlimit:10;stroke-width:2px" />
        <text transform="translate(492.92 216.85)" style="isolation:isolate;font-size:10px;fill:#fff;font-family:Akkurat-Mono, Akkurat-Mono">Spain</text>
    </g>
    <g id="France">
        <path data-name="France" d="M186.42,88.45A23.53,23.53,0,1,1,210,64.92,23.53,23.53,0,0,1,186.42,88.45Z" style="fill:none;stroke:#fff;stroke-miterlimit:10;stroke-width:2px" />
        <text transform="translate(167.82 67.75)" style="isolation:isolate;font-size:10px;fill:#fff;font-family:Akkurat-Mono, Akkurat-Mono">France</text>
    </g>
    <g id="Iraq">
        <path data-name="Iraq" d="M469.26,144.29a19.46,19.46,0,1,1,19.46-19.45A19.45,19.45,0,0,1,469.26,144.29Z" style="fill:none;stroke:#fff;stroke-miterlimit:10;stroke-width:2px" />
        <text transform="translate(456.86 127.66)" style="isolation:isolate;font-size:10px;fill:#fff;font-family:Akkurat-Mono, Akkurat-Mono">Iraq</text>
    </g>
</svg>
