<?xml version="1.0" encoding="utf-8"?>
<!-- Generator: Adobe Illustrator 21.0.0, SVG Export Plug-In . SVG Version: 6.00 Build 0)  -->
<svg version="1.1" id="Layer_1" xmlns="http://www.w3.org/2000/svg" xmlns:xlink="http://www.w3.org/1999/xlink" x="0px" y="0px" viewBox="0 0 651.7 545" style="enable-background:new 0 0 651.7 545;" xml:space="preserve">
    <style type="text/css">
        .st0 {
            fill: #FFFFFF;
        }

        .st1 {
            fill: #FFFFFF;
            stroke: #FFFFFF;
            stroke-width: 0.1757;
            stroke-miterlimit: 10;
        }

        .st2 {
            fill: none;
            stroke: #FFFFFF;
            stroke-width: 2.1344;
            stroke-miterlimit: 10;
        }

        .st3 {
            fill: none;
            stroke: #FFFFFF;
            stroke-width: 2.1344;
            stroke-linecap: round;
            stroke-linejoin: round;
            stroke-miterlimit: 10;
        }

        .st4 {
            fill: #FFFFFF;
            stroke: #FFFFFF;
            stroke-width: 2.1361;
            stroke-linecap: round;
            stroke-linejoin: round;
            stroke-miterlimit: 10;
        }

        .st5 {
            fill: #FFFFFF;
            stroke: #FFFFFF;
            stroke-width: 2.1344;
            stroke-linecap: round;
            stroke-linejoin: round;
            stroke-miterlimit: 10;
        }

        .st6 {
            fill: none;
        }

        .st7 {
            font-family: 'Akkurat-Normal';
        }

        .st8 {
            font-size: 11.5px;
        }
    </style>
    <g>
        <path class="st0" d="M26.7,232.1c5,0,9.9,0,14.9,0c1,0,1.8,0.5,2,1.4c0.1,0.2,0.1,0.5,0.1,0.7c0,9.9,0,19.8,0,29.8
		c0,1.3-0.8,2.1-2.1,2.1c-9.9,0-19.8,0-29.8,0c-1.3,0-2.1-0.8-2.1-2.1c0-9.9,0-19.8,0-29.8c0-1.3,0.8-2.1,2.1-2.1
		C16.8,232.1,21.8,232.1,26.7,232.1z M42.6,240.1c-10.6,0-21.2,0-31.8,0c0,0.2,0,0.3,0,0.4c0,7.8,0,15.5,0,23.3
		c0,0.9,0.3,1.2,1.2,1.2c9.8,0,19.6,0,29.3,0c0.9,0,1.2-0.3,1.2-1.2c0-7.8,0-15.5,0-23.3C42.6,240.4,42.6,240.3,42.6,240.1z
		 M10.8,238.9c10.6,0,21.2,0,31.8,0c0-1.5,0-3,0-4.4c0-1-0.3-1.2-1.2-1.2c-9.8,0-19.6,0-29.3,0c-0.1,0-0.2,0-0.3,0
		c-0.6,0-0.9,0.3-0.9,0.9C10.8,235.7,10.8,237.3,10.8,238.9z" />
        <path class="st0" d="M26.7,262.8c-4.1,0-8.1,0-12.2,0c-0.7,0-0.8-0.1-0.8-0.8c0-6.6,0-13.3,0-19.9c0-0.7,0.1-0.8,0.8-0.8
		c8.2,0,16.3,0,24.5,0c0.7,0,0.8,0.2,0.8,0.8c0,6.6,0,13.3,0,19.9c0,0.7-0.2,0.8-0.8,0.8C34.9,262.8,30.8,262.8,26.7,262.8z
		 M37.4,242.4c0,0.2,0.1,0.3,0.1,0.5c0,1-0.8,1.8-1.9,1.8c-3.5,0-7,0-10.5,0c-2.4,0-4.9,0-7.3,0c-0.6,0-1.1-0.2-1.5-0.7
		c-0.4-0.5-0.5-1-0.3-1.6c-0.4,0-0.8,0-1.2,0c0,5.7,0,11.3,0,17c1.3,0,2.6,0,3.9,0c0-0.7,0-1.5,0-2.2c0-0.1-0.1-0.2-0.2-0.2
		c-0.6-0.4-0.9-0.9-0.9-1.6c0-0.7,0.4-1.2,1-1.5c0.4-0.1,0.8-0.1,1.2-0.2c0.1,0,0.3-0.1,0.4-0.2c1.1-1.4,2.5-2.1,4.2-2.1
		c1.4,0,2.9,0,4.3,0c1.6,0,2.9,0.5,3.9,1.7c0.4,0.5,0.8,0.6,1.3,0.6c0.8,0,1.5,0.5,1.7,1.4c0.2,0.7-0.2,1.5-0.9,1.8
		c-0.1,0-0.2,0.1-0.2,0.2c0,0.8,0,1.5,0,2.3c1.3,0,2.6,0,3.9,0c0-5.7,0-11.3,0-17C38.2,242.4,37.8,242.4,37.4,242.4z M19.9,259.3
		c4.5,0,9.1,0,13.6,0c0-0.8,0-1.5,0-2.2c-4.5,0-9,0-13.6,0C19.9,257.9,19.9,258.6,19.9,259.3z M38.6,260.5c-8,0-15.9,0-23.8,0
		c0,0.4,0,0.7,0,1.1c7.9,0,15.9,0,23.8,0C38.6,261.3,38.6,260.9,38.6,260.5z M26.7,242.4c-3,0-5.9,0-8.9,0c-0.5,0-0.8,0.2-0.8,0.6
		c0,0.4,0.2,0.6,0.8,0.6c0,0,0,0,0.1,0c5.9,0,11.7,0,17.6,0c0.1,0,0.3,0,0.4,0c0.3-0.1,0.5-0.2,0.5-0.5s-0.2-0.5-0.5-0.5
		c-0.1,0-0.3,0-0.4,0C32.6,242.4,29.7,242.4,26.7,242.4z M26.7,256c2.4,0,4.8,0,7.2,0c0.5,0,0.8-0.2,0.8-0.6c0-0.4-0.3-0.6-0.8-0.6
		c0,0,0,0-0.1,0c-4.7,0-9.5,0-14.2,0c-0.2,0-0.3,0-0.5,0c-0.3,0.1-0.4,0.3-0.4,0.5c0,0.3,0.1,0.5,0.4,0.5c0.1,0,0.3,0,0.4,0
		C22,256,24.3,256,26.7,256z M21.7,253.7c3.4,0,6.7,0,10,0c-0.4-0.5-1.2-1-2-1c-1.9-0.1-3.8,0-5.8,0c-0.1,0-0.2,0-0.2,0
		C23,252.8,22.3,253.1,21.7,253.7z" />
        <path class="st0" d="M32.4,237.8c-0.9,0-1.7-0.8-1.7-1.7c0-0.9,0.8-1.7,1.7-1.7c0.9,0,1.7,0.8,1.7,1.7
		C34.1,237,33.3,237.8,32.4,237.8z M32.4,235.6c-0.3,0-0.6,0.3-0.5,0.6c0,0.3,0.3,0.5,0.6,0.5c0.3,0,0.6-0.3,0.6-0.6
		C33,235.8,32.7,235.5,32.4,235.6z" />
        <path class="st0" d="M26.7,234.4c0.9,0,1.7,0.8,1.7,1.7c0,0.9-0.8,1.7-1.7,1.7c-0.9,0-1.7-0.8-1.7-1.7
		C25,235.2,25.8,234.4,26.7,234.4z M27.3,236.1c0-0.3-0.3-0.6-0.6-0.6c-0.3,0-0.5,0.3-0.6,0.5c0,0.3,0.2,0.6,0.5,0.6
		C27,236.7,27.3,236.4,27.3,236.1z" />
        <path class="st0" d="M22.8,236.1c0,0.9-0.8,1.7-1.7,1.7c-0.9,0-1.7-0.8-1.7-1.7c0-0.9,0.8-1.7,1.7-1.7
		C22,234.4,22.8,235.2,22.8,236.1z M21.6,236.1c0-0.3-0.3-0.6-0.6-0.6c-0.3,0-0.5,0.3-0.5,0.6c0,0.3,0.3,0.6,0.6,0.6
		C21.3,236.7,21.6,236.4,21.6,236.1z" />
        <path class="st0" d="M22.7,248c0.1-0.4,0.1-0.6,0.2-0.9c0.1-0.4,0.3-0.8,0.4-1.1c0.1-0.3,0.3-0.4,0.6-0.4c0.3,0,0.5,0.2,0.5,0.5
		c0,0.4-0.1,0.8-0.3,1.1c-0.3,0.5-0.3,0.9,0,1.4c0.2,0.3,0.3,0.7,0.3,1.1c0,0.3-0.2,0.6-0.5,0.6c-0.3,0-0.5-0.2-0.6-0.5
		c-0.1-0.2-0.1-0.5-0.2-0.7C22.9,248.7,22.8,248.3,22.7,248z" />
        <path class="st0" d="M25.8,248c0.1-0.4,0.2-0.7,0.3-1c0.1-0.3,0.2-0.7,0.4-1c0.1-0.3,0.3-0.4,0.6-0.4c0.3,0,0.5,0.2,0.5,0.5
		c0,0.4-0.1,0.8-0.3,1.1c-0.3,0.5-0.3,1,0,1.5c0.2,0.3,0.2,0.6,0.3,1c0,0.3-0.2,0.6-0.5,0.6c-0.3,0-0.5-0.2-0.6-0.6
		c0-0.2-0.1-0.4-0.2-0.6C26.1,248.7,25.9,248.4,25.8,248z" />
        <path class="st0" d="M28.9,248c0.1-0.4,0.2-0.7,0.3-1c0.1-0.4,0.3-0.7,0.4-1c0.1-0.3,0.3-0.4,0.6-0.4c0.3,0,0.5,0.2,0.5,0.5
		c0,0.4-0.1,0.8-0.3,1.1c-0.3,0.5-0.3,0.9,0,1.4c0.2,0.3,0.3,0.7,0.3,1c0,0.3-0.2,0.6-0.5,0.6c-0.3,0-0.5-0.2-0.6-0.5
		c0-0.2-0.1-0.4-0.2-0.7C29.2,248.7,29.1,248.3,28.9,248z" />
    </g>
    <path class="st1" d="M643.2,353.9c0-3.9-2.8-7.2-6.6-7.9l-0.5-0.1l-1.4-11.7h3.4v-6c-3.6-0.2-6.4,0.7-8.5,2.8l0.1,2.3h-2.5v0.9h2.6
	l0.8,12.2c0,0.5-0.2,1-0.5,1.4c-0.4,0.4-0.8,0.6-1.4,0.6h-9.3l0.3-0.9c0.5-1.8,2.5-3.3,4.4-3.2h0.4v-5.5c0-1.6-1.3-3-3-3h-7.6
	c-1.6,0-3,1.3-3,3c0,0.9,0.4,1.8,1.1,2.3l0.8,0.7l-1,0.5c-1.2,0.6-2.3,1.4-3.3,2.4c-2.5,2.5-3.8,5.8-3.8,9.3v0.5h2.8l0,0.7
	c-0.1,1.5,0.5,2.9,1.6,4c1.1,1.1,2.5,1.7,3.9,1.7h0c1.5,0,2.9-0.6,4-1.7c1.1-1.1,1.6-2.5,1.5-4l0-0.7h10.9l0,0.7
	c-0.1,1.5,0.5,2.9,1.6,4c1.1,1.1,2.5,1.7,3.9,1.7h0c1.5,0,2.9-0.6,4-1.7c1.1-1.1,1.6-2.5,1.5-4l0-0.7h2.8V353.9z M630.8,331.1
	c1.5-1.2,3.4-2,5.6-2l0.7,0v4.2h-6.5l-0.1-1.9L630.8,331.1z M611.8,338.7c0-1.1,0.9-2.1,2.1-2.1h7.6c1.1,0,2.1,0.9,2.1,2.1v2.1h-9.6
	C612.7,340.8,611.8,339.9,611.8,338.7z M616.4,358.4c-0.9,0.9-2.1,1.4-3.3,1.4c0,0,0,0,0,0c-1.2,0-2.5-0.5-3.3-1.4
	c-0.9-0.9-1.3-2.1-1.2-3.4l0-0.7h4.1v1.4h0.9v-1.4h4.1l0,0.7C617.7,356.3,617.3,357.5,616.4,358.4z M605.7,353.4l0.1-0.8
	c0.3-2.8,1.5-5.4,3.5-7.4c1.1-1.1,2.5-2,3.9-2.6c1.5-0.6,3-0.9,4.7-0.9h5.6v1.6l-0.6,0.1c-1.1,0.2-2.1,0.7-2.9,1.5
	c-1.3,1.2-1.6,3-1.6,4.4h10.2c0.8,0,1.5-0.3,2-0.9c0.5-0.6,0.8-1.3,0.8-2.1l-0.7-12.2h3.1l1.5,13.2c0.2,1.5-0.3,3-1.4,4.2
	c-1,1.2-2.5,1.8-4,1.8H605.7z M638.2,358.4c-0.9,0.9-2.1,1.4-3.3,1.4h0c-1.2,0-2.5-0.5-3.3-1.4c-0.9-0.9-1.3-2.1-1.2-3.4l0-0.7h4.1
	v1.4h0.9v-1.4h4.1l0,0.7C639.6,356.3,639.1,357.5,638.2,358.4z M633.6,353.4l1.1-1.2c1.1-1.2,1.7-2.8,1.6-4.5l0-1l0.9,0.3
	c2.5,0.8,4.5,2.9,5,5.5l0.2,0.8H633.6z" />
    <path class="st0" d="M262.7,322h-17.4c-4.2,0-7.7,3.4-7.7,7.7v17.4c0,0.5,0.1,1,0.2,1.5h8.9v1H238c1,3,3.9,5.2,7.3,5.2h17.4
	c4.2,0,7.7-3.4,7.7-7.7v-17.4C270.3,325.4,266.9,322,262.7,322z" />
    <g>
        <path class="st0" d="M131.3,348.6v1h106.3c-0.1-0.3-0.2-0.7-0.3-1H131.3z" />
        <path d="M246.2,348.6h-8.9c0.1,0.3,0.2,0.7,0.3,1h8.6V348.6z" />
        <circle cx="246.2" cy="349.1" r="1.3" />
    </g>
    <path class="st0" d="M361.4,211.4h17.4c4.2,0,7.7,3.4,7.7,7.7v17.4c0,0.5-0.1,1-0.2,1.5h-8.9v1h8.6c-1,3-3.9,5.2-7.3,5.2h-17.4
	c-4.2,0-7.7-3.4-7.7-7.7v-17.4C353.7,214.9,357.1,211.4,361.4,211.4z" />
    <g>
        <path class="st0" d="M489.1,238v1L386,239c0.1-0.3,0.2-0.7,0.3-1L489.1,238z" />
        <path d="M377.4,238h8.9c-0.1,0.3-0.2,0.7-0.3,1h-8.6V238z" />
        <circle cx="377.4" cy="238.5" r="1.3" />
    </g>
    <path class="st0" d="M301.3,120h-17.4c-4.2,0-7.7,3.4-7.7,7.7v17.4c0,0.5,0.1,1,0.2,1.5h8.9v1h-8.6c1,3,3.9,5.2,7.3,5.2h17.4
	c4.2,0,7.7-3.4,7.7-7.7v-17.4C309,123.4,305.5,120,301.3,120z" />
    <path class="st2" d="M248.3,4.3h124c16.2,0,29.3,13.1,29.3,29.3v333.1c0,16.2-13.1,29.3-29.3,29.3h-124c-16.2,0-29.3-13.1-29.3-29.3
	V33.6C219,17.4,232.1,4.3,248.3,4.3z" />
    <circle class="st0" cx="284.8" cy="34.8" r="2.5" />
    <circle class="st2" cx="310.5" cy="19.6" r="3.7" />
    <path class="st0" d="M297.1,32.7h27.2c1.3,0,2.4,0.9,2.4,1.9v0c0,1.1-1.1,1.9-2.4,1.9h-27.2c-1.3,0-2.4-0.9-2.4-1.9v0
	C294.7,33.5,295.8,32.7,297.1,32.7z" />
    <rect x="230.3" y="53.8" class="st2" width="162.5" height="308.4" />
    <path class="st2" d="M284,323.1h17.4c3.7,0,6.6,3,6.6,6.6v17.4c0,3.7-3,6.6-6.6,6.6H284c-3.7,0-6.6-3-6.6-6.6v-17.4
	C277.4,326,280.3,323.1,284,323.1z" />
    <path class="st2" d="M322.6,323.1H340c3.7,0,6.6,3,6.6,6.6v17.4c0,3.7-3,6.6-6.6,6.6h-17.4c-3.7,0-6.6-3-6.6-6.6v-17.4
	C316,326,319,323.1,322.6,323.1z" />
    <path class="st2" d="M361.2,323.1h17.4c3.7,0,6.6,3,6.6,6.6v17.4c0,3.7-3,6.6-6.6,6.6h-17.4c-3.7,0-6.6-3-6.6-6.6v-17.4
	C354.6,326,357.6,323.1,361.2,323.1z" />
    <g>
        <path d="M260.5,330.4l-0.3,0l-12.1,6.3c-0.7,0.4-1.5,0.8-2.2,1.1c-0.2,0.1-0.4,0.2-0.5,0.5l0,0.3l0,0.1c0.1,0.2,0.3,0.4,0.5,0.5
		c1.2,0.4,2.5,0.9,3.7,1.3c0.2,0.1,0.3,0,0.4-0.1c1.5-1.3,3-2.6,4.5-3.9l2.2-1.9l-5.4,6.5l3.2,1.1c1.2,0.4,2.4,0.8,3.6,1.2
		c0.1,0,0.2,0.1,0.3,0.1c0.1,0,0.3,0,0.4-0.1c0.2-0.1,0.3-0.3,0.3-0.6c0.2-1.2,0.3-2.3,0.5-3.5l1.1-7.1c0-0.3,0.1-0.6,0.1-0.9
		C261.1,330.8,260.9,330.6,260.5,330.4z" />
        <path d="M250.9,342.3c0,0.8,0,1.6,0,2.5c0,0.2,0.1,0.3,0.1,0.4c0.1,0.2,0.3,0.2,0.5,0.2c0,0,0,0,0,0c0.2,0,0.4-0.1,0.5-0.3
		c0.3-0.4,0.6-0.8,0.9-1.2l1-1.3l-3.1-1.1V342.3z" />
    </g>
    <path class="st0" d="M216.7,73.8L216.7,73.8c-0.9,0-1.7-0.8-1.7-1.7V56.6c0-0.9,0.8-1.7,1.7-1.7l0,0c0.9,0,1.7,0.8,1.7,1.7v15.6
	C218.4,73.1,217.6,73.8,216.7,73.8z" />
    <path class="st0" d="M216.7,106.2L216.7,106.2c-0.9,0-1.7-0.8-1.7-1.7v-9.4c0-0.9,0.8-1.7,1.7-1.7l0,0c0.9,0,1.7,0.8,1.7,1.7v9.4
	C218.4,105.5,217.6,106.2,216.7,106.2z" />
    <path class="st0" d="M374.2,1.7L374.2,1.7c0,0.9-0.8,1.7-1.7,1.7h-29.3c-0.9,0-1.7-0.8-1.7-1.7v0c0-0.9,0.8-1.7,1.7-1.7h29.3
	C373.4,0,374.2,0.8,374.2,1.7z" />
    <path class="st2" d="M245.2,75.3h17.4c3.7,0,6.6,3,6.6,6.6v17.4c0,3.7-3,6.6-6.6,6.6h-17.4c-3.7,0-6.6-3-6.6-6.6V82
	C238.6,78.3,241.6,75.3,245.2,75.3z" />
    <path class="st2" d="M322.6,75.3H340c3.7,0,6.6,3,6.6,6.6v17.4c0,3.7-3,6.6-6.6,6.6h-17.4c-3.7,0-6.6-3-6.6-6.6V82
	C315.9,78.3,318.9,75.3,322.6,75.3z" />
    <path class="st2" d="M361.2,75.3h17.4c3.7,0,6.6,3,6.6,6.6v17.4c0,3.7-3,6.6-6.6,6.6h-17.4c-3.7,0-6.6-3-6.6-6.6V82
	C354.6,78.3,357.6,75.3,361.2,75.3z" />
    <path class="st2" d="M245.2,121.1h17.4c3.7,0,6.6,3,6.6,6.6v17.4c0,3.7-3,6.6-6.6,6.6h-17.4c-3.7,0-6.6-3-6.6-6.6v-17.4
	C238.6,124,241.6,121.1,245.2,121.1z" />
    <path class="st2" d="M322.6,121.1H340c3.7,0,6.6,3,6.6,6.6v17.4c0,3.7-3,6.6-6.6,6.6h-17.4c-3.7,0-6.6-3-6.6-6.6v-17.4
	C315.9,124,318.9,121.1,322.6,121.1z" />
    <path class="st2" d="M361.2,121.1h17.4c3.7,0,6.6,3,6.6,6.6v17.4c0,3.7-3,6.6-6.6,6.6h-17.4c-3.7,0-6.6-3-6.6-6.6v-17.4
	C354.6,124,357.6,121.1,361.2,121.1z" />
    <path class="st2" d="M245.2,166.8h17.4c3.7,0,6.6,3,6.6,6.6v17.4c0,3.7-3,6.6-6.6,6.6h-17.4c-3.7,0-6.6-3-6.6-6.6v-17.4
	C238.6,169.7,241.6,166.8,245.2,166.8z" />
    <path class="st2" d="M322.6,166.8H340c3.7,0,6.6,3,6.6,6.6v17.4c0,3.7-3,6.6-6.6,6.6h-17.4c-3.7,0-6.6-3-6.6-6.6v-17.4
	C315.9,169.7,318.9,166.8,322.6,166.8z" />
    <path class="st2" d="M361.2,166.8h17.4c3.7,0,6.6,3,6.6,6.6v17.4c0,3.7-3,6.6-6.6,6.6h-17.4c-3.7,0-6.6-3-6.6-6.6v-17.4
	C354.6,169.7,357.6,166.8,361.2,166.8z" />
    <path class="st2" d="M322.6,212.5H340c3.7,0,6.6,3,6.6,6.6v17.4c0,3.7-3,6.6-6.6,6.6h-17.4c-3.7,0-6.6-3-6.6-6.6v-17.4
	C315.9,215.5,318.9,212.5,322.6,212.5z" />
    <path class="st2" d="M245.2,212.5h17.4c3.7,0,6.6,3,6.6,6.6v17.4c0,3.7-3,6.6-6.6,6.6h-17.4c-3.7,0-6.6-3-6.6-6.6v-17.4
	C238.6,215.5,241.6,212.5,245.2,212.5z" />
    <path class="st2" d="M245.2,258.2h17.4c3.7,0,6.6,3,6.6,6.6v17.4c0,3.7-3,6.6-6.6,6.6h-17.4c-3.7,0-6.6-3-6.6-6.6v-17.4
	C238.6,261.2,241.6,258.2,245.2,258.2z" />
    <path class="st2" d="M283.9,75.3h17.4c3.7,0,6.6,3,6.6,6.6v17.4c0,3.7-3,6.6-6.6,6.6h-17.4c-3.7,0-6.6-3-6.6-6.6V82
	C277.3,78.3,280.2,75.3,283.9,75.3z" />
    <path class="st2" d="M283.9,166.8h17.4c3.7,0,6.6,3,6.6,6.6v17.4c0,3.7-3,6.6-6.6,6.6h-17.4c-3.7,0-6.6-3-6.6-6.6v-17.4
	C277.3,169.7,280.2,166.8,283.9,166.8z" />
    <path class="st2" d="M283.9,212.5h17.4c3.7,0,6.6,3,6.6,6.6v17.4c0,3.7-3,6.6-6.6,6.6h-17.4c-3.7,0-6.6-3-6.6-6.6v-17.4
	C277.3,215.5,280.2,212.5,283.9,212.5z" />
    <path class="st2" d="M283,258.2h17.4c3.7,0,6.6,3,6.6,6.6v17.4c0,3.7-3,6.6-6.6,6.6H283c-3.7,0-6.6-3-6.6-6.6v-17.4
	C276.4,261.2,279.3,258.2,283,258.2z" />
    <path d="M303,141.4c0.2-0.7,0.3-1.5,0.3-2.2c0-0.9,0-1.8,0.1-2.7v-1.3c0-1.2-0.1-2.3-0.3-3.5c-0.3-1.4-1.1-2.3-2.4-2.6
	c-0.6-0.2-1.2-0.2-1.8-0.3c-1.7-0.1-3.5-0.2-5.2-0.2c-1.8,0-3.5,0-5.3,0.1c-1.1,0-2.3,0.1-3.4,0.3c-1.3,0.2-2.4,1.3-2.7,2.6
	c-0.2,1-0.3,2-0.3,3c0,1.2,0,2.4,0,3.7c0,0.9,0.1,1.8,0.3,2.7c0.2,0.9,0.6,1.7,1.4,2.2c0.5,0.4,1.1,0.6,1.7,0.6
	c0.9,0.1,1.8,0.2,2.7,0.3c1.7,0,3.3,0.1,5,0.1c1.6,0,3.1-0.1,4.7-0.2c0.9,0,1.9-0.1,2.8-0.3C301.7,143.5,302.6,142.7,303,141.4z
	 M290.5,139.8V133c2,1.1,3.9,2.3,5.9,3.4C294.4,137.5,292.4,138.6,290.5,139.8z" />
    <path d="M375.2,220.3c-1-1.1-2.3-1.8-3.7-2.1c-0.3-0.1-0.6-0.1-0.9-0.2h-1c-1.3,0.1-2.4,0.6-3.5,1.3c-1.1,0.9-2,2-2.4,3.3
	c-0.3,0.9-0.4,1.8-0.3,2.7c0.1,1.1,0.4,2,0.8,3c0.6,1.5,1.4,3,2.3,4.4c0.9,1.3,3.4,4.5,3.7,4.9c0.1,0,3.3-4.3,4.6-6.6
	c0.8-1.4,1.5-2.8,1.9-4.3c0.3-0.9,0.4-1.9,0.2-2.9C376.6,222.5,376,221.3,375.2,220.3z M370.1,227.7c-1.6,0-2.9-1.3-2.9-2.9
	c0-1.5,1.3-2.9,2.9-2.9c1.6,0,2.9,1.3,2.9,2.9C373,226.3,371.8,227.7,370.1,227.7z" />
    <g>
        <line class="st3" x1="310.3" y1="536.5" x2="310.4" y2="463.7" />
        <path class="st4" d="M315.7,462.7h-10.8c-0.3,0-0.5-0.2-0.5-0.5v-8.1c0-0.3,0.2-0.5,0.5-0.5h10.8c0.3,0,0.5,0.2,0.5,0.5v8.1
		C316.2,462.5,316,462.7,315.7,462.7z" />
        <path class="st5" d="M321.5,453.5h-22.5c-0.3,0-0.6-0.3-0.6-0.6v-19.5c0-0.3,0.3-0.6,0.6-0.6h22.5c0.3,0,0.6,0.3,0.6,0.6V453
		C322.1,453.3,321.9,453.5,321.5,453.5z" />
        <path class="st3" d="M315.8,432.9h-10.9c-0.2,0-0.3-0.2-0.3-0.3v-13.8c0-0.2,0.2-0.3,0.3-0.3h10.9c0.2,0,0.3,0.2,0.3,0.3v13.8
		C316.1,432.7,315.9,432.9,315.8,432.9z" />
    </g>
    <g>
        <path class="st0" d="M131.7,146.6v1l145,0c-0.1-0.3-0.2-0.7-0.3-1L131.7,146.6z" />
        <path d="M285.2,146.6h-8.9c0.1,0.3,0.2,0.7,0.3,1h8.6V146.6z" />
        <circle cx="285.2" cy="147.1" r="1.3" />
    </g>
    <g>
        <path class="st0" d="M314.7,450.9c-0.7,0-1.3-0.6-1.3-1.3c0-0.7,0.6-1.3,1.3-1.3c0.5,0,1,0.3,1.2,0.8h7.3v-15.7
		c0-0.9-0.7-1.6-1.6-1.6h-22.5c-0.9,0-1.6,0.7-1.6,1.6V453c0,0.9,0.7,1.6,1.6,1.6h22.5c0.9,0,1.6-0.7,1.6-1.6v-2.8h-7.3
		C315.7,450.6,315.3,450.9,314.7,450.9z" />
        <rect x="323.2" y="449.1" class="st0" width="165.9" height="1" />
        <path d="M315.9,449.1c0.1,0.2,0.1,0.3,0.1,0.5c0,0.2,0,0.3-0.1,0.5h7.3v-1H315.9z" />
        <path d="M314.7,448.4c-0.7,0-1.3,0.6-1.3,1.3c0,0.7,0.6,1.3,1.3,1.3c0.5,0,1-0.3,1.2-0.8h-1.2c0-0.3,0-0.7,0-1h1.2
		C315.7,448.7,315.3,448.4,314.7,448.4z" />
        <path d="M314.7,450.1h1.2c0.1-0.2,0.1-0.3,0.1-0.5c0-0.2,0-0.3-0.1-0.5h-1.2C314.7,449.5,314.7,449.8,314.7,450.1z" />
    </g>
    <g>
        <rect x="131.2" y="146.6" class="st0" width="1" height="77.8" />
        <rect x="131.2" y="271" class="st0" width="1" height="78.6" />
    </g>
    <g>
        <rect x="488.1" y="238" class="st0" width="1" height="84" />
        <rect x="488.1" y="369.5" class="st0" width="1" height="80.7" />
    </g>
    <rect x="52.7" y="114.4" class="st6" width="196.8" height="55.7" />
    <text transform="matrix(1 0 0 1 52.677 122.6839)">
        <tspan x="0" y="0" class="st0 st7 st8">Guardare per 10 minuti </tspan>
        <tspan x="0" y="13.8" class="st0 st7 st8">un video in streaming.</tspan>
    </text>
    <rect x="53.8" y="229.4" class="st6" width="156.6" height="55.7" />
    <text transform="matrix(1 0 0 1 53.8494 237.6772)">
        <tspan x="0" y="0" class="st0 st7 st8">Equivale a utilizzare un forno </tspan>
        <tspan x="0" y="13.8" class="st0 st7 st8">elettrico da 2.000 W a piena </tspan>
        <tspan x="0" y="27.6" class="st0 st7 st8">potenza per 3 minuti.</tspan>
    </text>
    <rect x="52.7" y="361.2" class="st6" width="148.9" height="27.8" />
    <text transform="matrix(1 0 0 1 52.677 369.5048)">
        <tspan x="0" y="0" class="st0 st7 st8">Srivere o inviare messaggi </tspan>
        <tspan x="0" y="13.8" class="st0 st7 st8">per 5 ore di seguito.</tspan>
    </text>
    <g>
        <rect x="449.3" y="189" class="st6" width="196.8" height="55.7" />
        <text transform="matrix(1 0 0 1 449.3387 197.2862)">
            <tspan x="0" y="0" class="st0 st7 st8">Utilizzare la geolocalizzazione</tspan>
            <tspan x="0" y="13.8" class="st0 st7 st8"> provoca un continuo flusso di dati </tspan>
            <tspan x="0" y="27.6" class="st0 st7 st8">relativo alla nostra posizione.</tspan>
        </text>
    </g>
    <g>
        <rect x="449.3" y="324.3" class="st6" width="196.8" height="45.2" />
        <text transform="matrix(1 0 0 1 449.3387 332.5537)">
            <tspan x="0" y="0" class="st0 st7 st8">Nel 2025 i Data Center</tspan>
            <tspan x="0" y="13.8" class="st0 st7 st8"> consumeranno quanto tutti </tspan>
            <tspan x="0" y="27.6" class="st0 st7 st8">i vicoli leggeri in circolazione.</tspan>
        </text>
    </g>
    <g>
        <rect x="449.3" y="459.5" class="st6" width="196.8" height="77" />
        <text transform="matrix(1 0 0 1 449.3387 467.8203)">
            <tspan x="0" y="0" class="st0 st7 st8">Ricaricare lo smartphone </tspan>
            <tspan x="0" y="13.8" class="st0 st7 st8">consuma in media 4kWh l’anno, </tspan>
            <tspan x="0" y="27.6" class="st0 st7 st8">0,00007 kWh ogni 10 minuti, </tspan>
            <tspan x="0" y="41.4" class="st0 st7 st8">ovvero 1500 volte in meno che </tspan>
            <tspan x="0" y="55.2" class="st0 st7 st8">guardare un video in streaming.</tspan>
        </text>
    </g>
</svg>