<svg xmlns="http://www.w3.org/2000/svg" viewBox="0 0 350.57 475.33">
  <g id="graph">
    <rect id="path0" x="249.54" width="101.03" height="303.7" fill="#1da1f2"/>
    <rect id="path1" width="248.32" height="303.7" fill="#1da1f2"/>
    <rect id="path2" x="163.11" y="304.92" width="187.46" height="170.41" fill="#1da1f2"/>
    <rect id="path3" x="69.38" y="304.92" width="92.51" height="111.99" fill="#188bd1"/>
    <rect id="path4" y="304.92" width="68.17" height="111.99" fill="#1272ad"/>
    <rect id="path5" x="33.47" y="418.12" width="128.42" height="57.21" fill="#126593"/>
    <rect id="path6" y="418.12" width="32.26" height="15.22" fill="#084266"/>
    <rect id="path7" y="434.56" width="32.26" height="40.78" fill="#0a537f"/>
  </g>
  <g id="text">
    <g>
      <path d="M12.51,16.16V20H11.23V10.94h6V12H12.51v3h3.73v1.08Z" fill="#fff"/>
      <path d="M18.21,20V13.05h1.14v1.42a2.14,2.14,0,0,1,1.84-1.6,2.72,2.72,0,0,1,.71.11v1.18a3.12,3.12,0,0,0-.77-.1,1.81,1.81,0,0,0-1.74,1.8V20Z" fill="#fff"/>
      <path d="M25.9,20.18a3.4,3.4,0,0,1-3.36-3.64,3.36,3.36,0,1,1,6.7,0A3.39,3.39,0,0,1,25.9,20.18Zm0-1c1.21,0,2.09-1.12,2.09-2.63s-.88-2.67-2.09-2.67S23.79,15,23.79,16.54,24.67,19.17,25.9,19.17Z" fill="#fff"/>
      <path d="M35.55,20V19a3,3,0,0,1-2.2,1.17c-1.73,0-3-1.51-3-3.6s1.29-3.71,3.08-3.71a2.78,2.78,0,0,1,2,.94V10.14h1.19V20Zm-.07-1.82V14.75a2.15,2.15,0,0,0-1.78-.87c-1.2,0-2.06,1.13-2.06,2.69s.82,2.62,2,2.62A2.33,2.33,0,0,0,35.48,18.18Z" fill="#fff"/>
      <path d="M41.56,20.18a3.32,3.32,0,0,1-3.25-3.6c0-2.14,1.37-3.71,3.2-3.71a2.86,2.86,0,0,1,2.9,3,5,5,0,0,1-.07.87H39.55c.08,1.46.92,2.42,2.08,2.42a2,2,0,0,0,1.78-1.15l1,.37A3,3,0,0,1,41.56,20.18Zm-1.94-4.35h3.61c0-1.21-.73-2-1.7-2S39.83,14.62,39.62,15.83Z" fill="#fff"/>
      <path d="M52,20.18a3.32,3.32,0,0,1-3.25-3.6c0-2.14,1.37-3.71,3.21-3.71a2.86,2.86,0,0,1,2.89,3,4.18,4.18,0,0,1-.07.87H50c.09,1.46.92,2.42,2.08,2.42a2,2,0,0,0,1.78-1.15l1,.37A3,3,0,0,1,52,20.18Zm-1.94-4.35h3.61c0-1.21-.72-2-1.7-2S50.29,14.62,50.08,15.83Z" fill="#fff"/>
      <path d="M57.72,20H56.53V10.14h1.19Z" fill="#fff"/>
      <path d="M62.61,20.18a3.32,3.32,0,0,1-3.25-3.6c0-2.14,1.37-3.71,3.2-3.71a2.86,2.86,0,0,1,2.9,3,5,5,0,0,1-.07.87H60.6c.08,1.46.92,2.42,2.08,2.42a2,2,0,0,0,1.78-1.15l1,.37A3,3,0,0,1,62.61,20.18Zm-1.94-4.35h3.61c0-1.21-.73-2-1.7-2S60.88,14.62,60.67,15.83Z" fill="#fff"/>
      <path d="M69.56,20.18c-1.38,0-2.2-.7-2.2-1.92V14h-1v-1h1V11.36h1.18v1.69h2.4v1h-2.4v4c0,.66.35,1.09,1.23,1.09A3.56,3.56,0,0,0,71,19v1A4.92,4.92,0,0,1,69.56,20.18Z" fill="#fff"/>
      <path d="M74.81,20.18c-1.38,0-2.2-.7-2.2-1.92V14h-1v-1h1V11.36h1.18v1.69h2.4v1h-2.4v4c0,.66.35,1.09,1.23,1.09a3.56,3.56,0,0,0,1.21-.2v1A4.81,4.81,0,0,1,74.81,20.18Z" fill="#fff"/>
      <path d="M80.33,20.18A3.4,3.4,0,0,1,77,16.54a3.36,3.36,0,1,1,6.7,0A3.39,3.39,0,0,1,80.33,20.18Zm0-1c1.21,0,2.09-1.12,2.09-2.63s-.88-2.67-2.09-2.67S78.22,15,78.22,16.54,79.1,19.17,80.33,19.17Z" fill="#fff"/>
      <path d="M85.3,20V13.05h1.14v1.42a2.14,2.14,0,0,1,1.84-1.6A2.65,2.65,0,0,1,89,13v1.18a3,3,0,0,0-.76-.1,1.81,1.81,0,0,0-1.74,1.8V20Z" fill="#fff"/>
      <path d="M95.36,20.18A1.38,1.38,0,0,1,93.9,19a2.48,2.48,0,0,1-2.19,1.22,1.92,1.92,0,0,1-2.1-1.89c0-1.29,1.08-2,2.61-2.22l1.62-.2v-.55a1.35,1.35,0,0,0-1.41-1.45A1.91,1.91,0,0,0,90.72,15l-.92-.37a3,3,0,0,1,2.75-1.77A2.28,2.28,0,0,1,95,15.36v3.2a.6.6,0,0,0,.62.67,1.55,1.55,0,0,0,.31,0l-.06.91A1.77,1.77,0,0,1,95.36,20.18Zm-1.52-2.11V16.79L92.43,17c-.92.11-1.58.53-1.58,1.25a1.06,1.06,0,0,0,1.18,1A2.1,2.1,0,0,0,93.84,18.07Z" fill="#fff"/>
      <path d="M98.41,20H97.23V10.14h1.18Z" fill="#fff"/>
      <path d="M103.3,20.18a3.32,3.32,0,0,1-3.25-3.6c0-2.14,1.37-3.71,3.21-3.71a2.86,2.86,0,0,1,2.9,3,5,5,0,0,1-.07.87H101.3c.08,1.46.91,2.42,2.07,2.42a2,2,0,0,0,1.78-1.15l.95.37A3,3,0,0,1,103.3,20.18Zm-1.94-4.35H105c0-1.21-.72-2-1.7-2S101.57,14.62,101.36,15.83Z" fill="#fff"/>
    </g>
    <g>
      <path d="M10.72,40V37.6l4.25-3c1.25-.9,2.08-1.59,2.08-2.42a1.44,1.44,0,0,0-1.6-1.3A2.74,2.74,0,0,0,13,32.63L10.5,31.4A5.87,5.87,0,0,1,16,28c2.76,0,4.8,1.58,4.8,3.81,0,2-1.49,3.19-3,4.09l-2,1.19h5.72V40Z" fill="#fff"/>
      <path d="M28.08,40H24l5.15-8.62H22.52V28.3H33v2.79Z" fill="#fff"/>
      <path d="M34.17,40V37.6l4.25-3c1.25-.9,2.08-1.59,2.08-2.42a1.44,1.44,0,0,0-1.6-1.3,2.74,2.74,0,0,0-2.45,1.78L34,31.4A5.87,5.87,0,0,1,39.47,28c2.76,0,4.79,1.58,4.79,3.81,0,2-1.48,3.19-3,4.09l-2,1.19H45V40Z" fill="#fff"/>
    </g>
    <g>
      <path d="M260.76,20V10.94h2.88c2.07,0,3.43,1.24,3.43,3a3.09,3.09,0,0,1-3.41,3.09H262V20ZM262,16h1.49a2,2,0,1,0,0-3.93H262Z" fill="#fff"/>
      <path d="M268.59,20V13.05h1.14v1.42a2.14,2.14,0,0,1,1.84-1.6,2.65,2.65,0,0,1,.71.11v1.18a3,3,0,0,0-.76-.1,1.81,1.81,0,0,0-1.74,1.8V20Z" fill="#fff"/>
      <path d="M276.28,20.18a3.41,3.41,0,0,1-3.36-3.64,3.37,3.37,0,1,1,6.71,0A3.39,3.39,0,0,1,276.28,20.18Zm0-1c1.21,0,2.09-1.12,2.09-2.63s-.88-2.67-2.09-2.67-2.1,1.13-2.1,2.67S275.05,19.17,276.28,19.17Z" fill="#fff"/>
      <path d="M284.47,20.18a2.63,2.63,0,0,1-2-.91v3.28h-1.19v-9.5h1.15v1a2.65,2.65,0,0,1,2.2-1.22c1.63,0,3,1.5,3,3.63S286.22,20.18,284.47,20.18Zm1.84-3.68c0-1.6-.86-2.65-2-2.65A2.31,2.31,0,0,0,282.44,15v3.37a2.46,2.46,0,0,0,1.8.86C285.45,19.19,286.31,18.08,286.31,16.5Z" fill="#fff"/>
      <path d="M294.38,20.18A1.38,1.38,0,0,1,292.92,19a2.48,2.48,0,0,1-2.19,1.22,1.92,1.92,0,0,1-2.1-1.89c0-1.29,1.08-2,2.61-2.22l1.62-.2v-.55a1.35,1.35,0,0,0-1.41-1.45A1.91,1.91,0,0,0,289.74,15l-.92-.37a3,3,0,0,1,2.74-1.77,2.29,2.29,0,0,1,2.49,2.49v3.2a.6.6,0,0,0,.62.67,1.71,1.71,0,0,0,.31,0l-.06.91A1.81,1.81,0,0,1,294.38,20.18Zm-1.52-2.11V16.79l-1.41.17c-.92.11-1.58.53-1.58,1.25a1.06,1.06,0,0,0,1.18,1A2.11,2.11,0,0,0,292.86,18.07Z" fill="#fff"/>
      <path d="M298.74,22.73c-1.94,0-3.2-.67-3.2-1.82,0-.63.62-1.26,1.49-1.62-.35-.19-.55-.42-.55-.7a1.78,1.78,0,0,1,.82-1.11,2.34,2.34,0,0,1-1.47-2.14,2.59,2.59,0,0,1,2.76-2.47,2.94,2.94,0,0,1,2,.72,2.34,2.34,0,0,1,1.94-1v1.06A3.63,3.63,0,0,0,301,14a2.39,2.39,0,0,1,.44,1.39,2.52,2.52,0,0,1-2.73,2.34,3.67,3.67,0,0,1-.75-.08,1,1,0,0,0-.29.56c0,.21.34.37,1.32.46l1,.08c1.58.14,2.32.67,2.32,1.68C302.24,21.78,300.88,22.73,298.74,22.73Zm2.33-2.08c0-.51-.28-.77-1.4-.87l-1-.09a6.06,6.06,0,0,1-1-.15,1.47,1.47,0,0,0-1,1.19c0,.62.74,1.09,2,1.09S301.07,21.3,301.07,20.65Zm-2.47-3.8a1.52,1.52,0,0,0,1.62-1.5,1.57,1.57,0,0,0-1.62-1.57A1.55,1.55,0,0,0,297,15.35,1.5,1.5,0,0,0,298.6,16.85Z" fill="#fff"/>
      <path d="M308.91,20.18A1.39,1.39,0,0,1,307.45,19a2.48,2.48,0,0,1-2.19,1.22,1.92,1.92,0,0,1-2.1-1.89c0-1.29,1.08-2,2.62-2.22l1.61-.2v-.55A1.35,1.35,0,0,0,306,13.87,1.91,1.91,0,0,0,304.27,15l-.92-.37a3,3,0,0,1,2.75-1.77,2.28,2.28,0,0,1,2.48,2.49v3.2a.6.6,0,0,0,.62.67,1.55,1.55,0,0,0,.31,0l-.06.91A1.77,1.77,0,0,1,308.91,20.18Zm-1.52-2.11V16.79L306,17c-.92.11-1.58.53-1.58,1.25a1.06,1.06,0,0,0,1.18,1A2.1,2.1,0,0,0,307.39,18.07Z" fill="#fff"/>
      <path d="M315.4,20V15.49a1.47,1.47,0,0,0-1.48-1.61A2.48,2.48,0,0,0,312,15v5h-1.18V13.05h1.14v1.07a2.87,2.87,0,0,1,2.28-1.25,2.4,2.4,0,0,1,2.39,2.54V20Z" fill="#fff"/>
      <path d="M323.33,20V19a3,3,0,0,1-2.2,1.17c-1.73,0-3-1.51-3-3.6s1.29-3.71,3.07-3.71a2.79,2.79,0,0,1,2,.94V10.14h1.18V20Zm-.07-1.82V14.75a2.17,2.17,0,0,0-1.79-.87c-1.19,0-2.06,1.13-2.06,2.69s.83,2.62,2,2.62A2.33,2.33,0,0,0,323.26,18.18Z" fill="#fff"/>
      <path d="M331.77,20.18A1.39,1.39,0,0,1,330.31,19a2.46,2.46,0,0,1-2.19,1.22,1.92,1.92,0,0,1-2.1-1.89c0-1.29,1.08-2,2.62-2.22l1.61-.2v-.55a1.34,1.34,0,0,0-1.4-1.45A1.91,1.91,0,0,0,327.13,15l-.92-.37A3,3,0,0,1,329,12.87a2.28,2.28,0,0,1,2.48,2.49v3.2a.6.6,0,0,0,.62.67,1.55,1.55,0,0,0,.31,0l-.06.91A1.77,1.77,0,0,1,331.77,20.18Zm-1.52-2.11V16.79l-1.4.17c-.92.11-1.59.53-1.59,1.25a1.06,1.06,0,0,0,1.18,1A2.1,2.1,0,0,0,330.25,18.07Z" fill="#fff"/>
    </g>
    <g>
      <path d="M267.29,28.3v8.86h2.8V40H260.5V37.16h3.17V31.58l-2.75,1L260,30.08l4.48-1.78Z" fill="#fff"/>
      <path d="M278.17,28.3v8.86H281V40h-9.59V37.16h3.17V31.58l-2.75,1-.92-2.49,4.49-1.78Z" fill="#fff"/>
      <path d="M289.05,28.3v8.86h2.8V40h-9.59V37.16h3.18V31.58l-2.76,1-.92-2.49,4.49-1.78Z" fill="#fff"/>
    </g>
    <g>
      <path d="M174.34,324.92v-9.06h6V317h-4.75v2.88h3.9v1.09h-3.9v2.87h4.85v1.11Z" fill="#fff"/>
      <path d="M183.31,324.92h-1.18v-9.86h1.18Z" fill="#fff"/>
      <path d="M188.2,325.1a3.32,3.32,0,0,1-3.25-3.6c0-2.14,1.37-3.71,3.21-3.71a2.86,2.86,0,0,1,2.89,3,5.14,5.14,0,0,1-.06.87h-4.8c.09,1.46.92,2.42,2.08,2.42a2,2,0,0,0,1.78-1.15l.95.37A3,3,0,0,1,188.2,325.1Zm-1.94-4.35h3.61c0-1.21-.72-2-1.7-2S186.47,319.54,186.26,320.75Z" fill="#fff"/>
      <path d="M192.24,318h5.24v.93l-3.92,5h4v1h-5.41V324l3.82-5h-3.72Z" fill="#fff"/>
      <path d="M200.29,316.6h-1.18v-1.39h1.18Zm0,8.32h-1.18V318h1.18Z" fill="#fff"/>
      <path d="M205.28,325.1a3.67,3.67,0,1,1,3.34-3.64A3.4,3.4,0,0,1,205.28,325.1Zm0-1c1.21,0,2.09-1.13,2.09-2.64s-.88-2.67-2.09-2.67-2.1,1.13-2.1,2.67S204.05,324.1,205.28,324.1Z" fill="#fff"/>
      <path d="M214.88,324.92v-4.51a1.47,1.47,0,0,0-1.48-1.61,2.48,2.48,0,0,0-2,1.08v5h-1.19V318h1.15V319a2.86,2.86,0,0,1,2.28-1.25,2.39,2.39,0,0,1,2.38,2.54v4.59Z" fill="#fff"/>
      <path d="M219.31,316.6h-1.19v-1.39h1.19Zm0,8.32h-1.19V318h1.19Z" fill="#fff"/>
    </g>
    <g>
      <path d="M180.86,333.22v8.86h2.81v2.84h-9.59v-2.84h3.17V336.5l-2.76,1-.92-2.49,4.49-1.78Z" fill="#fff"/>
      <path d="M191.74,333.22v8.86h2.81v2.84H185v-2.84h3.17V336.5l-2.76,1-.92-2.49,4.49-1.78Z" fill="#fff"/>
      <path d="M201.73,345.23c-3.62,0-6.22-2.29-6.2-6a6.06,6.06,0,0,1,6.39-6.31,6.28,6.28,0,0,1,5.15,2.31l-2.34,1.43a3.45,3.45,0,0,0-2.65-1.21c-1.54,0-2.52,1-2.78,2.79a6.16,6.16,0,0,1,3.41-1c2.72,0,4.67,1.59,4.67,3.77C207.38,343.45,204.92,345.23,201.73,345.23Zm1.88-4.09c0-.82-.68-1.43-2-1.43a3.58,3.58,0,0,0-2.32.81,2.42,2.42,0,0,0,2.37,2.18A1.7,1.7,0,0,0,203.61,341.14Z" fill="#fff"/>
    </g>
    <g>
      <path d="M84.16,325.74c-2.4,0-4.11-1.94-4.11-4.61s1.73-4.78,4.13-4.78a3.92,3.92,0,0,1,3.49,2.41l-1.14.45a2.68,2.68,0,0,0-2.3-1.72c-1.64,0-2.83,1.52-2.83,3.64s1.19,3.47,2.82,3.47a2.78,2.78,0,0,0,2.42-1.76l1.09.42A3.93,3.93,0,0,1,84.16,325.74Z" fill="#fff"/>
      <path d="M92.06,325.75a3.67,3.67,0,1,1,3.34-3.64A3.4,3.4,0,0,1,92.06,325.75Zm0-1c1.21,0,2.09-1.12,2.09-2.63s-.88-2.68-2.09-2.68-2.1,1.14-2.1,2.68S90.83,324.74,92.06,324.74Z" fill="#fff"/>
      <path d="M97.41,318.62,99.25,324h0l1.84-5.41h1.2l-2.48,6.95H98.62l-2.49-6.95Z" fill="#fff"/>
      <path d="M104.89,317.25h-1.18v-1.39h1.18Zm0,8.32h-1.18v-6.95h1.18Z" fill="#fff"/>
      <path d="M111.72,325.57v-1a3,3,0,0,1-2.2,1.17c-1.73,0-3-1.51-3-3.6s1.29-3.71,3.08-3.71a2.78,2.78,0,0,1,2,.94v-3.67h1.18v9.86Zm-.07-1.82v-3.43a2.14,2.14,0,0,0-1.78-.87c-1.2,0-2.07,1.13-2.07,2.69s.83,2.62,2,2.62A2.33,2.33,0,0,0,111.65,323.75Z" fill="#fff"/>
      <path d="M120.93,325.75a3.32,3.32,0,0,1-3.25-3.6c0-2.14,1.37-3.71,3.2-3.71a2.86,2.86,0,0,1,2.9,3,4.18,4.18,0,0,1-.07.87h-4.79c.08,1.45.92,2.42,2.08,2.42a2,2,0,0,0,1.78-1.15l1,.37A3,3,0,0,1,120.93,325.75ZM119,321.4h3.61c0-1.21-.73-2-1.7-2S119.2,320.19,119,321.4Z" fill="#fff"/>
      <path d="M81,332.62,82.8,338h0l1.84-5.41h1.2l-2.49,6.95H82.17l-2.49-6.95Z" fill="#fff"/>
      <path d="M92.27,339.75a1.38,1.38,0,0,1-1.46-1.22,2.48,2.48,0,0,1-2.19,1.22,1.92,1.92,0,0,1-2.1-1.89c0-1.29,1.08-2,2.61-2.23l1.62-.19v-.55a1.36,1.36,0,0,0-1.41-1.46,1.92,1.92,0,0,0-1.71,1.15l-.92-.37a3,3,0,0,1,2.75-1.77,2.28,2.28,0,0,1,2.48,2.49v3.2a.6.6,0,0,0,.62.67,1.55,1.55,0,0,0,.31,0l-.06.91A2.14,2.14,0,0,1,92.27,339.75Zm-1.52-2.11v-1.28l-1.41.17c-.91.11-1.58.53-1.58,1.25a1.06,1.06,0,0,0,1.18,1A2.1,2.1,0,0,0,90.75,337.64Z" fill="#fff"/>
      <path d="M96.8,339.75c-1.84,0-3.17-1.51-3.17-3.6s1.31-3.71,3.13-3.71a2.83,2.83,0,0,1,2.68,1.83l-1,.43a1.76,1.76,0,0,0-1.63-1.25c-1.1,0-1.89,1.13-1.89,2.7s.82,2.58,2,2.58a1.82,1.82,0,0,0,1.66-1.26l1,.39A2.92,2.92,0,0,1,96.8,339.75Z" fill="#fff"/>
      <path d="M103.6,339.75c-1.84,0-3.17-1.51-3.17-3.6s1.31-3.71,3.12-3.71a2.83,2.83,0,0,1,2.69,1.83l-1,.43a1.76,1.76,0,0,0-1.63-1.25c-1.1,0-1.89,1.13-1.89,2.7s.82,2.58,2,2.58a1.83,1.83,0,0,0,1.66-1.26l1,.39A2.92,2.92,0,0,1,103.6,339.75Z" fill="#fff"/>
      <path d="M108.92,331.25h-1.19v-1.39h1.19Zm0,8.32h-1.19v-6.95h1.19Z" fill="#fff"/>
      <path d="M115.69,339.57v-4.51a1.47,1.47,0,0,0-1.48-1.61,2.48,2.48,0,0,0-2,1.08v5h-1.19v-6.95h1.15v1.07a2.86,2.86,0,0,1,2.28-1.25,2.39,2.39,0,0,1,2.38,2.54v4.59Z" fill="#fff"/>
      <path d="M120.12,331.25h-1.19v-1.39h1.19Zm0,8.32h-1.19v-6.95h1.19Z" fill="#fff"/>
    </g>
    <g>
      <path d="M85.6,359.88c-2.58,0-4.86-.9-5.89-2.73l2.52-1.34a3.33,3.33,0,0,0,2.89,1.28c1.36,0,2.19-.53,2.19-1.28s-.72-1-2-1H83v-2.23h2.19c1.09,0,1.73-.43,1.73-1.07s-.79-1.17-1.89-1.17a2.87,2.87,0,0,0-2.52,1.3L80,350.26a6.23,6.23,0,0,1,5.56-2.72c2.94,0,5.08,1.32,5.08,3.19a2.79,2.79,0,0,1-2.41,2.59v.09c1.62.33,2.81,1.3,2.81,2.86C91.08,358.41,88.84,359.88,85.6,359.88Z" fill="#fff"/>
      <path d="M98.36,359.88c-3.63,0-6-1.43-6-3.37,0-1.16.88-2.09,2.48-2.59a2.91,2.91,0,0,1-2.08-2.67c0-2.17,2.4-3.69,5.75-3.69s5.61,1.45,5.61,3.36a2.75,2.75,0,0,1-2,2.47c1.62.64,2.27,1.52,2.27,2.75C104.36,358.38,102,359.88,98.36,359.88Zm2.28-3.7c0-.63-.68-1.08-2.69-1.41-.31,0-.59-.1-.88-.15a1.81,1.81,0,0,0-1,1.45c0,.82,1,1.3,2.37,1.3S100.64,356.91,100.64,356.18Zm-.9-3.41a1.68,1.68,0,0,0,.7-1.3c0-.87-.91-1.4-2.12-1.4s-2,.48-2,1.18.61,1.06,2.91,1.43Z" fill="#fff"/>
    </g>
    <g>
      <path d="M10.24,324.92l3.37-9.06H15l3.37,9.06H17l-.92-2.56H12.41l-.92,2.56Zm2.57-3.65h2.9l-1.43-4h0Z" fill="#fff"/>
      <path d="M20.87,324.92H19.68v-9.86h1.19Z" fill="#fff"/>
      <path d="M25.52,325.1c-1.38,0-2.2-.7-2.2-1.92V319h-1v-1h1v-1.69H24.5V318h2.4v1H24.5v4c0,.66.35,1.09,1.23,1.09a3.84,3.84,0,0,0,1.21-.19v1A4.86,4.86,0,0,1,25.52,325.1Z" fill="#fff"/>
      <path d="M28.26,324.92V318h1.15v1.42a2.14,2.14,0,0,1,1.84-1.6,2.72,2.72,0,0,1,.71.11v1.18a3.12,3.12,0,0,0-.77-.1,1.81,1.81,0,0,0-1.74,1.8v4.14Z" fill="#fff"/>
      <path d="M36,325.1a3.67,3.67,0,1,1,3.34-3.64A3.4,3.4,0,0,1,36,325.1Zm0-1c1.21,0,2.08-1.13,2.08-2.64s-.87-2.67-2.08-2.67-2.11,1.13-2.11,2.67S34.73,324.1,36,324.1Z" fill="#fff"/>
    </g>
    <g>
      <path d="M10.72,344.92v-2.4l4.25-3c1.25-.9,2.08-1.59,2.08-2.42a1.44,1.44,0,0,0-1.6-1.3A2.74,2.74,0,0,0,13,337.55l-2.5-1.23A5.87,5.87,0,0,1,16,332.91c2.76,0,4.8,1.58,4.8,3.81,0,2-1.49,3.19-3,4.09l-2,1.19h5.72v2.92Z" fill="#fff"/>
      <path d="M28.78,345.23c-3.63,0-6-1.43-6-3.37,0-1.16.88-2.09,2.48-2.59a2.92,2.92,0,0,1-2.09-2.66c0-2.18,2.41-3.7,5.76-3.7s5.61,1.45,5.61,3.37a2.74,2.74,0,0,1-2,2.46c1.62.64,2.27,1.52,2.27,2.75C34.78,343.73,32.38,345.23,28.78,345.23Zm2.28-3.7c0-.63-.68-1.07-2.69-1.4l-.88-.16a1.81,1.81,0,0,0-1,1.45c0,.82,1,1.3,2.37,1.3S31.06,342.26,31.06,341.53Zm-.9-3.41a1.68,1.68,0,0,0,.7-1.29c0-.88-.91-1.41-2.12-1.41s-2,.48-2,1.19.61,1.05,2.91,1.43Z" fill="#fff"/>
    </g>
    <g>
      <path d="M44.7,438.13v-9.07h2.88c2.07,0,3.43,1.25,3.43,3a3.09,3.09,0,0,1-3.41,3.1H46v2.93Zm1.28-4h1.49a2,2,0,0,0,2.23-2,2,2,0,0,0-2.23-1.93H46Z" fill="#fff"/>
      <path d="M55.37,438.31a3.67,3.67,0,1,1,3.35-3.64A3.41,3.41,0,0,1,55.37,438.31Zm0-1c1.21,0,2.09-1.12,2.09-2.63S56.58,432,55.37,432s-2.1,1.13-2.1,2.68S54.15,437.3,55.37,437.3Z" fill="#fff"/>
      <path d="M61.53,438.13H60.35v-9.87h1.18Z" fill="#fff"/>
      <path d="M66.18,438.31c-1.38,0-2.2-.7-2.2-1.92v-4.23H63v-1h1v-1.7h1.19v1.7h2.39v1H65.17v4c0,.66.34,1.09,1.22,1.09a3.84,3.84,0,0,0,1.21-.19v1A4.77,4.77,0,0,1,66.18,438.31Z" fill="#fff"/>
      <path d="M70.11,429.8H68.93v-1.38h1.18Zm0,8.33H68.93v-6.95h1.18Z" fill="#fff"/>
      <path d="M74.92,438.31c-1.84,0-3.16-1.52-3.16-3.6S73.07,431,74.88,431a2.85,2.85,0,0,1,2.69,1.83l-1,.42A1.78,1.78,0,0,0,74.9,432c-1.1,0-1.89,1.14-1.89,2.71s.82,2.57,1.95,2.57A1.82,1.82,0,0,0,76.62,436l1,.4A2.9,2.9,0,0,1,74.92,438.31Z" fill="#fff"/>
      <path d="M84.24,438.31a1.38,1.38,0,0,1-1.46-1.22,2.5,2.5,0,0,1-2.19,1.22,1.93,1.93,0,0,1-2.1-1.89c0-1.29,1.08-2,2.61-2.23l1.62-.2v-.54A1.36,1.36,0,0,0,81.31,432a1.9,1.9,0,0,0-1.71,1.15l-.92-.38A3,3,0,0,1,81.43,431a2.28,2.28,0,0,1,2.47,2.49v3.19a.6.6,0,0,0,.63.67l.31,0-.06.91A2.21,2.21,0,0,1,84.24,438.31Zm-1.52-2.12v-1.27l-1.41.17c-.92.11-1.59.53-1.59,1.24a1.07,1.07,0,0,0,1.19,1A2.1,2.1,0,0,0,82.72,436.19Z" fill="#fff"/>
      <path d="M92.05,438.31a3.31,3.31,0,0,1-3.24-3.6c0-2.15,1.36-3.71,3.2-3.71a2.86,2.86,0,0,1,2.9,3,5,5,0,0,1-.07.87H90.05c.08,1.46.92,2.43,2.07,2.43a2,2,0,0,0,1.79-1.15l.94.36A3,3,0,0,1,92.05,438.31ZM90.12,434h3.61c0-1.2-.73-2-1.7-2S90.33,432.75,90.12,434Z" fill="#fff"/>
      <path d="M99.05,438.31a3.22,3.22,0,0,1-3.17-1.8l1-.37a2.36,2.36,0,0,0,2.24,1.2c1,0,1.61-.43,1.61-1.06s-.66-.9-1.84-1.15c-1.54-.33-2.66-.88-2.66-2.09s1.11-2,2.74-2a2.94,2.94,0,0,1,2.86,1.68l-1,.37A2,2,0,0,0,98.94,432c-.92,0-1.58.4-1.58,1s.67.83,1.84,1.09c1.56.34,2.65.87,2.65,2.16S100.8,438.31,99.05,438.31Z" fill="#fff"/>
      <path d="M105.92,438.31c-1.38,0-2.2-.7-2.2-1.92v-4.23h-1v-1h1v-1.7h1.18v1.7h2.4v1h-2.4v4c0,.66.35,1.09,1.23,1.09a3.84,3.84,0,0,0,1.21-.19v1A4.89,4.89,0,0,1,105.92,438.31Z" fill="#fff"/>
      <path d="M111.34,438.31a3.32,3.32,0,0,1-3.25-3.6c0-2.15,1.37-3.71,3.2-3.71a2.86,2.86,0,0,1,2.9,3,5,5,0,0,1-.07.87h-4.79c.08,1.46.92,2.43,2.08,2.43a2,2,0,0,0,1.78-1.15l1,.36A3,3,0,0,1,111.34,438.31ZM109.4,434H113c0-1.2-.73-2-1.7-2S109.61,432.75,109.4,434Z" fill="#fff"/>
      <path d="M115.85,438.13v-6.95H117v1.41a2.13,2.13,0,0,1,1.84-1.59,2.3,2.3,0,0,1,.71.11v1.17a3.6,3.6,0,0,0-.76-.09A1.81,1.81,0,0,0,117,434v4.15Z" fill="#fff"/>
      <path d="M125.91,438.31a1.38,1.38,0,0,1-1.46-1.22,2.5,2.5,0,0,1-2.19,1.22,1.93,1.93,0,0,1-2.1-1.89c0-1.29,1.08-2,2.61-2.23l1.62-.2v-.54A1.36,1.36,0,0,0,123,432a1.9,1.9,0,0,0-1.71,1.15l-.92-.38a3,3,0,0,1,2.74-1.76,2.28,2.28,0,0,1,2.48,2.49v3.19a.6.6,0,0,0,.63.67l.31,0-.06.91A2.21,2.21,0,0,1,125.91,438.31Zm-1.52-2.12v-1.27l-1.41.17c-.92.11-1.59.53-1.59,1.24a1.07,1.07,0,0,0,1.19,1A2.11,2.11,0,0,0,124.39,436.19Z" fill="#fff"/>
    </g>
    <g>
      <path d="M44.2,458.13v-2.4l4.25-3c1.24-.9,2.08-1.58,2.08-2.42a1.45,1.45,0,0,0-1.6-1.3,2.75,2.75,0,0,0-2.46,1.79L44,449.52a5.87,5.87,0,0,1,5.52-3.41c2.76,0,4.79,1.59,4.79,3.81,0,2-1.49,3.19-3,4.09l-2,1.19H55v2.93Z" fill="#fff"/>
      <path d="M61.56,458.13H57.51l5.14-8.63H56v-3.08H66.44v2.8Z" fill="#fff"/>
    </g>
  </g>
  <g id="copertinaTM">
    <rect id="path1-2" data-name="path1" width="350.57" height="475.33" fill="#1da1f2"/>
    <text transform="translate(70.15 293.75)" font-size="14" fill="#fff" font-family="Sole24Sans-Regular, Sole24Sans"><tspan letter-spacing="-0.05em">T</tspan><tspan x="6.93" y="0" letter-spacing="0em">w</tspan><tspan x="16.51" y="0" letter-spacing="0em">e</tspan><tspan x="23.8" y="0" letter-spacing="0em">e</tspan><tspan x="31.02" y="0">ts pubblicati nell’ultimo mese</tspan></text>
    <text transform="translate(74.26 265.54)" font-size="120" fill="#fff" font-family="Sole24Sans-Bold, Sole24Sans" font-weight="700">579</text>
  </g>
</svg>
