<svg xmlns="http://www.w3.org/2000/svg" viewBox="0 0 374.59 667.47">
  <g id="elezpresactive">
    <rect id="path0" x="112.8" width="261.8" height="434.5" fill="#f54263"/>
    <rect id="path1" width="110.8" height="434.5" fill="#f32f52"/>
    <rect id="path2" y="436.5" width="374.59" height="123.28" fill="#ff5b65"/>
    <text transform="translate(10 20)" font-size="14" fill="#fff" font-family="Sole24Sans-Regular, Sole24Sans">P<tspan x="8.02" y="0" letter-spacing="-0.01em">r</tspan><tspan x="12.89" y="0">opa</tspan><tspan x="35.81" y="0" letter-spacing="0em">g</tspan><tspan x="43.33" y="0" letter-spacing="0em">anda</tspan><tspan font-size="24" font-family="Sole24Sans-Bold, Sole24Sans" font-weight="700"><tspan x="0" y="22">111</tspan></tspan></text>
    <text transform="translate(10 456.5)" font-size="14" fill="#fff" font-family="Sole24Sans-Regular, Sole24Sans">Elezioni<tspan font-size="24" font-family="Sole24Sans-Bold, Sole24Sans" font-weight="700"><tspan x="0" y="22">116</tspan></tspan></text>
    <text transform="translate(122.8 20)" font-size="14" fill="#fff" font-family="Sole24Sans-Regular, Sole24Sans"><tspan letter-spacing="-0.03em">F</tspan><tspan x="7.17" y="0" letter-spacing="-0.01em">r</tspan><tspan x="12.04" y="0">ode el</tspan><tspan x="49.03" y="0" letter-spacing="-0.01em">e</tspan><tspan x="56.25" y="0" letter-spacing="0em">t</tspan><tspan x="61.53" y="0" letter-spacing="0em">t</tspan><tspan x="66.74" y="0">o</tspan><tspan x="74.59" y="0" letter-spacing="-0.01em">r</tspan><tspan x="79.49" y="0">ale</tspan><tspan font-size="24" font-family="Sole24Sans-Bold, Sole24Sans" font-weight="700"><tspan x="0" y="22">272</tspan></tspan></text>
  </g>
  <g id="elezionipres2020">
    <rect id="path0-2" data-name="path0" width="374.59" height="559.78" fill="#1da1f2"/>
    <text transform="translate(10 20)" font-size="14" fill="#fff" font-family="Sole24Sans-Regular, Sole24Sans">Elezioni p<tspan x="58.7" y="0" letter-spacing="-0.01em">r</tspan><tspan x="63.57" y="0">esidenziali 2020</tspan></text>
  </g>
  <g id="Layer_1" data-name="Layer 1">
    <rect id="path1-2" data-name="path1" x="148.93" y="561.78" width="107.91" height="105.68" fill="#1888cd"/>
    <rect id="path2-2" data-name="path2" x="258.83" y="561.78" width="87.75" height="105.68" fill="#137ab9"/>
    <rect id="path4" x="348.58" y="561.78" width="26.01" height="28.77" fill="#106397"/>
    <rect id="path5" x="348.58" y="592.55" width="26.01" height="74.92" fill="#126fa9"/>
    <rect id="path3" y="561.78" width="146.93" height="105.68" fill="#1d94dd"/>
    <text transform="translate(10 581.78)" font-size="14" fill="#fff" font-family="Sole24Sans-Regular, Sole24Sans">C<tspan x="8.81" y="0" letter-spacing="-0.01em">o</tspan><tspan x="16.53" y="0">vid e</tspan><tspan x="45.21" y="0" letter-spacing="-0.02em"> </tspan><tspan x="48.16" y="0" letter-spacing="-0.01em">v</tspan><tspan x="54.82" y="0">accini</tspan></text>
    <text transform="translate(158.93 581.78)" font-size="14" fill="#fff" font-family="Sole24Sans-Regular, Sole24Sans">Alt<tspan x="17.28" y="0" letter-spacing="-0.01em">r</tspan><tspan x="22.15" y="0">o</tspan></text>
    <text transform="translate(268.83 581.78)" font-size="14" fill="#fff" font-family="Sole24Sans-Regular, Sole24Sans">Politica <tspan x="0" y="16.8">e</tspan><tspan x="7.29" y="16.8" letter-spacing="0em">s</tspan><tspan x="14.17" y="16.8" letter-spacing="0em">t</tspan><tspan x="19.38" y="16.8">e</tspan><tspan x="26.67" y="16.8" letter-spacing="-0.01em">r</tspan><tspan x="31.57" y="16.8">a</tspan></text>
    <text transform="translate(236.22 536.12)" font-size="14" fill="#fff" font-family="Sole24Sans-Regular, Sole24Sans">Black Li<tspan x="46.9" y="0" letter-spacing="-0.01em">v</tspan><tspan x="53.61" y="0" letter-spacing="0em">es Mat</tspan><tspan x="94.27" y="0" letter-spacing="0em">t</tspan><tspan x="99.48" y="0" letter-spacing="0em">e</tspan><tspan x="106.78" y="0" letter-spacing="-0.02em">r</tspan></text>
    <text transform="translate(236.22 589.06)" font-size="14" fill="#fff" font-family="Sole24Sans-Regular, Sole24Sans">US Space <tspan x="61.45" y="0" letter-spacing="-0.03em">F</tspan><tspan x="68.66" y="0">o</tspan><tspan x="76.51" y="0" letter-spacing="-0.01em">r</tspan><tspan x="81.38" y="0" letter-spacing="0em">ce</tspan></text>
    <polyline points="313.63 542 340.48 542 361.58 576.17" fill="none" stroke="#fff" stroke-miterlimit="10"/>
    <polyline points="313.63 594.95 340.48 594.95 361.58 629.11" fill="none" stroke="#fff" stroke-miterlimit="10"/>
    <text transform="translate(10 601.78)" font-size="24" fill="#fff" font-family="Sole24Sans-Bold, Sole24Sans" font-weight="700">38</text>
    <text transform="translate(158.93 601.78)" font-size="24" fill="#fff" font-family="Sole24Sans-Bold, Sole24Sans" font-weight="700">28</text>
    <text transform="translate(236.22 556.12)" font-size="24" fill="#fff" font-family="Sole24Sans-Bold, Sole24Sans" font-weight="700">2</text>
    <text transform="translate(236.22 609.07)" font-size="24" fill="#fff" font-family="Sole24Sans-Bold, Sole24Sans" font-weight="700">5</text>
    <text transform="translate(268.83 619.79)" font-size="24" fill="#fff" font-family="Sole24Sans-Bold, Sole24Sans" font-weight="700">27</text>
  </g>
</svg>
