<?xml version="1.0" encoding="utf-8"?>
<!-- Generator: Adobe Illustrator 24.0.0, SVG Export Plug-In . SVG Version: 6.00 Build 0)  -->
<svg version="1.1" id="Layer_1" xmlns="http://www.w3.org/2000/svg" xmlns:xlink="http://www.w3.org/1999/xlink" x="0px" y="0px" viewBox="0 0 348.2 65.8" style="enable-background:new 0 0 348.2 65.8;" xml:space="preserve">
	<style type="text/css">
		.st0 {
			fill: #ecfa89;
		}

		.st1 {
			fill: none;
		}

		.st2 {
			fill: #FFFFFF;
		}

	</style>
	<g>
		<path class="st0" d="M20.2,52.9c-0.1,0.3-0.1,0.6,0.4,0.8l0.3,0.1l0.4-1.2L21,52.5C20.6,52.4,20.4,52.5,20.2,52.9" />
		<path class="st0" d="M30.8,53.5c-0.6,0-0.7,0.3-0.6,0.8c0,0.4,0.2,0.7,0.7,0.7l0.3,0l-0.1-1.5L30.8,53.5z" />
		<rect class="st1" width="194.4" height="65.8" />
		<polygon class="st0" points="11,47.4 11,47.4 12.2,46.9 11.5,46.2 	" />
		<path class="st0" d="M23.4,53.8c-0.1,0.3,0,0.6,0.5,0.7l0.4,0.1l0.2-1.2l-0.4-0.1C23.6,53.2,23.4,53.4,23.4,53.8" />
		<path class="st0" d="M7.8,42c-0.9,0.6-0.9,1.1-0.5,1.7l0.2,0.2l2.2-1.5l-0.1-0.2C9.1,41.4,8.7,41.4,7.8,42" />
		<path class="st0" d="M23.5,52.5c-0.1,0.4,0,0.7,0.6,0.8l0.4,0.1l0.3-1.4l-0.4-0.1C23.8,51.8,23.6,52,23.5,52.5" />
		<path class="st0" d="M20.6,51.6c-0.1,0.3,0,0.7,0.5,0.9l0.4,0.1l0.4-1.3l-0.4-0.1C20.9,50.9,20.7,51.1,20.6,51.6" />
		<path class="st0" d="M32.4,3.6c0-0.4-0.1-0.7-0.6-0.7l-0.3,0l-0.1,1.3l0.3,0C32.2,4.3,32.3,4.1,32.4,3.6" />
		<path class="st0" d="M13.1,11.7c0.4-0.4,0.4-0.8-0.4-1.6c-0.7-0.8-1.2-0.8-1.6-0.5c-0.4,0.4-0.4,0.8,0.4,1.6
		C12.2,12.1,12.8,12.1,13.1,11.7" />
		<rect class="st1" width="194.4" height="65.8" />
		<polygon class="st0" points="3.7,34 3.7,34 5,34.2 4.8,33.3 	" />
		<polygon class="st0" points="42.3,6.9 42.2,6.9 41.2,7.7 42,8.1 	" />
		<polygon class="st0" points="4.5,20.7 4.5,20.7 5.5,21.5 5.8,20.7 	" />
		<path class="st0" d="M6.7,17.9c0.2-0.5,0.1-0.7-0.3-0.9c-0.3-0.2-0.7-0.1-0.9,0.4l-0.1,0.3l1.2,0.6L6.7,17.9z" />
		<path class="st0" d="M46.6,11.4c0.8-0.8,0.7-1.2,0.1-1.7l-0.2-0.2l-1.9,2l0.2,0.2C45.4,12.3,45.8,12.2,46.6,11.4" />
		<path class="st0" d="M51.7,34.3c-0.2,0.8,0,1.1,1.1,1.4c1,0.3,1.4,0,1.6-0.7l0.1-0.3L51.8,34L51.7,34.3z" />
		<path class="st0" d="M49.2,40.6c-0.4,0.7-0.3,1.1,0.6,1.7c0.9,0.5,1.3,0.4,1.7-0.2l0.1-0.2l-2.3-1.4L49.2,40.6z" />
		<path class="st0" d="M37.1,52.4c-0.5,0.2-0.6,0.4-0.4,0.9c0.1,0.4,0.4,0.5,0.9,0.4l0.3-0.1l-0.4-1.2L37.1,52.4z" />
		<rect class="st1" width="194.4" height="65.8" />
		<polygon class="st0" points="41.2,50.2 42.1,51 42.2,51 41.9,49.7 	" />
		<path class="st0" d="M55.1,31.3L55.1,31.3c0-0.4-0.1-0.4-0.3-0.5l-1.7-0.2c-0.6-0.1-0.9,0.3-0.9,0.8c0,0.2,0,0.4,0.1,0.5
		c0.1,0.2,0.3,0.3,0.6,0.3l1.3,0.1c0.4,0,0.6-0.1,0.7-0.5H55l-0.1,1.1h0c0-0.4-0.2-0.5-0.6-0.5L53,32.4c-0.6-0.1-0.9-0.4-0.9-1.2
		c0.1-0.7,0.4-1.1,1-1l1.7,0.2c0.2,0,0.3-0.1,0.3-0.4l0,0L55.1,31.3z M54.4,35c-0.2,1-1,1.4-1.7,1.2c-0.8-0.2-1.3-0.8-1.1-1.8
		l0.3-1.3l0.1,0c-0.1,0.4,0,0.5,0.2,0.5l2.2,0.5c0.2,0,0.3,0,0.4-0.4l0,0L54.4,35z M53.3,38.6L53.3,38.6c0.1-0.4,0-0.5-0.1-0.5
		l-2.1-0.8c-0.2-0.1-0.3,0-0.4,0.3l0,0l0.5-1.3l0,0c-0.1,0.4-0.1,0.5,0.1,0.5l2.1,0.8c0.2,0,0.3,0,0.4-0.3l0,0L53.3,38.6z
		 M51.6,42.1c-0.5,0.9-1.3,1-2,0.6c-0.7-0.4-1.1-1.2-0.5-2.1l0.7-1.2l0,0c-0.2,0.3-0.1,0.4,0,0.5l1.9,1.1c0.1,0.1,0.3,0,0.5-0.2l0,0
		L51.6,42.1z M48.8,46.1l-0.7-0.6l0,0c0.6,0.2,0.9,0.2,1.2-0.2l0.3-0.4l-1-0.8l-0.1,0.2c-0.2,0.3-0.2,0.5,0,0.9l0,0l-1-0.8l0,0
		c0.4,0.2,0.6,0.1,0.8-0.2l0.1-0.2l-1.1-0.9l-0.3,0.4c-0.4,0.5-0.3,0.8,0.1,1.4l0,0l-0.8-0.6l1.6-2l0,0c-0.2,0.3-0.2,0.4-0.1,0.5
		l1.8,1.4c0.1,0.1,0.3,0.1,0.5-0.2l0,0L48.8,46.1z M47.2,47.7L47.2,47.7c0.2-0.3,0.2-0.4,0.1-0.5l-1.7-1.8l-0.2,0.2
		c-0.4,0.4-0.4,0.7-0.2,1.4l0,0l-0.7-0.7l1.7-1.7l0,0C46,45,46,45.1,46.1,45.3l1.6,1.6c0.1,0.1,0.2,0.1,0.5-0.1l0,0L47.2,47.7z
		 M44.9,49.8L44.9,49.8c0.3-0.3,0.2-0.4,0.1-0.5l-1.5-2l-0.2,0.2c-0.5,0.3-0.5,0.7-0.3,1.4l0,0l-0.6-0.8l1.9-1.5l0,0
		c-0.3,0.2-0.3,0.4-0.2,0.5l1.4,1.8c0.1,0.1,0.2,0.2,0.5-0.1l0,0L44.9,49.8z M42.2,51.7L40.1,50c-0.2-0.2-0.3-0.2-0.6-0.1l0,0
		l1.2-0.7l0,0c-0.3,0.2-0.3,0.3-0.1,0.5l0.6,0.5l0.8-0.5l-0.1-0.4c-0.1-0.5-0.2-0.6-0.6-0.5l0,0l0.8-0.5l0,0
		c-0.2,0.2-0.2,0.4-0.2,0.9l0.4,2.4L42.2,51.7z M37.5,53.7c-0.8,0.3-1.2,0.1-1.3-0.3c-0.1-0.3,0-0.7,0.6-1v0c-0.6,0.2-0.8,0-1-0.4
		l-0.1-0.2c-0.2-0.3-0.2-0.4-0.6-0.2l0,0c0.1-0.1,0.3-0.1,0.4-0.2c0.4-0.1,0.6,0,0.7,0.3l0.2,0.3c0.2,0.4,0.3,0.5,0.8,0.3l0.3-0.1
		l-0.3-1c0-0.2-0.2-0.2-0.5-0.1l0-0.1l1.3-0.5l0,0c-0.3,0.1-0.4,0.2-0.3,0.4l0.7,2.1c0.1,0.2,0.2,0.2,0.5,0.1l0,0L37.5,53.7z
		 M33.1,54.8l-0.2-0.9l0,0c0.3,0.5,0.6,0.8,1.1,0.7l0.5-0.1l-0.2-1.2l-0.2,0c-0.3,0.1-0.5,0.2-0.5,0.7l-0.1,0l-0.2-1.2l0,0
		c0.2,0.4,0.4,0.5,0.7,0.4l0.2,0L34,51.8l-0.5,0.1c-0.6,0.1-0.7,0.4-0.8,1.1l-0.1,0l-0.2-1l2.5-0.5l0,0c-0.3,0.1-0.4,0.2-0.4,0.4
		l0.5,2.2c0,0.2,0.1,0.2,0.5,0.2l0,0L33.1,54.8z M30.9,55.1c-0.9,0.1-1.2-0.2-1.2-0.7c0-0.4,0.2-0.8,1.1-0.9l0.3,0L31,52.5
		c0-0.2-0.1-0.2-0.5-0.2l0,0l1.4-0.1v0c-0.4,0-0.4,0.1-0.4,0.3l0.2,2.2c0,0.2,0.1,0.2,0.5,0.2v0L30.9,55.1z M20.5,48.9
		c-3.9-1.7-7.2-4.4-9.6-7.9c-2.3-3.5-3.7-7.6-3.7-12.1c0-3,0.6-5.9,1.7-8.4c1.6-3.9,4.4-7.2,7.9-9.6s7.6-3.7,12.1-3.7
		c3,0,5.8,0.6,8.5,1.7c3.9,1.6,7.2,4.4,9.5,7.9s3.7,7.6,3.7,12.1c0,3-0.6,5.8-1.7,8.5c-1.6,3.9-4.4,7.2-7.9,9.5
		c-3.5,2.3-7.6,3.7-12.1,3.7C25.9,50.6,23.1,50,20.5,48.9 M28.9,55.2l-1.4-0.1v0c0.4,0,0.4-0.1,0.4-0.2l0.1-1.7
		c0-0.6-0.3-0.8-0.8-0.9c-0.2,0-0.4,0-0.5,0.2c-0.1,0.1-0.2,0.3-0.3,0.7l-0.1,1.3c0,0.4,0.1,0.6,0.5,0.7v0L25.8,55v0
		c0.4,0,0.5-0.2,0.5-0.6l0.1-1.3c0-0.6,0.4-1,1.1-0.9c0.7,0,1.1,0.4,1.1,1l-0.1,1.7C28.5,55,28.6,55.1,28.9,55.2L28.9,55.2z
		 M25.6,52.1c-0.4-0.1-0.5,0-0.5,0.2l-0.4,2.2c0,0.2,0,0.3,0.4,0.3l0,0l-1.3-0.2c-0.9-0.2-1-0.5-1-0.9c0.1-0.3,0.3-0.5,1-0.5v0
		c-0.6-0.2-0.9-0.5-0.8-0.9c0.1-0.4,0.5-0.8,1.3-0.6L25.6,52.1L25.6,52.1z M22.7,51.5c-0.3-0.1-0.5,0-0.5,0.1l-0.7,2.1
		c0,0.2,0,0.3,0.4,0.4l0,0l-1.2-0.4c-0.8-0.3-1-0.7-0.8-1c0.1-0.3,0.4-0.5,1-0.4v0c-0.6-0.2-0.8-0.6-0.7-1s0.5-0.7,1.4-0.4
		L22.7,51.5L22.7,51.5z M19.4,50.6l-1,2c-0.1,0.2,0,0.3,0.3,0.4l0,0l-1.2-0.6l0,0c0.3,0.2,0.4,0.1,0.5-0.1l1.1-2.2L18.8,50
		c-0.5-0.2-0.8-0.2-1.4,0.3l0,0l0.5-0.9l2.1,1l0,0C19.6,50.4,19.5,50.4,19.4,50.6 M16.9,49.3l-1.2,1.9c-0.1,0.1-0.1,0.3,0.3,0.5l0,0
		L14.7,51l0,0c0.3,0.2,0.4,0.2,0.5,0l1.2-1.9c0.1-0.1,0.1-0.3-0.3-0.5l0,0l1.2,0.7l0,0C17.1,49.1,17,49.1,16.9,49.3 M12.8,49.7
		c-0.2-0.2-0.4-0.4-0.5-0.6l-0.3,0l0,0l0.6-0.8l0,0C12.5,49,12.5,49.4,12.8,49.7c0.5,0.3,1.1,0.2,1.7-0.6c0.6-0.8,0.4-1.4,0-1.7
		c-0.4-0.3-0.8-0.2-1.2,0l0-0.1c0.4-0.2,0.9-0.3,1.4,0.1c0.7,0.5,0.8,1.3,0.2,2C14.4,50.1,13.5,50.2,12.8,49.7 M10.4,47.6l1.1-2.5
		c0.1-0.3,0.1-0.4-0.1-0.6l0,0l1,1l0,0c-0.3-0.3-0.4-0.2-0.5,0l-0.3,0.7l0.7,0.7l0.4-0.2c0.5-0.2,0.5-0.4,0.3-0.7l0,0l0.7,0.7l0,0
		c-0.2-0.1-0.5-0.1-0.9,0.1l-2.2,1L10.4,47.6z M10.3,43.1c-0.2-0.3-0.3-0.3-0.5-0.2L8,44.2c-0.1,0.1-0.2,0.2,0,0.5l0,0l-0.7-1.1
		c-0.6-0.8-0.4-1.6,0.3-2.1C8.1,41.1,9,41.1,9.6,42L10.3,43.1L10.3,43.1z M6,41.6L6,41.6l-0.7-1.2l0.1,0c0.2,0.3,0.3,0.4,0.5,0.3
		l2-1C8,39.5,8,39.4,7.8,39l0.1,0l0.6,1.2l-0.1,0C8.3,40,8.2,39.9,8,40l-2,1C5.9,41.1,5.8,41.2,6,41.6 M3.9,37
		c-0.1-0.2-0.1-0.5-0.1-0.6l-0.2-0.1l0,0l0.9-0.3l0,0.1C4.1,36.3,3.9,36.7,3.9,37c0.2,0.3,0.4,0.5,0.7,0.4C5,37.2,5,37,5,36.5
		c0-0.4,0-0.9,0.5-1c0.4-0.1,1,0,1.2,0.6c0.1,0.2,0.1,0.5,0,0.7L7.1,37l0,0l-1,0.3l0,0c0.4-0.4,0.7-0.8,0.6-1.2
		c-0.1-0.4-0.4-0.5-0.7-0.4c-0.3,0.1-0.4,0.4-0.4,0.9c0,0.4,0,0.9-0.5,1.1C4.5,37.8,4.1,37.5,3.9,37 M3.1,34l0-0.2l2.3-1.4
		c0.3-0.2,0.3-0.2,0.3-0.5l0.1,0L6,33.2l-0.1,0c-0.1-0.4-0.2-0.4-0.4-0.3l-0.7,0.4l0.2,1l0.4,0.1c0.5,0.1,0.7,0,0.6-0.4l0.1,0l0.2,1
		l-0.1,0c-0.1-0.2-0.3-0.4-0.8-0.5L3.1,34z M2.9,31.9L2.9,31.9L2.8,31l2.1-1.8l0,0l-1.5,0.1c-0.4,0-0.6,0.2-0.6,0.6h0l-0.1-1.1h0
		c0.1,0.4,0.3,0.5,0.7,0.5l2.3-0.1l0,0.1l-2.4,2v0L5,31.1c0.4,0,0.6-0.1,0.6-0.6h0.1l0.1,1.1H5.7c-0.1-0.4-0.3-0.5-0.7-0.5l-1.7,0.1
		C3.1,31.3,2.9,31.5,2.9,31.9 M3,25.1l2.4-0.5v0l-2-1.2l0.2-0.9l0,0c0,0.4,0,0.5,0.2,0.5l2.2,0.4c0.2,0,0.3,0,0.3-0.4l0.1,0
		l-0.2,1.3H6c0.1-0.4,0-0.4-0.2-0.5l-2.2-0.4l0,0L6,24.9l0,0.1l-2.8,0.6v0l1.9,0.3c0.4,0.1,0.6,0,0.7-0.4l0.1,0l-0.2,1.1l-0.1,0
		c0-0.4-0.1-0.5-0.5-0.6l-1.7-0.3c-0.2,0-0.5,0.1-0.5,0.4l0,0L3,25.1z M4.1,20.2l2.7-0.1c0.3,0,0.4,0,0.5-0.3l0.1,0l-0.4,1.3l-0.1,0
		c0.1-0.4,0.1-0.5-0.2-0.5H5.9l-0.3,0.9l0.3,0.2c0.4,0.3,0.6,0.3,0.7,0l0.1,0l-0.3,0.9l-0.1,0c0-0.3-0.1-0.5-0.4-0.8L4,20.4
		L4.1,20.2z M5.4,17.3c0.4-0.8,0.8-0.9,1.2-0.7c0.3,0.2,0.5,0.5,0.3,1.1l0,0c0.3-0.5,0.6-0.5,1-0.4l0.2,0.1c0.4,0.1,0.4,0.1,0.6-0.2
		l0,0c0,0.1-0.1,0.3-0.1,0.4c-0.2,0.4-0.4,0.4-0.7,0.3l-0.4-0.1c-0.4-0.1-0.5-0.1-0.8,0.3l-0.1,0.3l1,0.5c0.2,0.1,0.3,0,0.4-0.3
		l0.1,0l-0.6,1.2l0,0c0.2-0.3,0.1-0.5,0-0.5l-2-1c-0.2-0.1-0.3,0-0.4,0.3l-0.1,0L5.4,17.3z M7.2,14.2L7.2,14.2
		c-0.2,0.3-0.1,0.5,0,0.6L9.1,16c0.1,0.1,0.3,0.1,0.5-0.2l0.1,0l-0.8,1.2l0,0c0.2-0.3,0.2-0.4,0-0.5L7,15.2
		c-0.1-0.1-0.3-0.1-0.5,0.2l0,0L7.2,14.2z M8.2,12.9l2.7,0.1l0,0L9.8,12c-0.3-0.2-0.5-0.2-0.9,0l0,0l0.7-0.9l0,0
		c-0.2,0.3-0.1,0.5,0.2,0.8l1.8,1.4l-0.1,0.1l-3.1-0.1l0,0l1.3,1.1c0.3,0.3,0.5,0.3,0.8,0l0,0l-0.7,0.9l0,0c0.2-0.3,0.1-0.5-0.2-0.8
		l-1.3-1c-0.2-0.2-0.4-0.2-0.7,0.1l0,0L8.2,12.9z M11.1,9.6C11.7,9,12.5,9,13.2,9.7c0.6,0.7,0.5,1.6,0,2.1c-0.6,0.5-1.4,0.5-2.1-0.2
		C10.5,11,10.6,10.1,11.1,9.6 M15.8,6.2L15.8,6.2c-0.3,0.2-0.3,0.3-0.2,0.5l0.8,1.4c0.3,0.5,0.7,0.5,1.1,0.3C17.8,8.3,17.9,8.2,18,8
		c0-0.2,0-0.4-0.1-0.7l-0.6-1.1c-0.2-0.4-0.4-0.4-0.8-0.3l0,0l1-0.6l0,0c-0.3,0.2-0.3,0.4-0.1,0.8l0.6,1.1c0.3,0.5,0.2,1-0.5,1.4
		c-0.6,0.4-1.1,0.3-1.4-0.2l-0.9-1.5c-0.1-0.2-0.2-0.2-0.5,0l0,0L15.8,6.2z M18.9,4.7l2.3,1.4l0,0l-0.5-1.4
		c-0.1-0.4-0.3-0.5-0.7-0.4l0,0L21,3.9l0,0c-0.3,0.2-0.4,0.4-0.2,0.8l0.8,2.1l-0.1,0.1l-2.7-1.6l0,0l0.6,1.6
		c0.1,0.4,0.3,0.5,0.7,0.4l0,0.1l-1.1,0.4l0-0.1c0.3-0.2,0.4-0.4,0.2-0.8l-0.6-1.6c-0.1-0.2-0.3-0.4-0.6-0.3l0,0L18.9,4.7z M23,3.4
		L23,3.4c-0.4,0.2-0.4,0.3-0.4,0.4l0.6,2.2c0,0.2,0.1,0.2,0.5,0.2l0,0.1l-1.4,0.4l0-0.1c0.4-0.1,0.4-0.2,0.4-0.4l-0.6-2.2
		c0-0.2-0.2-0.2-0.5-0.1l0,0L23,3.4z M24.9,3L24.9,3c-0.4,0.1-0.4,0.2-0.3,0.5l1,1.8h0L26,3.5c0.1-0.4,0-0.5-0.4-0.5l0,0l1-0.1l0,0
		c-0.3,0.1-0.4,0.3-0.5,0.8l-0.5,2.3l-0.1,0l-1.3-2.3c-0.1-0.3-0.2-0.3-0.5-0.3v0L24.9,3z M29.5,2.7l0,0.9l-0.1,0
		C29.2,3,29,2.8,28.6,2.8l-0.5,0l0,1.3l0.2,0c0.3,0,0.5-0.1,0.6-0.6h0l0,1.2h0c-0.1-0.4-0.3-0.6-0.6-0.6h-0.2l0,1.4l0.5,0
		c0.6,0,0.8-0.3,1-0.9h0.1v1l-2.5,0.1V5.6c0.4,0,0.4-0.1,0.4-0.3l0-2.2c0-0.2-0.1-0.3-0.5-0.3v0L29.5,2.7z M30.2,5.5
		c0.4,0,0.5-0.1,0.5-0.2l0.2-2.2c0-0.2-0.1-0.3-0.4-0.3v0l1.3,0.1c0.8,0.1,1.1,0.4,1.1,0.8c0,0.4-0.3,0.6-1,0.6v0
		c0.6,0.1,0.7,0.4,0.7,0.8v0.2c0,0.4,0.1,0.4,0.4,0.5v0c-0.1,0-0.3,0-0.4,0c-0.4-0.1-0.5-0.2-0.5-0.6V4.9c0-0.4-0.1-0.5-0.6-0.6
		l-0.3,0l-0.1,1.1c0,0.2,0.1,0.3,0.4,0.3l0,0.1L30.2,5.5L30.2,5.5z M33.6,5L33.6,5c0.2,0.6,0.4,1.1,0.8,1.2c0.4,0.1,0.7-0.1,0.7-0.4
		C35.2,5.5,35,5.3,34.5,5c-0.4-0.2-0.8-0.5-0.6-1C34,3.5,34.5,3.2,35,3.4c0.2,0,0.5,0.2,0.6,0.3l0.2-0.1l0,0l-0.2,0.9l0,0
		c-0.1-0.6-0.3-0.9-0.6-1c-0.3-0.1-0.6,0.1-0.6,0.4c-0.1,0.3,0.1,0.5,0.6,0.8c0.3,0.2,0.7,0.5,0.6,1C35.4,6,35,6.4,34.3,6.3
		c-0.2-0.1-0.5-0.2-0.6-0.3l-0.3,0.1l0,0L33.6,5z M36.3,6.4L37,4.3c0-0.2,0-0.3-0.3-0.4l0,0L38,4.3l0,0.1c-0.4-0.1-0.5-0.1-0.5,0.1
		l-0.7,2.1c-0.1,0.2,0,0.3,0.3,0.4l0,0.1l-1.3-0.4l0-0.1C36.1,6.6,36.2,6.6,36.3,6.4 M38.1,7.4c0.3,0.1,0.5,0.1,0.6,0l1-2.3L39.5,5
		c-0.3-0.1-0.6,0-1.1,0.4l0,0l0.4-0.8l2.3,1.1l-0.3,0.8l-0.1,0c0-0.6-0.1-1-0.4-1.1l-0.2-0.1l-1,2.3c-0.1,0.2,0,0.3,0.3,0.4l0,0.1
		L38.1,7.4L38.1,7.4z M42.8,6.6l-0.5,2.6c-0.1,0.3,0,0.4,0.2,0.6l0,0.1l-1.2-0.7l0-0.1c0.3,0.2,0.4,0.1,0.5-0.1L42,8.2l-0.8-0.5
		L40.8,8c-0.4,0.3-0.4,0.5-0.1,0.7l0,0.1l-0.8-0.5l0,0c0.3,0.1,0.5,0,0.9-0.3l1.9-1.5L42.8,6.6z M42.8,5.5c0-0.1,0.2-0.1,0.3-0.1
		c0.1,0.1,0.1,0.2,0,0.4L43,6.4l0,0l-0.1-0.5C42.8,5.7,42.8,5.6,42.8,5.5 M43.9,10.9c0.3,0.2,0.4,0.2,0.5,0.1L46,9.4
		c0.1-0.1,0.1-0.3-0.1-0.5l0,0l0.9,0.9c0.8,0.7,0.7,1.5,0.2,2.1c-0.5,0.6-1.4,0.8-2.1,0.1L43.9,10.9L43.9,10.9z M48.5,11.4l1.5,1.9
		l-0.7,0.6l0,0c0.3-0.6,0.4-0.9,0.1-1.3L49,12.2l-1,0.8l0.1,0.2c0.2,0.3,0.4,0.3,0.8,0.1l0,0l-1,0.8l0,0c0.3-0.4,0.3-0.6,0-0.9
		L48,13.1l-1.1,0.9l0.3,0.4c0.4,0.4,0.7,0.4,1.4,0.2l0,0.1l-0.8,0.6l-1.6-2l0,0c0.2,0.3,0.4,0.3,0.5,0.2l1.7-1.4
		C48.7,11.9,48.7,11.8,48.5,11.4L48.5,11.4z M51.5,15.4c0.2,0.3,0.2,0.5,0.2,0.7l0.3,0.1l0,0l-0.8,0.5l0,0
		C51.5,16.2,51.6,15.8,51.5,15.4c-0.3-0.4-0.9-0.6-1.8,0c-0.9,0.5-1,1.2-0.7,1.6c0.1,0.2,0.3,0.3,0.4,0.4l0.7-0.4
		c0.2-0.1,0.2-0.2,0-0.5l0,0l0.7,1.1l0,0c-0.1-0.2-0.2-0.2-0.4-0.1l-0.7,0.4c-0.3-0.1-0.6-0.5-0.8-0.8c-0.4-0.7-0.3-1.6,0.5-2.1
		C50.2,14.4,51.1,14.7,51.5,15.4 M52.4,17.2L52.4,17.2l0.6,1.2l0,0c-0.2-0.3-0.3-0.4-0.4-0.3l-2.3,1l0.1,0.3
		c0.2,0.5,0.5,0.7,1.3,0.6l0,0l-0.9,0.4l-1-2.2l0,0c0.2,0.3,0.3,0.4,0.4,0.3l2-0.9C52.5,17.7,52.5,17.5,52.4,17.2 M53.6,20L53.6,20
		l0.5,1.3l0,0C53.9,21,53.8,21,53.6,21l-2.1,0.7c-0.2,0.1-0.2,0.2-0.1,0.5l0,0L50.9,21l0,0c0.1,0.4,0.2,0.4,0.4,0.4l2.1-0.7
		C53.6,20.5,53.7,20.4,53.6,20 M54.9,24.9c0,0.2,0,0.5,0,0.6l0.2,0.1l0,0l-0.9,0.1l0,0C54.7,25.5,54.9,25.2,54.9,24.9
		c-0.1-0.3-0.3-0.6-0.7-0.5c-0.3,0-0.4,0.4-0.5,0.8c-0.1,0.4-0.2,0.9-0.7,0.9c-0.5,0.1-1-0.1-1.1-0.8c0-0.2,0-0.5,0.1-0.7l-0.2-0.2
		l0,0l1-0.2l0,0.1C52.3,24.6,52,25,52,25.4c0.1,0.4,0.4,0.6,0.6,0.5c0.4,0,0.5-0.3,0.6-0.9c0.1-0.4,0.1-0.9,0.7-1
		C54.4,24,54.8,24.4,54.9,24.9 M55.2,29.1l-0.9,0.1v-0.1c0.5-0.3,0.8-0.5,0.8-0.9l0-0.2l-2.5,0.1c-0.2,0-0.2,0.1-0.2,0.5h-0.1l0-1.5
		h0c0,0.4,0.1,0.5,0.3,0.5l2.5-0.1l0-0.2c0-0.3-0.3-0.6-0.9-0.8v0l0.9,0L55.2,29.1z M54.6,18.1c-2.1-5-5.7-9.3-10.1-12.3
		c-4.5-3-9.8-4.8-15.6-4.8c-3.8,0-7.5,0.8-10.9,2.2c-5,2.1-9.3,5.7-12.3,10.1c-3,4.4-4.8,9.8-4.8,15.6c0,3.8,0.8,7.5,2.2,10.9
		c2.1,5,5.6,9.3,10.1,12.3c4.4,3,9.8,4.8,15.6,4.8h0c3.8,0,7.5-0.8,10.9-2.2c5-2.1,9.2-5.7,12.3-10.1c3-4.5,4.8-9.8,4.8-15.6
		C56.8,25.1,56,21.4,54.6,18.1" />
		<path class="st2" d="M28.9,57.5c-15.7,0-28.5-12.8-28.5-28.5S13.2,0.4,28.9,0.4c15.7,0,28.5,12.8,28.5,28.5
		C57.5,44.7,44.7,57.5,28.9,57.5 M49.4,8.5C43.9,3,36.7,0,28.9,0s-15,3-20.5,8.5C3,13.9,0,21.2,0,28.9s3,15,8.5,20.5
		s12.7,8.5,20.5,8.5c7.7,0,15-3,20.5-8.5s8.5-12.7,8.5-20.5C57.9,21.2,54.8,13.9,49.4,8.5" />
		<path class="st0" d="M28.9,57.5c-15.7,0-28.5-12.8-28.5-28.5S13.2,0.4,28.9,0.4c15.7,0,28.5,12.8,28.5,28.5
		C57.5,44.7,44.7,57.5,28.9,57.5 M49.4,8.5C43.9,3,36.7,0,28.9,0s-15,3-20.5,8.5C3,13.9,0,21.2,0,28.9s3,15,8.5,20.5
		s12.7,8.5,20.5,8.5c7.7,0,15-3,20.5-8.5s8.5-12.7,8.5-20.5C57.9,21.2,54.8,13.9,49.4,8.5" />
		<path class="st0" d="M43.7,23.3h-1.1v-1h1.1V23.3z M43.7,24.6H36v-1h7.7V24.6z M42.6,26h-5.5L36,25h7.7L42.6,26z M42.6,32.8h-5.5
		v-1h5.5V32.8z M42.6,31.5h-5.5v-1h5.5V31.5z M39.3,30.1h-2.2v-1h2.2V30.1z M39.3,28.7h-2.2v-1h2.2V28.7z M37.1,26.4h5.5v1h-5.5
		V26.4z M42.6,30.1h-2.2v-1h2.2V30.1z M40.4,27.7h2.2v1h-2.2V27.7z M43.7,34.2H36v-1h7.7V34.2z M43.1,35.6h-6.6v-1h6.6V35.6z
		 M43.1,37H41v-1h2.2V37z M43.1,38.3H41v-1h2.2V38.3z M43.1,39.7H41v-1h2.2V39.7z M38.8,37h-2.2v-1h2.2V37z M38.8,38.3h-2.2v-1h2.2
		V38.3z M38.8,39.7h-2.2v-1h2.2V39.7z M32.8,23.3h-1.1v-1h1.1V23.3z M32.8,24.6h-7.6v-1h7.6V24.6z M31.7,26h-5.5l-1.1-1h7.6L31.7,26
		z M31.7,32.8h-5.5v-1h5.5V32.8z M31.7,31.5h-5.5v-1h5.5V31.5z M28.4,30.1h-2.2v-1h2.2V30.1z M28.4,28.7h-2.2v-1h2.2V28.7z
		 M26.2,26.4h5.5v1h-5.5V26.4z M31.7,30.1h-2.2v-1h2.2V30.1z M29.5,27.7h2.2v1h-2.2V27.7z M32.8,34.2h-7.6v-1h7.6V34.2z M32.2,35.6
		h-6.6v-1h6.6V35.6z M32.2,37H30v-1h2.2V37z M32.2,38.3H30v-1h2.2V38.3z M32.2,39.7H30v-1h2.2V39.7z M27.8,37h-2.2v-1h2.2V37z
		 M27.8,38.3h-2.2v-1h2.2V38.3z M27.8,39.7h-2.2v-1h2.2V39.7z M21.8,23.3h-1.1v-1h1.1V23.3z M21.8,24.6h-7.6v-1h7.6V24.6z M20.7,26
		h-5.5l-1.1-1h7.6L20.7,26z M20.7,32.8h-5.5v-1h5.5V32.8z M20.7,31.5h-5.5v-1h5.5V31.5z M17.5,30.1h-2.2v-1h2.2V30.1z M17.5,28.7
		h-2.2v-1h2.2V28.7z M15.3,26.4h5.5v1h-5.5V26.4z M20.7,30.1h-2.2v-1h2.2V30.1z M18.5,27.7h2.2v1h-2.2V27.7z M21.8,34.2h-7.6v-1h7.6
		V34.2z M21.3,35.6h-6.6v-1h6.6V35.6z M21.3,37h-2.2v-1h2.2V37z M21.3,38.3h-2.2v-1h2.2V38.3z M21.3,39.7h-2.2v-1h2.2V39.7z
		 M16.9,37h-2.2v-1h2.2V37z M16.9,38.3h-2.2v-1h2.2V38.3z M16.9,39.7h-2.2v-1h2.2V39.7z M14.2,22.3h1.1v1h-1.1V22.3z M17.5,23.3
		h-1.1v-1h1.1V23.3z M16.3,16.4c0.1-0.2,0.6-0.8,1-0.6c0.2,0.1,0.3,0.3,0.4,0.5c0.1,0.2,0.2,0.4,0.4,0.6c0,0.1,0.1,0.2,0.2,0.2
		c0.2,0.2,0.3,0.5,0.4,0.7c0,0.3,0,0.6,0,0.9c-0.1,0.6-0.3,1.2-0.5,1.8c0,0,0,0,0,0c0,0,0-0.1,0-0.1c-0.5-1.1-1.6-2.5-1.7-3.8
		C16.3,16.6,16.3,16.5,16.3,16.4 M19.6,23.3h-1.1v-1h1.1V23.3z M16.4,15.8c0.3-0.6,0.9-1.2,1.6-1.1c0.3,0,0.6,0.1,0.8,0.2
		c0.7,0.5,1.2,1.4,0.8,2.6c-0.9,0.1-1.3-0.7-1.6-1.2l0,0c-0.2-0.3-0.4-0.7-0.7-0.8c-0.4-0.1-0.7,0.2-0.9,0.4
		C16.4,15.9,16.4,15.9,16.4,15.8 M25.1,22.3h1.1v1h-1.1V22.3z M28.4,23.3h-1.1v-1h1.1V23.3z M27.2,16.4c0.1-0.2,0.6-0.8,1-0.6
		c0.2,0.1,0.3,0.3,0.4,0.5c0.1,0.2,0.2,0.4,0.4,0.6c0.1,0.1,0.1,0.2,0.2,0.2c0.2,0.2,0.3,0.5,0.4,0.7c0,0.3,0,0.6,0,0.9
		c-0.1,0.6-0.3,1.2-0.5,1.8h0c0,0,0,0,0,0c0,0,0-0.1,0-0.1c-0.5-1.1-1.6-2.5-1.7-3.8C27.2,16.6,27.2,16.5,27.2,16.4 M30.6,23.3h-1.1
		v-1h1.1V23.3z M27.4,15.8c0.3-0.6,0.9-1.2,1.6-1.1c0.3,0,0.6,0.1,0.8,0.2c0.7,0.5,1.2,1.4,0.8,2.6c-0.9,0.1-1.3-0.7-1.6-1.2l0,0
		c-0.2-0.3-0.4-0.7-0.7-0.8c-0.3-0.1-0.7,0.2-0.9,0.4C27.3,15.9,27.3,15.9,27.4,15.8 M36,22.3h1.1v1H36V22.3z M39.3,23.3h-1.1v-1
		h1.1V23.3z M38.2,16.4c0.1-0.2,0.7-0.8,1-0.6c0.2,0.1,0.3,0.3,0.4,0.5c0.1,0.2,0.2,0.4,0.3,0.6c0,0.1,0.1,0.2,0.2,0.2
		c0.2,0.2,0.3,0.5,0.4,0.7c0,0.3,0,0.6,0,0.9c-0.1,0.6-0.3,1.2-0.5,1.8h0c0,0,0,0,0,0c0,0,0-0.1,0-0.1c-0.5-1.1-1.6-2.5-1.7-3.8
		C38.1,16.6,38.1,16.5,38.2,16.4 M41.5,23.3h-1.1v-1h1.1V23.3z M38.3,15.8c0.3-0.6,0.8-1.2,1.6-1.1c0.3,0,0.6,0.1,0.8,0.2
		c0.7,0.5,1.2,1.4,0.8,2.6c-0.9,0.1-1.3-0.7-1.6-1.2l0,0c-0.2-0.3-0.4-0.7-0.7-0.8c-0.3-0.1-0.7,0.2-0.9,0.4
		C38.3,15.9,38.3,15.9,38.3,15.8 M28.9,7.9c-11.6,0-21,9.4-21,21c0,4.1,1.2,7.9,3.2,11.1h35.8c2-3.2,3.2-7,3.2-11.1
		C50,17.3,40.5,7.9,28.9,7.9 M11.5,40.6c3.8,5.6,10.2,9.3,17.5,9.3c0.9,0,1.8-0.1,2.7-0.2l-8.7-9.1C22.9,40.6,11.5,40.6,11.5,40.6z
		 M40.6,46.4c2.3-1.5,4.2-3.5,5.8-5.8H34.8L40.6,46.4z M23.8,40.6l8.6,9c2.8-0.5,5.4-1.5,7.7-2.9l-6.1-6.1H23.8z" />
		<rect class="st1" width="194.4" height="65.8" />
		<g>
			<path class="st0" d="M74,17.4v-4.5c0-0.5-0.3-0.7-1.2-0.8V12h3.3v0.1c-1,0-1.1,0.3-1.1,0.8v4.2c0,1.7,1.1,2.1,2.3,2.1
			c0.5,0,1-0.2,1.4-0.5c0.4-0.4,0.6-0.9,0.6-1.7v-3.3c0-1-0.3-1.5-1.4-1.6V12h2.9v0.1c-1,0.2-1.2,0.6-1.2,1.6v3.4
			c0,1.4-0.8,2.4-2.7,2.4C75,19.6,74,18.8,74,17.4z" />
			<path class="st0" d="M82.7,13.1L82.7,13.1l0,4.6c0,1,0.2,1.5,1.3,1.6v0.1h-2.9v-0.1c1-0.2,1.3-0.6,1.3-1.6v-4.3
			c0-0.6-0.4-1.2-1.3-1.2V12h2.1l4.3,5.8h0v-4.1c0-1-0.3-1.5-1.4-1.6V12h2.9v0.1c-1,0.2-1.2,0.6-1.2,1.6v5.9h-0.2L82.7,13.1z" />
			<path class="st0" d="M89.6,19.3c1,0,1.2-0.3,1.2-0.8v-5.6c0-0.5-0.2-0.7-1.2-0.8V12h3.5v0.1c-1,0-1.2,0.3-1.2,0.8v5.6
			c0,0.5,0.2,0.7,1.2,0.8v0.1h-3.5V19.3z" />
			<path class="st0" d="M94.7,13.3c-0.3-0.8-0.5-1-1.3-1.1V12h3.2v0.1c-1,0.1-1.1,0.3-0.9,0.9l1.9,5.2h0l1.8-4.6
			c0.4-1,0.2-1.4-0.7-1.5V12h2.5v0.1c-0.7,0.1-1,0.5-1.5,1.8l-2.3,5.8h-0.2L94.7,13.3z" />
			<path class="st0" d="M101.3,19.3c0.9,0,1.2-0.3,1.2-0.8v-5.6c0-0.5-0.3-0.7-1.2-0.8V12h6l0,2.3l-0.1,0c-0.5-1.4-1.1-2.1-2.3-2.1
			h-1.4v3.2h0.7c0.9,0,1.3-0.3,1.6-1.5h0.1v3.2h-0.1c-0.3-1.2-0.7-1.5-1.6-1.5h-0.7v3.5h1.4c1.4,0,2.1-0.7,2.6-2.2l0.1,0l-0.1,2.4
			h-6.3L101.3,19.3L101.3,19.3z" />
			<path class="st0" d="M110.8,18.5c0,0.5,0.2,0.7,1.2,0.8v0.1h-3.4v-0.1c0.9,0,1.2-0.3,1.2-0.8v-5.6c0-0.5-0.3-0.7-1.2-0.8V12h3.1
			c2.2,0,3.1,0.8,3.1,1.8c0,0.9-0.6,1.7-2.3,1.9v0c1.6,0.1,1.9,0.8,2.1,1.9l0.1,0.4c0.2,1,0.3,1.1,1.3,1.1v0.1
			c-0.3,0.1-0.7,0.1-1.1,0.1c-1,0-1.2-0.4-1.3-1.4l-0.1-1c-0.1-1.1-0.4-1.3-1.7-1.3h-1L110.8,18.5L110.8,18.5z M111.8,15.6
			c1.5,0,1.8-0.7,1.8-1.8c0-1-0.4-1.6-2-1.6h-0.8v3.4C110.8,15.6,111.8,15.6,111.8,15.6z" />
			<path class="st0" d="M116.3,17h0.2c0.6,1.4,1.2,2.4,2.4,2.4c1.1,0,1.7-0.8,1.7-1.4c0-1-0.7-1.4-2-1.8c-1-0.4-2.1-0.6-2.1-2
			c0-1.4,1.1-2.2,2.5-2.2c0.6,0,1.2,0.2,1.6,0.3l0.3-0.4h0.1v2.3h-0.2c-0.5-1.4-1.2-2.1-2.1-2.1c-0.8,0-1.4,0.5-1.4,1.4
			c0,1,0.7,1.3,1.9,1.7c1,0.3,2.1,0.7,2.1,2.1c0,1.1-0.7,2.4-2.5,2.4c-0.6,0-1.3-0.2-1.7-0.5l-0.7,0.5h-0.1L116.3,17L116.3,17z" />
			<path class="st0" d="M122.2,19.3c1,0,1.2-0.3,1.2-0.8v-5.6c0-0.5-0.2-0.7-1.2-0.8V12h3.5v0.1c-1,0-1.2,0.3-1.2,0.8v5.6
			c0,0.5,0.2,0.7,1.2,0.8v0.1h-3.5V19.3z" />
			<path class="st0" d="M128,19.3c1,0,1.3-0.3,1.3-0.8v-6.3h-0.5c-0.8,0-1.5,0.7-2.1,2l-0.1,0l0.1-2.2h6.4l0.1,2.2l-0.1,0
			c-0.6-1.3-1.3-2-2.1-2h-0.5v6.3c0,0.5,0.3,0.7,1.3,0.8v0.1H128L128,19.3L128,19.3z" />
			<path class="st0" d="M137.3,16.6h-2.6l-0.3,0.9c-0.5,1.3-0.3,1.7,0.6,1.8v0.1h-2.5v-0.1c0.7-0.2,1.1-0.6,1.5-1.8l2.3-5.8h0.2
			l2.4,6.4c0.3,0.8,0.5,1,1.3,1.1v0.1H137v-0.1c1,0,1.1-0.3,0.9-0.9L137.3,16.6z M137.2,16.4l-1.1-3.2h0l-1.2,3.2H137.2z
			 M135.6,10.3c-0.3-0.3-0.5-0.5-0.5-0.7c0-0.2,0.2-0.4,0.4-0.4c0.3,0,0.4,0.3,0.6,0.7l0.6,1.4h-0.1L135.6,10.3z" />
		</g>
		<g>
			<path class="st0" d="M72.9,29.2c0.9,0,1.2-0.3,1.2-0.8v-5.6c0-0.5-0.3-0.7-1.2-0.8v-0.1h3.2c2.6,0,4,1.6,4,3.6
			c0,1.9-1.2,3.8-3.9,3.8h-3.3V29.2z M75.9,29.1c2.3,0,3.1-0.8,3.1-3.6c0-2.8-1-3.4-3-3.4h-0.8v7H75.9z" />
			<path class="st0" d="M81,29.2c0.9,0,1.2-0.3,1.2-0.8v-5.6c0-0.5-0.3-0.7-1.2-0.8v-0.1h6l0,2.3l-0.1,0c-0.5-1.4-1.1-2.1-2.3-2.1
			h-1.4v3.2h0.7c0.9,0,1.3-0.3,1.6-1.5h0.1V27h-0.1c-0.3-1.2-0.7-1.5-1.6-1.5h-0.7v3.5h1.4c1.4,0,2.1-0.7,2.6-2.2l0.1,0l-0.1,2.4H81
			L81,29.2L81,29.2z" />
			<path class="st0" d="M88.4,25.6c0-2.3,1.9-3.9,3.8-3.9c0.8,0,1.4,0.2,1.9,0.4l0.4-0.5h0.1V24h-0.1c-0.5-1.4-1.4-2.1-2.4-2.1
			c-1.2,0-2.5,0.9-2.5,3.7c0,2.8,1.4,3.7,2.6,3.7c0.7,0,1.2-0.2,1.6-0.5V27c0-0.5-0.3-0.8-1.2-0.8V26h3.1v0.1
			c-0.7,0-0.8,0.2-0.8,0.8v1.9c-0.8,0.5-1.8,0.7-2.5,0.7C90.3,29.5,88.4,28.2,88.4,25.6z" />
			<path class="st0" d="M96.2,29.2c0.9,0,1.2-0.3,1.2-0.8v-5.6c0-0.5-0.3-0.7-1.2-0.8v-0.1h3.3V22c-1,0-1.1,0.3-1.1,0.8v6.3h1
			c1.4,0,2.1-0.5,2.7-2.1l0.1,0l-0.1,2.3h-5.9V29.2z" />
			<path class="st0" d="M102.8,29.2c1,0,1.2-0.3,1.2-0.8v-5.6c0-0.5-0.2-0.7-1.2-0.8v-0.1h3.5V22c-1,0-1.2,0.3-1.2,0.8v5.6
			c0,0.5,0.2,0.7,1.2,0.8v0.1h-3.5V29.2z" />
			<path class="st0" d="M109.3,26.9h0.2c0.6,1.4,1.2,2.4,2.4,2.4c1.1,0,1.7-0.8,1.7-1.4c0-1-0.7-1.4-2-1.8c-1-0.4-2.1-0.6-2.1-2
			c0-1.4,1.1-2.2,2.5-2.2c0.6,0,1.2,0.2,1.6,0.3l0.3-0.4h0.1v2.3h-0.2c-0.5-1.4-1.2-2.1-2.1-2.1c-0.8,0-1.4,0.5-1.4,1.4
			c0,1,0.7,1.3,1.9,1.7c1,0.3,2.1,0.7,2.1,2.1c0,1.1-0.7,2.4-2.5,2.4c-0.6,0-1.3-0.2-1.7-0.5l-0.7,0.5h-0.1L109.3,26.9L109.3,26.9z" />
			<path class="st0" d="M116.3,29.2c0.9,0,1.3-0.3,1.3-0.8v-6.3h-0.5c-0.8,0-1.5,0.7-2.1,2l-0.1,0l0.1-2.2h6.4l0.1,2.2l-0.1,0
			c-0.6-1.3-1.3-2-2.1-2h-0.5v6.3c0,0.5,0.3,0.7,1.3,0.8v0.1h-3.6L116.3,29.2L116.3,29.2z" />
			<path class="st0" d="M123.1,27.3v-4.5c0-0.5-0.3-0.7-1.2-0.8v-0.1h3.3V22c-1,0-1.1,0.3-1.1,0.8V27c0,1.7,1.1,2.1,2.3,2.1
			c0.5,0,1-0.2,1.4-0.5c0.4-0.4,0.6-0.9,0.6-1.7v-3.3c0-1-0.3-1.5-1.4-1.6v-0.1h2.9v0.1c-1,0.2-1.2,0.6-1.2,1.6v3.4
			c0,1.4-0.8,2.4-2.7,2.4C124.2,29.5,123.1,28.7,123.1,27.3z" />
			<path class="st0" d="M130.3,29.2c0.9,0,1.2-0.3,1.2-0.8v-5.6c0-0.5-0.3-0.7-1.2-0.8v-0.1h3.2c2.6,0,4,1.6,4,3.6
			c0,1.9-1.2,3.8-3.9,3.8h-3.3L130.3,29.2L130.3,29.2z M133.3,29.1c2.3,0,3.1-0.8,3.1-3.6c0-2.8-1-3.4-3-3.4h-0.8v7H133.3z" />
			<path class="st0" d="M138.5,29.2c1,0,1.2-0.3,1.2-0.8v-5.6c0-0.5-0.2-0.7-1.2-0.8v-0.1h3.5V22c-1,0-1.2,0.3-1.2,0.8v5.6
			c0,0.5,0.2,0.7,1.2,0.8v0.1h-3.5V29.2z" />
		</g>
		<g>
			<path class="st0" d="M72.9,39.1c0.9,0,1.2-0.3,1.2-0.8v-5.6c0-0.5-0.3-0.7-1.2-0.8v-0.1h3.2c2.6,0,4,1.6,4,3.6
			c0,1.9-1.2,3.8-3.9,3.8h-3.3V39.1z M75.9,39c2.3,0,3.1-0.8,3.1-3.6c0-2.8-1-3.4-3-3.4h-0.8v7H75.9z" />
			<path class="st0" d="M81,39.1c0.9,0,1.2-0.3,1.2-0.8v-5.6c0-0.5-0.3-0.7-1.2-0.8v-0.1h6l0,2.3l-0.1,0c-0.5-1.4-1.1-2.1-2.3-2.1
			h-1.4v3.2h0.7c0.9,0,1.3-0.3,1.6-1.5h0.1V37h-0.1c-0.3-1.2-0.7-1.5-1.6-1.5h-0.7V39h1.4c1.4,0,2.1-0.7,2.6-2.2l0.1,0l-0.1,2.4H81
			L81,39.1L81,39.1z" />
			<path class="st0" d="M88.2,39.1c0.9,0,1.2-0.3,1.2-0.8v-5.6c0-0.5-0.3-0.7-1.2-0.8v-0.1h3.3v0.1c-1,0-1.1,0.3-1.1,0.8V39h1
			c1.4,0,2.1-0.5,2.7-2.1l0.1,0l-0.1,2.3h-5.9V39.1z" />
			<path class="st0" d="M94.8,39.1c0.9,0,1.2-0.3,1.2-0.8v-5.6c0-0.5-0.3-0.7-1.2-0.8v-0.1h3.3v0.1c-1,0-1.1,0.3-1.1,0.8V39h1
			c1.4,0,2.1-0.5,2.7-2.1l0.1,0l-0.1,2.3h-5.9V39.1z" />
			<path class="st0" d="M105.7,36.4h-2.6l-0.3,0.9c-0.5,1.3-0.3,1.7,0.6,1.8v0.1h-2.5v-0.1c0.7-0.2,1.1-0.6,1.5-1.8l2.3-5.8h0.2
			l2.4,6.4c0.3,0.8,0.5,1,1.3,1.1v0.1h-3.2v-0.1c1,0,1.1-0.3,0.9-0.9L105.7,36.4z M105.6,36.2l-1.1-3.2h0l-1.2,3.2H105.6z" />
			<path class="st0" d="M112.9,38.3c0,0.5,0.2,0.7,1.2,0.8v0.1h-3.4v-0.1c0.9,0,1.2-0.3,1.2-0.8v-5.6c0-0.5-0.3-0.7-1.2-0.8v-0.1h3.1
			c2.2,0,3.1,0.8,3.1,1.8c0,0.9-0.6,1.7-2.3,1.9v0c1.6,0.1,1.9,0.8,2.1,1.9l0.1,0.4c0.2,1,0.3,1.1,1.3,1.1v0.1
			c-0.3,0.1-0.7,0.2-1.1,0.2c-1,0-1.2-0.4-1.3-1.4l-0.1-1c-0.1-1.1-0.4-1.3-1.7-1.3h-1L112.9,38.3L112.9,38.3z M113.9,35.4
			c1.5,0,1.8-0.7,1.8-1.8c0-1-0.4-1.6-2-1.6h-0.8v3.4H113.9z" />
			<path class="st0" d="M118.2,39.1c0.9,0,1.2-0.3,1.2-0.8v-5.6c0-0.5-0.3-0.7-1.2-0.8v-0.1h6l0,2.3l-0.1,0c-0.5-1.4-1.1-2.1-2.3-2.1
			h-1.4v3.2h0.7c0.9,0,1.3-0.3,1.6-1.5h0.1V37h-0.1c-0.3-1.2-0.7-1.5-1.6-1.5h-0.7V39h1.4c1.4,0,2.1-0.7,2.6-2.2l0.1,0l-0.1,2.4
			h-6.3L118.2,39.1L118.2,39.1z" />
			<path class="st0" d="M125.4,39.1c0.9,0,1.2-0.3,1.2-0.8v-5.6c0-0.5-0.3-0.7-1.2-0.8v-0.1h3c2.3,0,3,0.9,3,2c0,1-0.8,2.1-3.1,2.1
			h-0.8v2.4c0,0.5,0.3,0.7,1.3,0.8v0.1h-3.5V39.1z M128.5,35.7c1.5,0,1.8-0.7,1.8-1.9c0-1-0.3-1.8-1.8-1.8h-0.9v3.7H128.5z" />
			<path class="st0" d="M133.2,37.2v-4.5c0-0.5-0.3-0.7-1.2-0.8v-0.1h3.3v0.1c-1,0-1.1,0.3-1.1,0.8v4.2c0,1.7,1.1,2.1,2.3,2.1
			c0.5,0,1-0.2,1.4-0.5c0.4-0.4,0.6-0.9,0.6-1.7v-3.3c0-1-0.3-1.5-1.4-1.6v-0.1h2.9v0.1c-1,0.2-1.2,0.6-1.2,1.6V37
			c0,1.4-0.9,2.4-2.7,2.4C134.3,39.4,133.2,38.6,133.2,37.2z" />
			<path class="st0" d="M140.5,39.1c0.9,0,1.2-0.3,1.2-0.8v-5.6c0-0.5-0.3-0.7-1.2-0.8v-0.1h3.2c2.1,0,2.9,0.8,2.9,1.8
			c0,0.8-0.6,1.6-2.1,1.7v0c1.6,0.1,2.4,0.7,2.4,1.8c0,1-0.8,2.1-3.1,2.1h-3.3V39.1z M143.8,35.2c1.2,0,1.6-0.5,1.6-1.6
			c0-0.9-0.3-1.6-1.7-1.6h-1v3.2L143.8,35.2L143.8,35.2z M143.9,39c1.4,0,1.8-0.5,1.8-1.9c0-1-0.6-1.7-1.9-1.7h-1.1V39L143.9,39
			L143.9,39z" />
			<path class="st0" d="M147.6,39.1c0.9,0,1.2-0.3,1.2-0.8v-5.6c0-0.5-0.3-0.7-1.2-0.8v-0.1h3.2c2.1,0,2.9,0.8,2.9,1.8
			c0,0.8-0.6,1.6-2.1,1.7v0c1.6,0.1,2.4,0.7,2.4,1.8c0,1-0.8,2.1-3.1,2.1h-3.3V39.1z M150.9,35.2c1.2,0,1.6-0.5,1.6-1.6
			c0-0.9-0.3-1.6-1.7-1.6h-1v3.2L150.9,35.2L150.9,35.2z M151,39c1.4,0,1.8-0.5,1.8-1.9c0-1-0.6-1.7-1.9-1.7h-1.1V39L151,39L151,39z
			" />
			<path class="st0" d="M154.7,39.1c0.9,0,1.2-0.3,1.2-0.8v-5.6c0-0.5-0.3-0.7-1.2-0.8v-0.1h3.3v0.1c-1,0-1.1,0.3-1.1,0.8V39h1
			c1.4,0,2.1-0.5,2.7-2.1l0.1,0l-0.1,2.3h-5.9V39.1z" />
			<path class="st0" d="M161.3,39.1c1,0,1.2-0.3,1.2-0.8v-5.6c0-0.5-0.2-0.7-1.2-0.8v-0.1h3.5v0.1c-1,0-1.2,0.3-1.2,0.8v5.6
			c0,0.5,0.2,0.7,1.2,0.8v0.1h-3.5V39.1z" />
			<path class="st0" d="M165.7,35.6c0-2.3,1.7-4,3.8-4c0.8,0,1.4,0.2,1.9,0.4l0.4-0.5h0.1V34h-0.1c-0.5-1.4-1.3-2.2-2.4-2.2
			c-1.3,0-2.5,1.1-2.5,3.7c0,2.6,1.5,3.5,2.7,3.5c1.3,0,2.2-0.9,2.6-1.8l0.2,0.1c-0.5,1-1.4,2.1-3.1,2.1
			C167.2,39.4,165.7,37.9,165.7,35.6z" />
			<path class="st0" d="M177,36.4h-2.6l-0.3,0.9c-0.5,1.3-0.3,1.7,0.6,1.8v0.1h-2.5v-0.1c0.7-0.2,1.1-0.6,1.5-1.8l2.3-5.8h0.2
			l2.4,6.4c0.3,0.8,0.5,1,1.3,1.1v0.1h-3.2v-0.1c1,0,1.1-0.3,0.9-0.9L177,36.4z M177,36.2l-1.1-3.2h0l-1.2,3.2H177z" />
		</g>
		<g>
			<path class="st0" d="M72.9,49c0.9,0,1.2-0.3,1.2-0.8v-5.6c0-0.5-0.3-0.7-1.2-0.8v-0.1h3.2c2.6,0,4,1.6,4,3.6
			c0,1.9-1.2,3.8-3.9,3.8h-3.3V49z M75.9,48.9c2.3,0,3.1-0.8,3.1-3.6c0-2.8-1-3.4-3-3.4h-0.8v7H75.9z" />
			<path class="st0" d="M81,49c1,0,1.2-0.3,1.2-0.8v-5.6c0-0.5-0.2-0.7-1.2-0.8v-0.1h3.5v0.1c-1,0-1.2,0.3-1.2,0.8v5.6
			c0,0.5,0.2,0.7,1.2,0.8v0.1H81V49z" />
			<path class="st0" d="M87.5,46.7h0.2c0.6,1.3,1.2,2.4,2.4,2.4c1.1,0,1.7-0.8,1.7-1.4c0-1-0.7-1.3-2-1.8c-1-0.4-2.1-0.7-2.1-2
			c0-1.4,1.1-2.2,2.5-2.2c0.6,0,1.2,0.2,1.6,0.3l0.3-0.4h0.1v2.3H92c-0.5-1.3-1.2-2.1-2.1-2.1c-0.8,0-1.4,0.5-1.4,1.4
			c0,1,0.7,1.3,1.9,1.7c1,0.3,2.1,0.7,2.1,2.1c0,1.1-0.7,2.4-2.5,2.4c-0.6,0-1.3-0.2-1.7-0.5l-0.7,0.5h-0.1L87.5,46.7L87.5,46.7z" />
			<path class="st0" d="M97.7,46.3h-2.6l-0.3,0.9c-0.5,1.3-0.3,1.7,0.6,1.8v0.1h-2.5V49c0.7-0.2,1.1-0.6,1.5-1.8l2.3-5.8H97l2.4,6.4
			c0.3,0.8,0.5,1,1.3,1.1v0.1h-3.2V49c1,0,1.1-0.3,0.9-0.9L97.7,46.3z M97.6,46.1l-1.1-3.2h0l-1.2,3.2H97.6z" />
			<path class="st0" d="M102.3,42.8L102.3,42.8l0,4.6c0,1,0.2,1.5,1.3,1.6v0.1h-2.9V49c1-0.2,1.3-0.6,1.3-1.6v-4.3
			c0-0.7-0.4-1.2-1.3-1.2v-0.1h2.1l4.3,5.8h0v-4.1c0-1-0.3-1.5-1.4-1.6v-0.1h2.9v0.1c-1,0.2-1.2,0.6-1.2,1.6v5.9h-0.2L102.3,42.8z" />
			<path class="st0" d="M111.1,49c1-0.2,1.3-0.6,1.3-1.6v-4.3c0-0.7-0.4-1.2-1.3-1.2v-0.1h2.4l2.4,6h0l2.3-6h2.3v0.1
			c-0.9,0-1.2,0.3-1.2,0.8v5.6c0,0.5,0.3,0.7,1.2,0.8v0.1h-3.3V49c1,0,1.1-0.3,1.1-0.8v-5.8h-0.1l-2.7,6.8h-0.1l-2.8-6.8h-0.1v5
			c0,1,0.2,1.5,1.3,1.6v0.1h-2.9L111.1,49L111.1,49z" />
			<path class="st0" d="M125.3,46.3h-2.6l-0.3,0.9c-0.5,1.3-0.3,1.7,0.6,1.8v0.1h-2.5V49c0.7-0.2,1.1-0.6,1.5-1.8l2.3-5.8h0.2
			l2.4,6.4c0.3,0.8,0.5,1,1.3,1.1v0.1h-3.2V49c1,0,1.1-0.3,0.9-0.9L125.3,46.3z M125.3,46.1l-1.1-3.2h0l-1.2,3.2H125.3z" />
			<path class="st0" d="M130.6,48.2c0,0.5,0.2,0.7,1.2,0.8v0.1h-3.4V49c0.9,0,1.2-0.3,1.2-0.8v-5.6c0-0.5-0.3-0.7-1.2-0.8v-0.1h3.1
			c2.2,0,3.1,0.8,3.1,1.8c0,0.9-0.6,1.7-2.3,1.9v0c1.6,0.1,1.9,0.8,2.1,1.9l0.1,0.4c0.2,1,0.4,1.1,1.3,1.1v0.1
			c-0.3,0.1-0.7,0.2-1.1,0.2c-1,0-1.2-0.4-1.3-1.4l-0.1-1c-0.1-1.1-0.4-1.3-1.7-1.3h-1L130.6,48.2L130.6,48.2z M131.6,45.3
			c1.5,0,1.8-0.7,1.8-1.8c0-1-0.4-1.6-2-1.6h-0.9v3.4H131.6z" />
			<path class="st0" d="M135.9,49c1,0,1.2-0.3,1.2-0.8v-5.6c0-0.5-0.2-0.7-1.2-0.8v-0.1h3.5v0.1c-1,0-1.2,0.3-1.2,0.8v5.6
			c0,0.5,0.2,0.7,1.2,0.8v0.1h-3.5V49z" />
			<path class="st0" d="M141.8,42.8L141.8,42.8l0,4.6c0,1,0.2,1.5,1.3,1.6v0.1h-2.9V49c1-0.2,1.3-0.6,1.3-1.6v-4.3
			c0-0.7-0.4-1.2-1.3-1.2v-0.1h2.1l4.3,5.8h0v-4.1c0-1-0.3-1.5-1.4-1.6v-0.1h2.9v0.1c-1,0.2-1.2,0.6-1.2,1.6v5.9h-0.2L141.8,42.8z" />
			<path class="st0" d="M148.7,45.5c0-2.3,1.8-3.9,3.6-3.9c1.8,0,3.6,1.5,3.6,3.9c0,2.3-1.8,3.9-3.6,3.9
			C150.4,49.3,148.7,47.8,148.7,45.5z M154.6,45.4c0-2.9-1-3.7-2.4-3.7c-1.4,0-2.3,0.8-2.3,3.7c0,2.9,1,3.7,2.4,3.7
			S154.6,48.3,154.6,45.4z" />
		</g>
	</g>
	<path class="st0" d="M207.1,31c0,10.4,8.4,18.7,18.7,18.7c10.4,0,18.7-8.4,18.7-18.7V12.3h-37.4V31z" />
	<path class="st0" d="M267.2,49.4c10.2,0,18.5-8.2,18.5-18.5s-8.2-18.5-18.5-18.5h-18.5v36.9H267.2z" />
	<g>
		<path class="st0" d="M300.3,17.1h1v7.3c0,0.8-0.2,1.4-0.5,2c-0.4,0.6-0.8,1.1-1.5,1.4c-0.6,0.3-1.4,0.5-2.2,0.5
		c-0.8,0-1.6-0.2-2.2-0.5s-1.1-0.8-1.5-1.4c-0.4-0.6-0.5-1.3-0.5-2v-7.3h1v7.2c0,0.6,0.1,1.1,0.4,1.6c0.3,0.5,0.6,0.8,1.1,1.1
		c0.5,0.3,1,0.4,1.7,0.4c0.6,0,1.2-0.1,1.7-0.4s0.8-0.6,1.1-1.1c0.3-0.5,0.4-1,0.4-1.6V17.1z" />
		<path class="st0" d="M312.4,17.1v11h-1l-6.5-9.2h-0.1v9.2h-1v-11h1l6.5,9.2h0.1v-9.2H312.4z" />
		<path class="st0" d="M316,17.1v11h-1v-11H316z" />
		<path class="st0" d="M318.5,28.1v-11h3.6c0.8,0,1.4,0.1,2,0.4c0.5,0.3,0.9,0.7,1.2,1.2c0.3,0.5,0.4,1.1,0.4,1.7
		c0,0.6-0.1,1.2-0.4,1.7c-0.3,0.5-0.7,0.9-1.2,1.2c-0.5,0.3-1.2,0.4-1.9,0.4h-3v-0.9h3c0.6,0,1.1-0.1,1.4-0.3
		c0.4-0.2,0.7-0.5,0.9-0.8s0.3-0.8,0.3-1.2c0-0.5-0.1-0.9-0.3-1.3c-0.2-0.4-0.5-0.6-0.9-0.8c-0.4-0.2-0.9-0.3-1.4-0.3h-2.5v10.1
		H318.5z M323.4,23.2l2.7,5h-1.2l-2.7-5H323.4z" />
		<path class="st0" d="M333.7,19.9c-0.1-0.6-0.3-1.1-0.8-1.5c-0.5-0.4-1.1-0.5-1.8-0.5c-0.5,0-1,0.1-1.4,0.3
		c-0.4,0.2-0.7,0.4-0.9,0.7c-0.2,0.3-0.3,0.7-0.3,1.1c0,0.3,0.1,0.5,0.2,0.8c0.1,0.2,0.3,0.4,0.5,0.6c0.2,0.2,0.5,0.3,0.7,0.4
		c0.3,0.1,0.5,0.2,0.8,0.3l1.2,0.3c0.4,0.1,0.7,0.2,1.1,0.4c0.4,0.2,0.7,0.3,1,0.6c0.3,0.2,0.5,0.5,0.7,0.8c0.2,0.3,0.3,0.7,0.3,1.2
		c0,0.6-0.2,1.1-0.5,1.6c-0.3,0.5-0.7,0.8-1.3,1.1c-0.6,0.3-1.3,0.4-2.1,0.4c-0.8,0-1.4-0.1-2-0.4c-0.6-0.2-1-0.6-1.3-1
		c-0.3-0.4-0.5-1-0.5-1.5h1c0,0.4,0.2,0.8,0.4,1.1c0.3,0.3,0.6,0.5,1,0.7c0.4,0.2,0.9,0.2,1.3,0.2c0.5,0,1-0.1,1.5-0.3
		c0.4-0.2,0.8-0.4,1-0.8c0.2-0.3,0.4-0.7,0.4-1.2c0-0.4-0.1-0.7-0.3-0.9c-0.2-0.3-0.5-0.5-0.8-0.6c-0.3-0.2-0.7-0.3-1.2-0.5
		l-1.3-0.4c-0.9-0.3-1.5-0.6-2-1.1c-0.5-0.5-0.7-1-0.7-1.7c0-0.6,0.2-1.1,0.5-1.6c0.3-0.5,0.7-0.8,1.3-1.1c0.5-0.3,1.2-0.4,1.8-0.4
		c0.7,0,1.3,0.1,1.8,0.4c0.5,0.3,0.9,0.6,1.3,1c0.3,0.4,0.5,0.9,0.5,1.5H333.7z" />
		<path class="st0" d="M336.9,17.1h1.2l4,9.6h0.1l4-9.6h1.2v11h-0.9v-8.9h-0.1l-3.7,8.9h-0.9l-3.7-8.9h-0.1v8.9h-0.9V17.1z" />
		<path class="st0" d="M296.1,43.7h-3.2v-11h3.4c1.1,0,2,0.2,2.7,0.7c0.7,0.4,1.3,1.1,1.7,1.9c0.4,0.8,0.6,1.8,0.6,2.9
		c0,1.2-0.2,2.1-0.6,3c-0.4,0.8-1,1.5-1.8,1.9C298.2,43.5,297.2,43.7,296.1,43.7z M293.9,42.8h2.2c0.9,0,1.7-0.2,2.4-0.6
		c0.6-0.4,1.1-0.9,1.4-1.6c0.3-0.7,0.5-1.5,0.5-2.5c0-1-0.2-1.8-0.5-2.5c-0.3-0.7-0.8-1.2-1.4-1.6c-0.6-0.4-1.4-0.5-2.3-0.5h-2.4
		V42.8z" />
		<path class="st0" d="M303.4,43.7v-11h6.4v0.9h-5.4v4.2h5.1v0.9h-5.1v4.2h5.5v0.9H303.4z" />
		<path class="st0" d="M318,35.4c-0.1-0.6-0.3-1.1-0.8-1.5c-0.5-0.4-1.1-0.5-1.8-0.5c-0.5,0-1,0.1-1.4,0.3s-0.7,0.4-0.9,0.7
		c-0.2,0.3-0.3,0.7-0.3,1.1c0,0.3,0.1,0.5,0.2,0.8c0.1,0.2,0.3,0.4,0.5,0.6c0.2,0.2,0.5,0.3,0.7,0.4c0.3,0.1,0.5,0.2,0.8,0.3
		l1.2,0.3c0.4,0.1,0.7,0.2,1.1,0.4c0.4,0.2,0.7,0.3,1,0.6c0.3,0.2,0.5,0.5,0.7,0.8c0.2,0.3,0.3,0.7,0.3,1.2c0,0.6-0.2,1.1-0.5,1.6
		c-0.3,0.5-0.7,0.8-1.3,1.1c-0.6,0.3-1.3,0.4-2.1,0.4c-0.8,0-1.4-0.1-2-0.4c-0.6-0.2-1-0.6-1.3-1c-0.3-0.4-0.5-1-0.5-1.5h1
		c0,0.4,0.2,0.8,0.4,1.1c0.3,0.3,0.6,0.5,1,0.7c0.4,0.2,0.9,0.2,1.3,0.2c0.6,0,1-0.1,1.5-0.3c0.4-0.2,0.8-0.4,1-0.8
		c0.2-0.3,0.4-0.7,0.4-1.2c0-0.4-0.1-0.7-0.3-0.9c-0.2-0.3-0.5-0.5-0.8-0.6c-0.3-0.2-0.7-0.3-1.2-0.5l-1.3-0.4
		c-0.9-0.3-1.5-0.6-2-1.1c-0.5-0.5-0.7-1-0.7-1.7c0-0.6,0.2-1.1,0.5-1.6c0.3-0.5,0.7-0.8,1.3-1.1c0.5-0.3,1.2-0.4,1.8-0.4
		c0.7,0,1.3,0.1,1.8,0.4c0.5,0.3,0.9,0.6,1.3,1c0.3,0.4,0.5,0.9,0.5,1.5H318z" />
		<path class="st0" d="M322.2,32.6v11h-1v-11H322.2z" />
		<path class="st0" d="M332.4,36.1c-0.1-0.4-0.2-0.7-0.4-1c-0.2-0.3-0.4-0.6-0.7-0.8c-0.3-0.2-0.6-0.4-1-0.6
		c-0.4-0.1-0.8-0.2-1.2-0.2c-0.7,0-1.4,0.2-1.9,0.6c-0.6,0.4-1,0.9-1.3,1.6c-0.3,0.7-0.5,1.6-0.5,2.5c0,1,0.2,1.8,0.5,2.5
		c0.3,0.7,0.8,1.2,1.4,1.6c0.6,0.4,1.2,0.6,2,0.6c0.7,0,1.3-0.2,1.8-0.5c0.5-0.3,0.9-0.7,1.2-1.3c0.3-0.6,0.4-1.2,0.4-2l0.3,0.1
		h-3.5v-0.9h4.2v0.9c0,0.9-0.2,1.8-0.6,2.4c-0.4,0.7-0.9,1.2-1.6,1.6c-0.7,0.4-1.4,0.6-2.3,0.6c-1,0-1.8-0.2-2.5-0.7
		c-0.7-0.5-1.3-1.1-1.7-2c-0.4-0.8-0.6-1.8-0.6-3c0-0.9,0.1-1.6,0.3-2.3c0.2-0.7,0.6-1.3,1-1.8c0.4-0.5,0.9-0.9,1.5-1.1
		c0.6-0.3,1.2-0.4,1.9-0.4c0.6,0,1.2,0.1,1.7,0.3c0.5,0.2,0.9,0.5,1.3,0.8c0.4,0.3,0.7,0.7,0.9,1.1c0.2,0.4,0.4,0.9,0.5,1.4H332.4z" />
		<path class="st0" d="M344.2,32.6v11h-1l-6.5-9.2h-0.1v9.2h-1v-11h1l6.5,9.2h0.1v-9.2H344.2z" />
	</g>
</svg>
